<?xml version="1.0" standalone="no"?>
<!DOCTYPE svg PUBLIC "-//W3C//DTD SVG 1.1//EN" "http://www.w3.org/Graphics/SVG/1.1/DTD/svg11.dtd" >
<svg xmlns="http://www.w3.org/2000/svg" xmlns:xlink="http://www.w3.org/1999/xlink" version="1.1">
<metadata>
Created by FontForge 20170910 at Tue Feb 18 13:22:26 2014
 By Jimmy Wärting
Copyright \(c\) 2014 by Fontfabric LLC. All rights reserved.
</metadata>
<defs>
<font id="GloberBoldFree" horiz-adv-x="556" >
  <font-face 
    font-family="Glober Bold Free"
    font-weight="700"
    font-stretch="normal"
    units-per-em="1000"
    panose-1="0 0 0 0 0 0 0 0 0 0"
    ascent="750"
    descent="-250"
    x-height="526"
    cap-height="720"
    bbox="-165 -285 941 1053.43"
    underline-thickness="50"
    underline-position="-100"
    stemh="82"
    stemv="100"
    unicode-range="U+0020-FB02"
  />
<missing-glyph horiz-adv-x="618" 
d="M575 0h-538v720h538v-720zM462 493c0 96 -68 140 -162 140c-81 0 -128 -28 -128 -28c-2 -23 7 -44 25 -57c0 0 34 19 91 19c56 0 92 -22 92 -77c0 -119 -123 -82 -123 -253c0 0 12 -8 31 -8c22 0 31 8 31 8c0 128 143 100 143 256zM330 161c0 0 -15 6 -42 6
c-29 0 -41 -6 -41 -6v-75s12 -5 41 -5c27 0 42 5 42 5v75z" />
    <glyph glyph-name=".notdef" horiz-adv-x="618" 
d="M575 0h-538v720h538v-720zM462 493c0 96 -68 140 -162 140c-81 0 -128 -28 -128 -28c-2 -23 7 -44 25 -57c0 0 34 19 91 19c56 0 92 -22 92 -77c0 -119 -123 -82 -123 -253c0 0 12 -8 31 -8c22 0 31 8 31 8c0 128 143 100 143 256zM330 161c0 0 -15 6 -42 6
c-29 0 -41 -6 -41 -6v-75s12 -5 41 -5c27 0 42 5 42 5v75z" />
    <glyph glyph-name="A" unicode="A" horiz-adv-x="654" 
d="M267 713c0 0 25 7 60 7c38 0 60 -7 60 -7l251 -706s-18 -7 -55 -7c-34 0 -50 7 -50 7l-62 176h-296l-63 -176s-17 -7 -49 -7c-31 0 -47 7 -47 7zM325 609h-3s-9 -40 -26 -90l-92 -253h238l-91 253c-18 52 -26 90 -26 90z" />
    <glyph glyph-name="AE" unicode="&#xc6;" horiz-adv-x="865" 
d="M438 720h366c13 -27 10 -60 0 -83h-266v-232h216c10 -27 10 -58 0 -83h-216v-239h276c11 -28 11 -60 0 -83h-370v179h-229l-102 -171c-14 -5 -34 -8 -55 -8c-20 0 -41 2 -53 8zM264 262h180v301z" />
    <glyph glyph-name="AEacute" unicode="&#x1fc;" horiz-adv-x="865" 
d="M723 888l-125 -135c-25 4 -45 14 -57 31l94 141c33 4 73 -14 88 -37zM114 8c-15 -5 -35 -8 -55 -8c-21 0 -41 2 -54 8l433 712h367c9 -25 9 -60 0 -83h-266v-232h216c9 -28 10 -58 0 -83h-216v-239h276c10 -28 10 -56 0 -83h-371v179h-229zM445 563l-180 -301h180v301z
" />
    <glyph glyph-name="Aacute" unicode="&#xc1;" horiz-adv-x="654" 
d="M272 783l95 141c32 4 72 -14 87 -37l-125 -135c-24 4 -45 14 -57 31zM267 713c0 0 25 7 60 7c38 0 60 -7 60 -7l251 -706s-18 -7 -55 -7c-34 0 -50 7 -50 7l-62 176h-296l-63 -176s-17 -7 -49 -7c-31 0 -47 7 -47 7zM325 609h-3s-9 -40 -26 -90l-92 -253h238l-91 253
c-18 52 -26 90 -26 90z" />
    <glyph glyph-name="Abreve" unicode="&#x102;" horiz-adv-x="654" 
d="M323 849c69 0 110 32 110 32c21 -7 38 -26 44 -46c0 0 -51 -60 -154 -60s-155 60 -155 60c7 20 24 39 45 46c0 0 41 -32 110 -32zM267 713c0 0 25 7 60 7c38 0 60 -7 60 -7l251 -706s-18 -7 -55 -7c-34 0 -50 7 -50 7l-62 176h-296l-63 -176s-17 -7 -49 -7
c-31 0 -47 7 -47 7zM325 609h-3s-9 -40 -26 -90l-92 -253h238l-91 253c-18 52 -26 90 -26 90z" />
    <glyph glyph-name="Acircumflex" unicode="&#xc2;" horiz-adv-x="654" 
d="M336 915l138 -114c-9 -20 -25 -38 -46 -44l-105 71l-104 -71c-21 7 -36 24 -46 44l137 114h26zM267 713c0 0 25 7 60 7c38 0 60 -7 60 -7l251 -706s-18 -7 -55 -7c-34 0 -50 7 -50 7l-62 176h-296l-63 -176s-17 -7 -49 -7c-31 0 -47 7 -47 7zM325 609h-3s-9 -40 -26 -90
l-92 -253h238l-91 253c-18 52 -26 90 -26 90z" />
    <glyph glyph-name="Adieresis" unicode="&#xc4;" horiz-adv-x="654" 
d="M194 843c0 0 14 6 45 6c30 0 46 -6 46 -6v-81s-16 -6 -46 -6c-31 0 -45 6 -45 6v81zM364 843c0 0 14 6 45 6c30 0 46 -6 46 -6v-81s-16 -6 -46 -6c-31 0 -45 6 -45 6v81zM267 713c0 0 25 7 60 7c38 0 60 -7 60 -7l251 -706s-18 -7 -55 -7c-34 0 -50 7 -50 7l-62 176h-296
l-63 -176s-17 -7 -49 -7c-31 0 -47 7 -47 7zM325 609h-3s-9 -40 -26 -90l-92 -253h238l-91 253c-18 52 -26 90 -26 90z" />
    <glyph glyph-name="Agrave" unicode="&#xc0;" horiz-adv-x="654" 
d="M295 923l95 -141c-12 -17 -33 -27 -57 -31l-125 135c14 23 55 41 87 37zM267 713c0 0 25 7 60 7c38 0 60 -7 60 -7l251 -706s-18 -7 -55 -7c-34 0 -50 7 -50 7l-62 176h-296l-63 -176s-17 -7 -49 -7c-31 0 -47 7 -47 7zM325 609h-3s-9 -40 -26 -90l-92 -253h238l-91 253
c-18 52 -26 90 -26 90z" />
    <glyph glyph-name="Amacron" unicode="&#x100;" horiz-adv-x="654" 
d="M175 843h295c6 -19 5 -42 0 -61h-295c-6 20 -6 42 0 61zM267 713c0 0 25 7 60 7c38 0 60 -7 60 -7l251 -706s-18 -7 -55 -7c-34 0 -50 7 -50 7l-62 176h-296l-63 -176s-17 -7 -49 -7c-31 0 -47 7 -47 7zM325 609h-3s-9 -40 -26 -90l-92 -253h238l-91 253
c-18 52 -26 90 -26 90z" />
    <glyph glyph-name="Aogonek" unicode="&#x104;" horiz-adv-x="654" 
d="M589 -134c18 0 32 6 32 6c11 -8 16 -23 15 -39c0 0 -30 -18 -68 -18c-56 0 -99 34 -99 93c0 44 23 78 67 98l-3 1l-62 176h-296l-63 -176s-17 -7 -49 -7c-31 0 -47 7 -47 7l251 706s25 7 60 7c38 0 60 -7 60 -7l251 -706s-6 -2 -19 -4c-45 -13 -84 -39 -84 -85
c0 -36 24 -52 54 -52zM442 266l-91 253c-18 52 -26 90 -26 90h-3s-9 -40 -26 -90l-92 -253h238z" />
    <glyph glyph-name="Aring" unicode="&#xc5;" horiz-adv-x="654" 
d="M394 693l244 -686s-18 -7 -55 -7c-34 0 -50 7 -50 7l-62 176h-296l-63 -176s-17 -7 -49 -7c-31 0 -47 7 -47 7l243 683c-32 17 -54 49 -54 94c0 72 59 110 120 110c59 0 121 -37 121 -110c0 -43 -22 -74 -52 -91zM388 784c0 30 -21 59 -64 59c-42 0 -62 -30 -62 -59
c0 -31 20 -60 62 -60c43 0 64 30 64 60zM442 266l-91 253c-18 52 -26 90 -26 90h-3s-9 -40 -26 -90l-92 -253h238z" />
    <glyph glyph-name="Aringacute" unicode="&#x1fa;" horiz-adv-x="654" 
d="M457 1025l-117 -99c-22 3 -41 10 -52 23l88 104c31 3 68 -10 81 -28zM394 693l244 -686s-18 -7 -55 -7c-34 0 -50 7 -50 7l-62 176h-296l-63 -176s-17 -7 -49 -7c-31 0 -47 7 -47 7l243 683c-33 16 -54 49 -54 94c0 72 58 110 120 110c59 0 120 -37 120 -110
c0 -43 -21 -74 -51 -91zM388 784c0 30 -22 59 -64 59s-62 -30 -62 -59c0 -31 20 -60 62 -60s64 30 64 60zM442 266l-91 253c-18 52 -26 90 -26 90h-3s-9 -40 -26 -90l-92 -253h238z" />
    <glyph glyph-name="Atilde" unicode="&#xc3;" horiz-adv-x="654" 
d="M182 798c0 0 24 54 85 58c57 3 75 -36 116 -34c27 1 40 26 40 26c19 -4 39 -16 48 -34c0 0 -28 -52 -89 -55c-57 -3 -73 35 -113 33c-31 -2 -42 -26 -42 -26c-21 3 -39 15 -45 32zM267 713c0 0 25 7 60 7c38 0 60 -7 60 -7l251 -706s-18 -7 -55 -7c-34 0 -50 7 -50 7
l-62 176h-296l-63 -176s-17 -7 -49 -7c-31 0 -47 7 -47 7zM325 609h-3s-9 -40 -26 -90l-92 -253h238l-91 253c-18 52 -26 90 -26 90z" />
    <glyph glyph-name="B" unicode="B" horiz-adv-x="628" 
d="M89 720h268c129 0 196 -84 196 -198c0 -83 -44 -129 -80 -152c43 -22 101 -68 101 -167c0 -121 -77 -203 -213 -203h-272v720zM191 403h144c81 0 114 50 114 119c0 71 -32 119 -115 119h-143v-238zM191 79h151c90 0 127 46 127 124c0 84 -40 124 -128 124h-150v-248z" />
    <glyph glyph-name="C" unicode="C" horiz-adv-x="562" 
d="M58 360c0 242 99 370 291 370c111 0 171 -34 171 -34c2 -33 -12 -56 -30 -76c0 0 -58 23 -129 23c-116 0 -197 -61 -197 -284s81 -280 197 -280c79 0 139 23 139 23c20 -19 30 -48 31 -78c0 0 -65 -34 -182 -34c-191 0 -291 126 -291 370z" />
    <glyph glyph-name="CR" horiz-adv-x="322" 
 />
    <glyph glyph-name="Cacute" unicode="&#x106;" horiz-adv-x="562" 
d="M456 888l-125 -135c-24 4 -45 14 -57 31l95 141c32 4 72 -14 87 -37zM350 -10c-192 0 -292 126 -292 370c0 242 100 370 292 370c110 0 171 -34 171 -34c2 -33 -12 -56 -31 -76c0 0 -57 23 -129 23c-115 0 -196 -61 -196 -284s81 -280 196 -280c80 0 139 23 139 23
c20 -19 31 -48 31 -78c0 0 -65 -34 -181 -34z" />
    <glyph glyph-name="Ccaron" unicode="&#x10c;" horiz-adv-x="563" 
d="M338 757l-138 113c10 20 26 38 46 45l106 -71l104 70c20 -7 36 -24 46 -44l-138 -113h-26zM350 -10c-192 0 -292 126 -292 370c0 242 100 370 292 370c110 0 171 -34 171 -34c2 -33 -12 -56 -31 -76c0 0 -57 23 -129 23c-115 0 -196 -61 -196 -284s81 -280 196 -280
c80 0 139 23 139 23c20 -19 31 -48 31 -78c0 0 -65 -34 -181 -34z" />
    <glyph glyph-name="Ccedilla" unicode="&#xc7;" horiz-adv-x="562" 
d="M523 67c10 -23 8 -43 8 -43s-63 -33 -176 -34l-6 -36c76 0 104 -40 104 -95c0 -66 -46 -100 -121 -100c-59 0 -91 24 -91 24c-1 18 7 34 21 42c10 -5 36 -14 65 -14c36 0 63 14 63 51c0 27 -17 46 -56 46h-36l-13 14l13 72c-158 21 -240 145 -240 366
c0 242 100 370 292 370c110 0 171 -34 171 -34s3 -17 -7 -40c-9 -25 -24 -35 -24 -35s-57 23 -129 23c-115 0 -196 -62 -196 -285s81 -281 196 -281c80 0 139 23 139 23s14 -11 23 -34z" />
    <glyph glyph-name="Ccircumflex" unicode="&#x108;" horiz-adv-x="562" 
d="M367 909l139 -113c-10 -20 -26 -38 -47 -45l-105 71l-104 -70c-21 7 -36 23 -46 44l137 113h26zM350 -10c-192 0 -292 126 -292 370c0 242 100 370 292 370c110 0 171 -34 171 -34c2 -32 -12 -56 -31 -76c0 0 -57 23 -129 23c-115 0 -196 -61 -196 -284s81 -280 196 -280
c80 0 139 23 139 23c20 -19 31 -48 31 -78c0 0 -65 -34 -181 -34z" />
    <glyph glyph-name="Cdotaccent" unicode="&#x10a;" horiz-adv-x="563" 
d="M399 866v-86s-17 -6 -48 -6c-33 0 -48 6 -48 6v86s15 6 48 6c31 0 48 -6 48 -6zM350 -10c-192 0 -292 126 -292 370c0 242 100 370 292 370c110 0 171 -34 171 -34c2 -32 -12 -56 -31 -76c0 0 -57 23 -129 23c-115 0 -196 -61 -196 -284s81 -280 196 -280
c80 0 139 23 139 23c20 -19 31 -48 31 -78c0 0 -65 -34 -181 -34z" />
    <glyph glyph-name="D" unicode="D" horiz-adv-x="664" 
d="M89 720h222c185 0 294 -95 294 -360s-109 -360 -294 -360h-222v720zM191 85h113c117 0 192 50 192 275c0 226 -75 275 -192 275h-113v-550z" />
    <glyph glyph-name="Dcaron" unicode="&#x10e;" horiz-adv-x="664" 
d="M279 757l-138 113c10 20 25 38 46 45l105 -71l104 70c21 -7 36 -24 46 -44l-137 -113h-26zM89 720h222c185 0 294 -95 294 -360s-109 -360 -294 -360h-222v720zM191 85h113c117 0 192 50 192 275c0 226 -75 275 -192 275h-113v-550z" />
    <glyph glyph-name="Dcroat" unicode="&#x110;" horiz-adv-x="677" 
d="M101 720h222c185 0 294 -95 294 -360s-109 -360 -294 -360h-222v322h-79c-6 21 -6 50 0 69h79v329zM203 635v-244h142c7 -19 6 -49 0 -69h-142v-237h113c117 0 192 50 192 275c0 226 -75 275 -192 275h-113z" />
    <glyph glyph-name="E" unicode="E" 
d="M89 720h406c4 -12 8 -25 8 -39c0 -16 -3 -31 -8 -44h-304v-232h254c4 -12 8 -26 8 -40s-3 -29 -8 -42h-254v-240h314c4 -13 8 -26 8 -40c0 -15 -3 -29 -8 -43h-416v720z" />
    <glyph glyph-name="Eacute" unicode="&#xc9;" 
d="M396 888l-125 -135c-24 4 -45 14 -57 31l95 141c32 4 72 -14 87 -37zM89 720h406c4 -12 8 -25 8 -39c0 -16 -3 -31 -8 -44h-304v-232h254c4 -12 8 -26 8 -40s-3 -29 -8 -42h-254v-240h314c4 -13 8 -26 8 -40c0 -15 -3 -29 -8 -43h-416v720z" />
    <glyph glyph-name="Ebreve" unicode="&#x114;" 
d="M442 838c0 0 -51 -60 -154 -60c-104 0 -155 60 -155 60c6 20 23 39 44 46c0 0 42 -32 111 -32s110 32 110 32c21 -7 37 -26 44 -46zM89 720h406c4 -12 8 -25 8 -39c0 -16 -3 -31 -8 -44h-304v-232h254c4 -12 8 -26 8 -40s-3 -29 -8 -42h-254v-240h314c4 -13 8 -26 8 -40
c0 -15 -3 -29 -8 -43h-416v720z" />
    <glyph glyph-name="Ecaron" unicode="&#x11a;" 
d="M265 757l-139 113c10 20 26 38 47 45l105 -71l104 70c20 -7 36 -24 46 -44l-137 -113h-26zM89 720h406c4 -12 8 -25 8 -39c0 -16 -3 -31 -8 -44h-304v-232h254c4 -12 8 -26 8 -40s-3 -29 -8 -42h-254v-240h314c4 -13 8 -26 8 -40c0 -15 -3 -29 -8 -43h-416v720z" />
    <glyph glyph-name="Ecircumflex" unicode="&#xca;" 
d="M304 915l138 -114c-10 -20 -25 -38 -46 -44l-105 71l-104 -71c-21 7 -37 24 -47 44l138 114h26zM89 720h406c4 -12 8 -25 8 -39c0 -16 -3 -31 -8 -44h-304v-232h254c4 -12 8 -26 8 -40s-3 -29 -8 -42h-254v-240h314c4 -13 8 -26 8 -40c0 -15 -3 -29 -8 -43h-416v720z" />
    <glyph glyph-name="Edieresis" unicode="&#xcb;" 
d="M251 843v-81s-16 -6 -45 -6c-32 0 -46 6 -46 6v81s14 6 46 6c29 0 45 -6 45 -6zM421 843v-81s-16 -6 -46 -6c-31 0 -45 6 -45 6v81s14 6 45 6c30 0 46 -6 46 -6zM89 720h406c4 -12 8 -25 8 -39c0 -16 -3 -31 -8 -44h-304v-232h254c4 -12 8 -26 8 -40s-3 -29 -8 -42h-254
v-240h314c4 -13 8 -26 8 -40c0 -15 -3 -29 -8 -43h-416v720z" />
    <glyph glyph-name="Edotaccent" unicode="&#x116;" 
d="M340 866v-86s-16 -6 -47 -6c-34 0 -48 6 -48 6v86s14 6 48 6c31 0 47 -6 47 -6zM89 720h406c4 -12 8 -25 8 -39c0 -16 -3 -31 -8 -44h-304v-232h254c4 -12 8 -26 8 -40s-3 -29 -8 -42h-254v-240h314c4 -13 8 -26 8 -40c0 -15 -3 -29 -8 -43h-416v720z" />
    <glyph glyph-name="Egrave" unicode="&#xc8;" 
d="M297 751l-125 135c14 23 55 41 87 37l95 -141c-12 -17 -33 -27 -57 -31zM89 720h406c4 -12 8 -25 8 -39c0 -16 -3 -31 -8 -44h-304v-232h254c4 -12 8 -26 8 -40s-3 -29 -8 -42h-254v-240h314c4 -13 8 -26 8 -40c0 -15 -3 -29 -8 -43h-416v720z" />
    <glyph glyph-name="Emacron" unicode="&#x112;" 
d="M436 782h-294c-6 20 -6 42 0 61h294c7 -19 6 -42 0 -61zM89 720h406c4 -12 8 -25 8 -39c0 -16 -3 -31 -8 -44h-304v-232h254c4 -12 8 -26 8 -40s-3 -29 -8 -42h-254v-240h314c4 -13 8 -26 8 -40c0 -15 -3 -29 -8 -43h-416v720z" />
    <glyph glyph-name="Eng" unicode="&#x14a;" horiz-adv-x="700" 
d="M517 713c0 0 15 7 48 7s46 -7 46 -7v-756c0 -101 -36 -156 -125 -185c-24 16 -35 43 -33 73c42 16 59 45 59 111v47c-14 2 -22 4 -22 4l-251 455c-37 65 -59 129 -59 129h-4s7 -67 7 -168v-416s-15 -7 -48 -7c-32 0 -46 7 -46 7v706s21 7 61 7s60 -7 60 -7l248 -451
c37 -65 63 -133 63 -133h3s-7 74 -7 167v417z" />
    <glyph glyph-name="Eogonek" unicode="&#x118;" 
d="M89 720h406c4 -12 8 -25 8 -39c0 -16 -3 -31 -8 -44h-304v-232h254c4 -12 8 -26 8 -40s-3 -29 -8 -42h-254v-240h314c4 -13 8 -26 8 -40c0 -15 -3 -29 -8 -43c-66 -14 -110 -39 -110 -89c0 -36 24 -52 53 -52c18 0 32 6 32 6c11 -8 16 -23 15 -39c0 0 -29 -18 -67 -18
c-56 0 -99 34 -99 93c0 44 23 78 67 99h-307v720z" />
    <glyph glyph-name="Eth" unicode="&#xd0;" horiz-adv-x="677" 
d="M101 720h222c185 0 294 -95 294 -360s-109 -360 -294 -360h-222v322h-79c-6 21 -6 51 0 69h79v329zM203 635v-244h142c7 -19 6 -50 0 -69h-142v-237h113c117 0 192 50 192 275c0 226 -75 275 -192 275h-113z" />
    <glyph glyph-name="F" unicode="F" horiz-adv-x="532" 
d="M191 310v-303s-17 -7 -52 -7c-33 0 -50 7 -50 7v713h398c5 -11 8 -25 8 -41s-3 -30 -8 -42h-296v-244h262c5 -10 8 -24 8 -40s-3 -31 -8 -43h-262z" />
    <glyph glyph-name="G" unicode="G" horiz-adv-x="629" 
d="M58 360c0 242 108 370 307 370c119 0 187 -34 187 -34c0 -28 -11 -57 -30 -75c0 0 -67 23 -146 23c-122 0 -212 -62 -212 -285s90 -281 212 -281c46 0 82 6 91 8v231h-145s-8 15 -8 41c0 27 8 42 8 42h241v-376s-74 -34 -198 -34c-199 0 -307 126 -307 370z" />
    <glyph glyph-name="Gbreve" unicode="&#x11e;" horiz-adv-x="630" 
d="M524 835c0 0 -51 -60 -154 -60s-154 60 -154 60c6 20 23 39 44 46c0 0 41 -32 110 -32s110 32 110 32c22 -7 38 -26 44 -46zM365 -10c-198 0 -307 126 -307 370c0 242 109 370 307 370c119 0 188 -34 188 -34c-1 -28 -12 -57 -31 -75c0 0 -67 23 -145 23
c-122 0 -212 -62 -212 -285s89 -281 212 -281c45 0 82 6 90 8v231h-145s-8 15 -8 41c0 27 8 42 8 42h241v-376s-74 -34 -198 -34z" />
    <glyph glyph-name="Gcircumflex" unicode="&#x11c;" horiz-adv-x="630" 
d="M388 915l138 -114c-10 -20 -25 -38 -46 -44l-105 71l-104 -71c-21 7 -36 24 -46 44l137 114h26zM365 -10c-198 0 -307 126 -307 370c0 242 109 370 307 370c119 0 188 -34 188 -34c-1 -28 -12 -57 -31 -75c0 0 -67 23 -145 23c-122 0 -212 -62 -212 -285
s89 -281 212 -281c45 0 82 6 90 8v231h-145s-8 15 -8 41c0 27 8 42 8 42h241v-376s-74 -34 -198 -34z" />
    <glyph glyph-name="Gcommaaccent" unicode="&#x122;" horiz-adv-x="630" 
d="M365 -10c-198 0 -307 126 -307 370c0 242 109 370 307 370c119 0 188 -34 188 -34c-1 -28 -12 -57 -31 -75c0 0 -67 23 -145 23c-122 0 -212 -62 -212 -285s89 -281 212 -281c45 0 82 6 90 8v231h-145s-8 15 -8 41c0 27 8 42 8 42h241v-376s-74 -34 -198 -34zM346 -259
l-38 24s34 32 38 93c-24 1 -35 6 -35 6v88s20 7 56 7s55 -7 55 -7v-58c0 -101 -76 -153 -76 -153z" />
    <glyph glyph-name="Gdotaccent" unicode="&#x120;" horiz-adv-x="630" 
d="M414 866v-86s-16 -6 -47 -6c-33 0 -48 6 -48 6v86s15 6 48 6c31 0 47 -6 47 -6zM365 -10c-198 0 -307 126 -307 370c0 242 109 370 307 370c119 0 188 -34 188 -34c-1 -28 -12 -57 -31 -75c0 0 -67 23 -145 23c-122 0 -212 -62 -212 -285s89 -281 212 -281
c45 0 82 6 90 8v231h-145s-8 15 -8 41c0 27 8 42 8 42h241v-376s-74 -34 -198 -34z" />
    <glyph glyph-name="H" unicode="H" horiz-adv-x="682" 
d="M491 413v300s18 7 51 7s51 -7 51 -7v-706s-17 -7 -50 -7c-38 0 -52 7 -52 7v318h-300v-318s-18 -7 -51 -7c-36 0 -51 7 -51 7v706s17 7 50 7c34 0 52 -7 52 -7v-300h300z" />
    <glyph glyph-name="Hbar" unicode="&#x126;" horiz-adv-x="701" 
d="M603 605h75c6 -19 5 -44 0 -63h-75v-535s-17 -7 -50 -7c-38 0 -52 7 -52 7v318h-300v-318s-18 -7 -51 -7c-36 0 -51 7 -51 7v535h-65c-6 22 -6 44 0 63h65v108s17 7 50 7c34 0 52 -7 52 -7v-108h300v108s18 7 51 7s51 -7 51 -7v-108zM201 542v-129h300v129h-300z" />
    <glyph glyph-name="Hcircumflex" unicode="&#x124;" horiz-adv-x="682" 
d="M360 915l138 -114c-10 -20 -25 -38 -46 -44l-105 71l-104 -71c-21 7 -36 24 -46 44l137 114h26zM491 413v300s18 7 51 7s51 -7 51 -7v-706s-17 -7 -50 -7c-38 0 -52 7 -52 7v318h-300v-318s-18 -7 -51 -7c-36 0 -51 7 -51 7v706s17 7 50 7c34 0 52 -7 52 -7v-300h300z
" />
    <glyph glyph-name="I" unicode="I" horiz-adv-x="280" 
d="M89 7v706s17 7 50 7c35 0 52 -7 52 -7v-706s-18 -7 -51 -7c-36 0 -51 7 -51 7z" />
    <glyph glyph-name="IJ" unicode="&#x132;" horiz-adv-x="690" 
d="M89 7v706s17 7 50 7c35 0 52 -7 52 -7v-706s-18 -7 -51 -7c-36 0 -51 7 -51 7zM504 188v525s14 7 51 7c34 0 50 -7 50 -7v-525c0 -136 -77 -198 -193 -198c-79 0 -146 30 -146 30c-1 31 8 57 28 77c0 0 46 -18 97 -18c64 0 113 27 113 109z" />
    <glyph glyph-name="Iacute" unicode="&#xcd;" horiz-adv-x="280" 
d="M241 888l-125 -135c-24 4 -45 14 -57 31l95 141c32 4 72 -14 87 -37zM89 7v706s17 7 50 7c35 0 52 -7 52 -7v-706s-18 -7 -51 -7c-36 0 -51 7 -51 7z" />
    <glyph glyph-name="Ibreve" unicode="&#x12c;" horiz-adv-x="280" 
d="M292 835c0 0 -51 -60 -154 -60s-155 60 -155 60c7 20 24 39 45 46c0 0 41 -32 110 -32s110 32 110 32c21 -7 38 -26 44 -46zM89 7v706s17 7 50 7c35 0 52 -7 52 -7v-706s-18 -7 -51 -7c-36 0 -51 7 -51 7z" />
    <glyph glyph-name="Icircumflex" unicode="&#xce;" horiz-adv-x="280" 
d="M153 915l138 -114c-10 -20 -26 -38 -46 -44l-105 71l-104 -71c-21 7 -37 24 -47 44l138 114h26zM89 7v706s17 7 50 7c35 0 52 -7 52 -7v-706s-18 -7 -51 -7c-36 0 -51 7 -51 7z" />
    <glyph glyph-name="Idieresis" unicode="&#xcf;" horiz-adv-x="280" 
d="M101 843v-81s-16 -6 -45 -6c-31 0 -46 6 -46 6v81s15 6 46 6c29 0 45 -6 45 -6zM271 843v-81s-16 -6 -46 -6c-31 0 -45 6 -45 6v81s14 6 45 6c30 0 46 -6 46 -6zM89 7v706s17 7 50 7c35 0 52 -7 52 -7v-706s-18 -7 -51 -7c-36 0 -51 7 -51 7z" />
    <glyph glyph-name="Idotaccent" unicode="&#x130;" horiz-adv-x="280" 
d="M89 859c0 0 16 6 52 6c34 0 52 -6 52 -6v-95s-18 -6 -52 -6c-36 0 -52 6 -52 6v95zM89 713c0 0 17 7 50 7c35 0 52 -7 52 -7v-706s-18 -7 -51 -7c-36 0 -51 7 -51 7v706z" />
    <glyph glyph-name="Igrave" unicode="&#xcc;" horiz-adv-x="280" 
d="M152 751l-125 135c14 23 55 41 87 37l95 -141c-12 -17 -33 -27 -57 -31zM89 7v706s17 7 50 7c35 0 52 -7 52 -7v-706s-18 -7 -51 -7c-36 0 -51 7 -51 7z" />
    <glyph glyph-name="Imacron" unicode="&#x12a;" horiz-adv-x="280" 
d="M289 757h-295c-6 20 -6 42 0 61h295c6 -19 5 -42 0 -61zM89 7v706s17 7 50 7c35 0 52 -7 52 -7v-706s-18 -7 -51 -7c-36 0 -51 7 -51 7z" />
    <glyph glyph-name="Iogonek" unicode="&#x12e;" horiz-adv-x="280" 
d="M191 7l-8 -2c-55 -17 -97 -40 -97 -87c0 -36 24 -52 54 -52c18 0 32 6 32 6c11 -8 16 -23 15 -39c0 0 -29 -18 -68 -18c-55 0 -99 34 -99 93c0 44 24 79 69 100v705s17 7 50 7c35 0 52 -7 52 -7v-706z" />
    <glyph glyph-name="Itilde" unicode="&#x128;" horiz-adv-x="280" 
d="M199 822c30 0 47 25 47 25c17 -7 31 -25 35 -43c-1 -2 -32 -48 -88 -48s-69 32 -109 32c-30 0 -46 -25 -46 -25c-20 11 -31 24 -35 44c0 0 29 47 87 47c56 0 69 -32 109 -32zM89 7v706s17 7 50 7c35 0 52 -7 52 -7v-706s-18 -7 -51 -7c-36 0 -51 7 -51 7z" />
    <glyph glyph-name="J" unicode="J" horiz-adv-x="443" 
d="M257 188v525s14 7 51 7c34 0 51 -7 51 -7v-522c0 -136 -78 -201 -193 -201c-80 0 -146 30 -146 30c-1 31 8 57 27 77c0 0 46 -18 97 -18c64 0 113 27 113 109z" />
    <glyph glyph-name="Jcircumflex" unicode="&#x134;" horiz-adv-x="443" 
d="M320 915l138 -114c-10 -20 -25 -38 -46 -44l-105 71l-104 -71c-21 7 -36 24 -46 44l137 114h26zM257 188v525s14 7 51 7c34 0 51 -7 51 -7v-522c0 -136 -78 -201 -193 -201c-80 0 -146 30 -146 30c-1 31 8 57 27 77c0 0 46 -18 97 -18c64 0 113 27 113 109z" />
    <glyph glyph-name="K" unicode="K" horiz-adv-x="617" 
d="M264 415l206 298c13 3 31 7 51 7c21 0 40 -4 55 -7l-227 -328l257 -378s-21 -7 -60 -7c-37 0 -59 7 -59 7l-223 326h-73v-326s-15 -7 -51 -7c-32 0 -51 7 -51 7v706s18 7 52 7c33 0 50 -7 50 -7v-298h73z" />
    <glyph glyph-name="Kcommaaccent" unicode="&#x136;" horiz-adv-x="617" 
d="M264 415l206 298c13 3 31 7 51 7c21 0 40 -4 55 -7l-227 -328l257 -378s-21 -7 -60 -7c-37 0 -59 7 -59 7l-223 326h-73v-326s-15 -7 -51 -7c-32 0 -51 7 -51 7v706s18 7 52 7c33 0 50 -7 50 -7v-298h73zM304 -272l-36 25s32 35 37 99c-23 2 -33 7 -33 7v94s18 7 52 7
s52 -7 52 -7v-62c0 -108 -72 -163 -72 -163z" />
    <glyph glyph-name="L" unicode="L" horiz-adv-x="519" 
d="M89 0v713s17 7 50 7c35 0 52 -7 52 -7v-625h299c5 -12 8 -28 8 -44s-3 -31 -8 -44h-401z" />
    <glyph glyph-name="Lacute" unicode="&#x139;" horiz-adv-x="519" 
d="M256 888l-125 -135c-24 4 -45 14 -57 31l95 141c32 4 72 -14 87 -37zM89 0v713s17 7 50 7c35 0 52 -7 52 -7v-625h299c5 -12 8 -28 8 -44s-3 -31 -8 -44h-401z" />
    <glyph glyph-name="Lcaron" unicode="&#x13d;" horiz-adv-x="519" 
d="M299 582c-19 4 -34 14 -41 28c43 41 59 77 61 139c34 3 63 -3 83 -20c-11 -65 -51 -126 -103 -147zM89 0v713s17 7 50 7c35 0 52 -7 52 -7v-625h299c5 -12 8 -28 8 -44s-3 -31 -8 -44h-401z" />
    <glyph glyph-name="Lcommaaccent" unicode="&#x13b;" horiz-adv-x="519" 
d="M89 0v713s17 7 50 7c35 0 52 -7 52 -7v-625h299c5 -12 8 -28 8 -44s-3 -31 -8 -44h-401zM277 -272l-36 25s32 35 36 99c-22 2 -33 7 -33 7v94s18 7 52 7s52 -7 52 -7v-62c0 -108 -71 -163 -71 -163z" />
    <glyph glyph-name="Ldot" unicode="&#x13f;" horiz-adv-x="528" 
d="M89 0v713s17 7 50 7c35 0 52 -7 52 -7v-625h299c5 -12 8 -28 8 -44s-3 -31 -8 -44h-401zM435 375v-81s-16 -7 -46 -7c-32 0 -46 7 -46 7v81s14 7 46 7c30 0 46 -7 46 -7z" />
    <glyph glyph-name="Lslash" unicode="&#x141;" horiz-adv-x="543" 
d="M113 713c0 0 17 7 50 7c35 0 52 -7 52 -7v-271l132 77c15 -15 27 -33 32 -55l-164 -95v-281h299c5 -12 8 -28 8 -44s-3 -31 -8 -44h-401v310l-74 -42c-16 14 -26 33 -32 54l106 61v330z" />
    <glyph glyph-name="M" unicode="M" horiz-adv-x="835" 
d="M616 713c19 4 44 7 65 7c40 0 66 -7 66 -7v-706s-17 -7 -50 -7c-32 0 -51 7 -51 7v320c0 98 -2 207 6 267h-5c-12 -45 -53 -127 -89 -201l-117 -220s-13 -5 -31 -5c-19 0 -28 5 -28 5l-115 216c-37 74 -79 160 -91 205h-4c10 -50 10 -154 10 -252v-335s-16 -7 -48 -7
c-28 0 -45 7 -45 7v706s24 7 61 7c31 0 61 -7 61 -7l132 -250c29 -58 58 -118 69 -155h4c7 21 18 51 37 89c56 105 110 210 163 316z" />
    <glyph glyph-name="N" unicode="N" horiz-adv-x="700" 
d="M491 7l-252 455c-37 65 -59 129 -59 129h-4s7 -67 7 -168v-416s-15 -7 -48 -7c-32 0 -46 7 -46 7v706s21 7 61 7s60 -7 60 -7l249 -451c36 -65 62 -133 62 -133h3s-7 74 -7 167v417s15 7 48 7s46 -7 46 -7v-706s-19 -7 -59 -7s-61 7 -61 7z" />
    <glyph glyph-name="Nacute" unicode="&#x143;" horiz-adv-x="700" 
d="M491 888l-125 -135c-24 4 -45 14 -57 31l95 141c32 4 72 -14 87 -37zM490 7l-251 455c-37 65 -59 129 -59 129h-4s7 -67 7 -168v-416s-15 -7 -48 -7c-32 0 -46 7 -46 7v706s21 7 61 7s60 -7 60 -7l248 -451c37 -65 63 -133 63 -133h3s-7 74 -7 167v417s15 7 48 7
s46 -7 46 -7v-706s-19 -7 -59 -7s-62 7 -62 7z" />
    <glyph glyph-name="Ncaron" unicode="&#x147;" horiz-adv-x="700" 
d="M344 757l-138 113c10 20 25 38 46 45l105 -71l104 70c21 -7 36 -24 46 -44l-137 -113h-26zM490 7l-251 455c-37 65 -59 129 -59 129h-4s7 -67 7 -168v-416s-15 -7 -48 -7c-32 0 -46 7 -46 7v706s21 7 61 7s60 -7 60 -7l248 -451c37 -65 63 -133 63 -133h3s-7 74 -7 167
v417s15 7 48 7s46 -7 46 -7v-706s-19 -7 -59 -7s-62 7 -62 7z" />
    <glyph glyph-name="Ncommaaccent" unicode="&#x145;" horiz-adv-x="700" 
d="M490 7l-251 455c-37 65 -59 129 -59 129h-4s7 -67 7 -168v-416s-15 -7 -48 -7c-32 0 -46 7 -46 7v706s21 7 61 7s60 -7 60 -7l248 -451c37 -65 63 -133 63 -133h3s-7 74 -7 167v417s15 7 48 7s46 -7 46 -7v-706s-19 -7 -59 -7s-62 7 -62 7zM339 -272l-36 25s32 35 37 99
c-23 2 -33 7 -33 7v94s18 7 52 7s52 -7 52 -7v-62c0 -108 -72 -163 -72 -163z" />
    <glyph glyph-name="Ntilde" unicode="&#xd1;" horiz-adv-x="700" 
d="M422 823c30 0 47 26 47 26c19 -7 33 -27 37 -46c-2 -3 -34 -47 -91 -47s-70 33 -111 33c-31 0 -48 -26 -48 -26c-21 11 -33 25 -37 45c0 0 30 49 91 49c57 0 71 -34 112 -34zM490 7l-251 455c-37 65 -59 129 -59 129h-4s7 -67 7 -168v-416s-15 -7 -48 -7
c-32 0 -46 7 -46 7v706s21 7 61 7s60 -7 60 -7l248 -451c37 -65 63 -133 63 -133h3s-7 74 -7 167v417s15 7 48 7s46 -7 46 -7v-706s-19 -7 -59 -7s-62 7 -62 7z" />
    <glyph glyph-name="O" unicode="O" horiz-adv-x="680" 
d="M58 360c0 257 109 370 282 370s282 -111 282 -370s-107 -370 -282 -370s-282 111 -282 370zM515 360c0 221 -68 285 -175 285c-106 0 -175 -64 -175 -285s69 -285 175 -285c107 0 175 64 175 285z" />
    <glyph glyph-name="OE" unicode="&#x152;" horiz-adv-x="873" 
d="M58 360c0 259 110 370 289 370c32 0 62 -4 87 -10h378c5 -13 8 -26 8 -41s-3 -29 -8 -42h-268v-232h218c5 -12 8 -26 8 -40c0 -15 -3 -29 -8 -42h-218v-240h278c5 -14 8 -27 8 -42c0 -14 -3 -28 -8 -41h-389c-25 -6 -53 -10 -86 -10c-179 0 -289 113 -289 370zM443 628
c-29 11 -64 17 -96 17c-109 0 -182 -64 -182 -285s73 -285 182 -285c32 0 68 5 96 18v535z" />
    <glyph glyph-name="Oacute" unicode="&#xd3;" horiz-adv-x="680" 
d="M316 806l93 138c32 3 72 -14 87 -37l-123 -133c-24 4 -45 14 -57 32zM58 360c0 257 109 370 282 370s282 -111 282 -370s-107 -370 -282 -370s-282 111 -282 370zM515 360c0 221 -68 285 -175 285c-106 0 -175 -64 -175 -285s69 -285 175 -285c107 0 175 64 175 285z" />
    <glyph glyph-name="Obreve" unicode="&#x14e;" horiz-adv-x="680" 
d="M342 849c69 0 110 32 110 32c21 -7 38 -26 44 -46c0 0 -51 -60 -154 -60s-155 60 -155 60c7 20 24 39 45 46c0 0 41 -32 110 -32zM58 360c0 257 109 370 282 370s282 -111 282 -370s-107 -370 -282 -370s-282 111 -282 370zM515 360c0 221 -68 285 -175 285
c-106 0 -175 -64 -175 -285s69 -285 175 -285c107 0 175 64 175 285z" />
    <glyph glyph-name="Ocircumflex" unicode="&#xd4;" horiz-adv-x="680" 
d="M354 915l138 -114c-10 -20 -25 -38 -46 -44l-105 71l-104 -71c-21 7 -36 24 -46 44l137 114h26zM58 360c0 257 109 370 282 370s282 -111 282 -370s-107 -370 -282 -370s-282 111 -282 370zM515 360c0 221 -68 285 -175 285c-106 0 -175 -64 -175 -285s69 -285 175 -285
c107 0 175 64 175 285z" />
    <glyph glyph-name="Odieresis" unicode="&#xd6;" horiz-adv-x="680" 
d="M211 853c0 0 14 6 46 6c29 0 45 -6 45 -6v-81s-16 -6 -45 -6c-32 0 -46 6 -46 6v81zM381 853c0 0 14 6 45 6c30 0 46 -6 46 -6v-81s-16 -6 -46 -6c-31 0 -45 6 -45 6v81zM58 360c0 257 109 370 282 370s282 -111 282 -370s-107 -370 -282 -370s-282 111 -282 370z
M515 360c0 221 -68 285 -175 285c-106 0 -175 -64 -175 -285s69 -285 175 -285c107 0 175 64 175 285z" />
    <glyph glyph-name="Ograve" unicode="&#xd2;" horiz-adv-x="680" 
d="M329 923l92 -138c-12 -17 -32 -27 -57 -31l-122 132c14 23 55 41 87 37zM58 360c0 257 109 370 282 370s282 -111 282 -370s-107 -370 -282 -370s-282 111 -282 370zM515 360c0 221 -68 285 -175 285c-106 0 -175 -64 -175 -285s69 -285 175 -285c107 0 175 64 175 285z
" />
    <glyph glyph-name="Ohungarumlaut" unicode="&#x150;" horiz-adv-x="680" 
d="M211 786l85 131c32 4 71 -13 86 -35l-117 -126c-23 4 -43 13 -54 30zM368 786l86 131c32 4 70 -13 85 -35l-116 -126c-24 4 -44 13 -55 30zM58 360c0 257 109 370 282 370s282 -111 282 -370s-107 -370 -282 -370s-282 111 -282 370zM515 360c0 221 -68 285 -175 285
c-106 0 -175 -64 -175 -285s69 -285 175 -285c107 0 175 64 175 285z" />
    <glyph glyph-name="Omacron" unicode="&#x14c;" horiz-adv-x="680" 
d="M202 846h280c6 -19 5 -42 0 -61h-280c-6 21 -5 42 0 61zM58 360c0 257 109 370 282 370s282 -111 282 -370s-107 -370 -282 -370s-282 111 -282 370zM515 360c0 221 -68 285 -175 285c-106 0 -175 -64 -175 -285s69 -285 175 -285c107 0 175 64 175 285z" />
    <glyph glyph-name="Omega" unicode="&#x2126;" horiz-adv-x="727" 
d="M75 380c0 246 113 350 289 350s289 -104 289 -350c0 -145 -73 -244 -113 -292h126c5 -15 8 -29 8 -44s-3 -30 -8 -44h-241c-12 28 -12 61 0 89c50 42 121 131 121 291c0 205 -73 265 -182 265s-182 -60 -182 -265c0 -160 71 -249 121 -291c11 -29 11 -57 0 -89h-241
c-5 13 -9 28 -9 43c0 16 3 31 9 45h126c-41 48 -113 147 -113 292z" />
    <glyph glyph-name="Oslash" unicode="&#xd8;" horiz-adv-x="679" 
d="M487 693l44 74c27 -2 54 -16 70 -33l-56 -93c49 -60 76 -152 76 -281c0 -259 -107 -370 -282 -370c-61 0 -113 14 -156 42l-46 -79c-29 1 -54 12 -71 33l60 100c-45 60 -69 150 -69 274c0 257 109 370 282 370c57 0 106 -12 148 -37zM440 615c-28 22 -62 30 -101 30
c-106 0 -175 -64 -175 -285c0 -73 8 -129 25 -170zM484 540l-252 -428c28 -27 65 -37 107 -37c107 0 175 64 175 285c0 80 -11 139 -30 180z" />
    <glyph glyph-name="Oslashacute" unicode="&#x1fe;" horiz-adv-x="680" 
d="M487 907l-125 -135c-24 4 -45 14 -57 31l95 141c33 3 72 -14 87 -37zM593 760l-59 -104c57 -60 88 -156 88 -296c0 -259 -107 -370 -282 -370c-60 0 -113 13 -155 42l-40 -72s-17 -7 -42 -7c-24 0 -42 7 -42 7l69 122c-47 61 -72 152 -72 278c0 257 109 370 282 370
c51 0 96 -10 134 -30l34 60s13 7 42 7s43 -7 43 -7zM340 645c-106 0 -175 -64 -175 -285c0 -73 9 -129 25 -170l241 432c-26 16 -56 23 -91 23zM231 113c29 -27 66 -38 109 -38c107 0 175 64 175 285c0 91 -12 155 -35 199z" />
    <glyph glyph-name="Otilde" unicode="&#xd5;" horiz-adv-x="680" 
d="M402 839c31 1 46 28 46 28c19 -7 34 -26 38 -44c0 0 -28 -50 -88 -51c-49 -2 -72 30 -113 29c-31 -1 -46 -28 -46 -28c-22 10 -33 24 -38 44c0 0 28 49 88 51c57 2 72 -30 113 -29zM340 -10c-175 0 -282 111 -282 370c0 257 109 370 282 370s282 -111 282 -370
s-107 -370 -282 -370zM340 645c-106 0 -175 -64 -175 -285s69 -285 175 -285c107 0 175 64 175 285s-68 285 -175 285z" />
    <glyph glyph-name="P" unicode="P" horiz-adv-x="606" 
d="M191 281v-274s-17 -7 -50 -7c-37 0 -52 7 -52 7v713h261c132 0 215 -89 215 -220c0 -130 -83 -219 -215 -219h-159zM191 366h146c79 0 122 50 122 134c0 85 -43 135 -122 135h-146v-269z" />
    <glyph glyph-name="Q" unicode="Q" horiz-adv-x="680" 
d="M58 360c0 257 109 370 282 370s282 -111 282 -370c0 -149 -35 -249 -98 -307c37 -32 86 -53 134 -63c-4 -35 -26 -71 -56 -86c-60 20 -112 62 -146 108c-34 -15 -73 -22 -116 -22c-175 0 -282 111 -282 370zM515 360c0 221 -68 285 -175 285c-106 0 -175 -64 -175 -285
s69 -285 175 -285c107 0 175 64 175 285z" />
    <glyph glyph-name="R" unicode="R" horiz-adv-x="626" 
d="M89 720h256c131 0 215 -85 215 -211c0 -99 -53 -174 -141 -200l174 -302s-21 -7 -60 -7c-37 0 -58 7 -58 7l-166 292h-118v-292s-17 -7 -50 -7c-37 0 -52 7 -52 7v713zM191 635v-251h141c78 0 122 46 122 125c0 80 -44 126 -122 126h-141z" />
    <glyph glyph-name="Racute" unicode="&#x154;" horiz-adv-x="626" 
d="M214 784l95 141c32 4 72 -14 87 -37l-125 -135c-24 4 -45 14 -57 31zM89 720h256c131 0 215 -85 215 -211c0 -99 -53 -174 -141 -200l174 -302s-21 -7 -60 -7c-37 0 -58 7 -58 7l-166 292h-118v-292s-17 -7 -50 -7c-37 0 -52 7 -52 7v713zM191 635v-251h141
c78 0 122 46 122 125c0 80 -44 126 -122 126h-141z" />
    <glyph glyph-name="Rcaron" unicode="&#x158;" horiz-adv-x="626" 
d="M292 844l104 70c21 -7 36 -24 46 -44l-137 -113h-26l-138 113c10 20 25 38 46 45zM89 720h256c131 0 215 -85 215 -211c0 -99 -53 -174 -141 -200l174 -302s-21 -7 -60 -7c-37 0 -58 7 -58 7l-166 292h-118v-292s-17 -7 -50 -7c-37 0 -52 7 -52 7v713zM191 635v-251h141
c78 0 122 46 122 125c0 80 -44 126 -122 126h-141z" />
    <glyph glyph-name="Rcommaaccent" unicode="&#x156;" horiz-adv-x="626" 
d="M89 720h256c131 0 215 -85 215 -211c0 -99 -53 -174 -141 -200l174 -302s-21 -7 -60 -7c-37 0 -58 7 -58 7l-166 292h-118v-292s-17 -7 -50 -7c-37 0 -52 7 -52 7v713zM191 635v-251h141c78 0 122 46 122 125c0 80 -44 126 -122 126h-141zM272 -47c0 0 18 7 52 7
s52 -7 52 -7v-62c0 -108 -72 -163 -72 -163l-36 25s32 35 37 99c-23 2 -33 7 -33 7v94z" />
    <glyph glyph-name="S" unicode="S" horiz-adv-x="568" 
d="M55 525c0 123 81 205 244 205c120 0 196 -28 196 -28c0 -29 -9 -60 -28 -80c0 0 -68 22 -154 22c-106 0 -157 -41 -157 -114c0 -77 86 -95 179 -125c93 -32 187 -75 187 -206c0 -134 -87 -209 -251 -209c-132 0 -216 42 -216 42c-1 27 9 58 24 81c0 0 94 -31 187 -31
c103 0 152 39 152 114c0 71 -57 96 -126 118c-104 35 -237 60 -237 211z" />
    <glyph glyph-name="Sacute" unicode="&#x15a;" horiz-adv-x="569" 
d="M415 890l-129 -125c-24 5 -44 17 -54 35l98 133c33 1 72 -19 85 -43zM313 644c-106 0 -157 -41 -157 -114c0 -79 91 -96 188 -129c90 -30 178 -75 178 -202c0 -134 -87 -209 -251 -209c-132 0 -216 42 -216 42c-2 31 8 62 24 81c0 0 94 -31 187 -31c103 0 152 39 152 114
c0 76 -67 101 -144 125c-102 32 -219 63 -219 204c0 123 81 205 244 205c120 0 196 -28 196 -28c0 -29 -8 -60 -28 -80c0 0 -68 22 -154 22z" />
    <glyph glyph-name="Scaron" unicode="&#x160;" horiz-adv-x="568" 
d="M290 769l-138 108c9 20 25 37 46 44l105 -71l104 70c21 -6 36 -23 46 -43l-137 -108h-26zM313 644c-106 0 -157 -41 -157 -114c0 -77 86 -95 179 -126s187 -74 187 -205c0 -134 -87 -209 -251 -209c-132 0 -216 42 -216 42c0 28 10 59 24 81c0 0 94 -31 187 -31
c103 0 152 39 152 114c0 79 -73 103 -154 128c-100 31 -209 64 -209 201c0 123 81 205 244 205c120 0 196 -28 196 -28c0 -29 -10 -59 -28 -80c0 0 -68 22 -154 22z" />
    <glyph glyph-name="Scedilla" unicode="&#x15e;" horiz-adv-x="568" 
d="M345 400c90 -30 177 -75 177 -201c0 -125 -76 -198 -218 -208l-9 -49c76 0 104 -40 104 -95c0 -66 -46 -100 -121 -100c-59 0 -91 24 -91 24c-1 18 7 34 21 42c10 -5 36 -14 65 -14c36 0 63 14 63 51c0 27 -17 46 -56 46h-36l-13 14l15 81c-118 4 -191 41 -191 41
c-2 31 8 62 24 81c0 0 94 -31 187 -31c103 0 152 39 152 114c0 79 -72 103 -152 127c-100 31 -211 64 -211 202c0 123 81 205 244 205c120 0 196 -28 196 -28c0 -29 -8 -60 -28 -80c0 0 -68 22 -154 22c-106 0 -157 -41 -157 -114c0 -79 93 -96 189 -130z" />
    <glyph glyph-name="Scircumflex" unicode="&#x15c;" horiz-adv-x="568" 
d="M310 922l138 -113c-10 -20 -25 -38 -46 -44l-105 70l-104 -70c-21 7 -36 24 -46 44l137 113h26zM313 644c-106 0 -157 -41 -157 -114c0 -80 94 -97 192 -130c88 -31 174 -76 174 -201c0 -134 -87 -209 -251 -209c-132 0 -216 42 -216 42c-2 31 8 62 24 81
c0 0 94 -31 187 -31c103 0 152 39 152 114c0 82 -79 105 -164 131c-97 30 -199 66 -199 198c0 123 81 205 244 205c120 0 196 -28 196 -28c0 -29 -9 -60 -28 -80c0 0 -68 22 -154 22z" />
    <glyph glyph-name="Scommaaccent" unicode="&#x218;" horiz-adv-x="569" 
d="M313 644c-106 0 -157 -41 -157 -114c0 -77 85 -94 178 -125c94 -31 188 -74 188 -206c0 -134 -87 -209 -251 -209c-132 0 -216 42 -216 42c-2 31 8 62 24 81c0 0 94 -31 187 -31c103 0 152 39 152 114c0 81 -77 104 -161 130c-98 30 -202 66 -202 199
c0 123 81 205 244 205c120 0 196 -28 196 -28c0 -29 -8 -60 -28 -80c0 0 -68 22 -154 22zM263 -278l-36 25s32 35 36 100c-22 1 -33 6 -33 6v95s18 6 52 6s52 -6 52 -6v-63c0 -108 -71 -163 -71 -163z" />
    <glyph glyph-name="T" unicode="T" horiz-adv-x="547" 
d="M34 720h479s8 -18 8 -43c0 -26 -8 -45 -8 -45h-186v-625s-18 -7 -51 -7c-36 0 -51 7 -51 7v625h-191s-8 17 -8 44c0 25 8 44 8 44z" />
    <glyph glyph-name="Tbar" unicode="&#x166;" horiz-adv-x="565" 
d="M336 375h132c6 -20 5 -43 0 -63h-132v-305s-18 -7 -51 -7c-36 0 -51 7 -51 7v305h-136c-6 22 -6 44 0 63h136v257h-191s-8 17 -8 44c0 25 8 44 8 44h479s8 -18 8 -43c0 -26 -8 -45 -8 -45h-186v-257z" />
    <glyph glyph-name="Tcaron" unicode="&#x164;" horiz-adv-x="547" 
d="M264 757l-138 113c10 20 25 38 46 45l105 -71l104 70c21 -7 36 -24 46 -44l-137 -113h-26zM34 720h479s8 -18 8 -43c0 -26 -8 -45 -8 -45h-186v-625s-18 -7 -51 -7c-36 0 -51 7 -51 7v625h-191s-8 17 -8 44c0 25 8 44 8 44z" />
    <glyph glyph-name="Thorn" unicode="&#xde;" horiz-adv-x="608" 
d="M89 713c0 0 17 7 50 7c35 0 52 -7 52 -7v-128h159c132 0 215 -86 215 -214s-83 -213 -215 -213h-159v-151s-18 -7 -51 -7c-36 0 -51 7 -51 7v706zM191 500v-257h146c79 0 122 47 122 128s-43 129 -122 129h-146z" />
    <glyph glyph-name="U" unicode="U" horiz-adv-x="672" 
d="M588 713v-469c0 -163 -100 -254 -253 -254c-152 0 -251 93 -251 254v469s17 7 50 7c34 0 51 -7 51 -7v-485c0 -96 56 -152 152 -152c97 0 151 56 151 152v485s16 7 49 7s51 -7 51 -7z" />
    <glyph glyph-name="Uacute" unicode="&#xda;" horiz-adv-x="672" 
d="M449 888l-125 -135c-24 4 -45 14 -57 31l95 141c32 4 72 -14 87 -37zM588 713v-469c0 -163 -100 -254 -253 -254c-152 0 -251 93 -251 254v469s17 7 50 7c34 0 51 -7 51 -7v-485c0 -96 56 -152 152 -152c97 0 151 56 151 152v485s16 7 49 7s51 -7 51 -7z" />
    <glyph glyph-name="Ubreve" unicode="&#x16c;" horiz-adv-x="672" 
d="M493 835c0 0 -51 -60 -154 -60s-155 60 -155 60c7 20 24 39 45 46c0 0 41 -32 110 -32s110 32 110 32c22 -7 38 -26 44 -46zM588 713v-469c0 -163 -100 -254 -253 -254c-152 0 -251 93 -251 254v469s17 7 50 7c34 0 51 -7 51 -7v-485c0 -96 56 -152 152 -152
c97 0 151 56 151 152v485s16 7 49 7s51 -7 51 -7z" />
    <glyph glyph-name="Ucircumflex" unicode="&#xdb;" horiz-adv-x="672" 
d="M357 915l138 -114c-10 -20 -26 -38 -46 -44l-105 71l-104 -71c-21 7 -37 24 -47 44l138 114h26zM588 713v-469c0 -163 -100 -254 -253 -254c-152 0 -251 93 -251 254v469s17 7 50 7c34 0 51 -7 51 -7v-485c0 -96 56 -152 152 -152c97 0 151 56 151 152v485s16 7 49 7
s51 -7 51 -7z" />
    <glyph glyph-name="Udieresis" unicode="&#xdc;" horiz-adv-x="672" 
d="M298 849v-82s-16 -6 -45 -6c-31 0 -46 6 -46 6v82s15 6 46 6c29 0 45 -6 45 -6zM468 849v-82s-16 -6 -46 -6c-31 0 -45 6 -45 6v82s14 6 45 6c30 0 46 -6 46 -6zM588 713v-469c0 -163 -100 -254 -253 -254c-152 0 -251 93 -251 254v469s17 7 50 7c34 0 51 -7 51 -7v-485
c0 -96 56 -152 152 -152c97 0 151 56 151 152v485s16 7 49 7s51 -7 51 -7z" />
    <glyph glyph-name="Ugrave" unicode="&#xd9;" horiz-adv-x="672" 
d="M337 754l-122 132c14 23 55 41 87 37l92 -137c-12 -18 -33 -28 -57 -32zM588 713v-469c0 -163 -100 -254 -253 -254c-152 0 -251 93 -251 254v469s17 7 50 7c34 0 51 -7 51 -7v-485c0 -96 56 -152 152 -152c97 0 151 56 151 152v485s16 7 49 7s51 -7 51 -7z" />
    <glyph glyph-name="Uhungarumlaut" unicode="&#x170;" horiz-adv-x="672" 
d="M386 884l-119 -129c-24 3 -44 13 -55 31l88 134c32 4 71 -14 86 -36zM545 884l-119 -129c-23 3 -44 13 -55 31l88 134c33 4 71 -14 86 -36zM588 713v-469c0 -163 -100 -254 -253 -254c-152 0 -251 93 -251 254v469s17 7 50 7c34 0 51 -7 51 -7v-485
c0 -96 56 -152 152 -152c97 0 151 56 151 152v485s16 7 49 7s51 -7 51 -7z" />
    <glyph glyph-name="Umacron" unicode="&#x16a;" horiz-adv-x="672" 
d="M485 789h-295c-6 20 -6 43 0 61h295c6 -18 5 -42 0 -61zM588 713v-469c0 -163 -100 -254 -253 -254c-152 0 -251 93 -251 254v469s17 7 50 7c34 0 51 -7 51 -7v-485c0 -96 56 -152 152 -152c97 0 151 56 151 152v485s16 7 49 7s51 -7 51 -7z" />
    <glyph glyph-name="Uogonek" unicode="&#x172;" horiz-adv-x="672" 
d="M488 713c0 0 16 7 49 7s51 -7 51 -7v-469c0 -132 -66 -216 -171 -244c-58 -18 -101 -41 -101 -89c0 -35 24 -51 54 -51c18 0 31 6 31 6c11 -9 17 -23 16 -39c0 0 -30 -18 -68 -18c-56 0 -99 34 -99 93c0 37 18 69 52 89c-133 14 -218 105 -218 253v469s17 7 50 7
c34 0 51 -7 51 -7v-485c0 -96 56 -152 152 -152c97 0 151 56 151 152v485z" />
    <glyph glyph-name="Uring" unicode="&#x16e;" horiz-adv-x="672" 
d="M339 763c-67 0 -119 40 -119 112s59 110 120 110c60 0 121 -37 121 -110c0 -72 -56 -112 -122 -112zM403 875c0 30 -21 59 -64 59c-42 0 -62 -30 -62 -59c0 -30 20 -60 62 -60c43 0 64 31 64 60zM588 713v-469c0 -163 -100 -254 -253 -254c-152 0 -251 93 -251 254v469
s17 7 50 7c34 0 51 -7 51 -7v-485c0 -96 56 -152 152 -152c97 0 151 56 151 152v485s16 7 49 7s51 -7 51 -7z" />
    <glyph glyph-name="Utilde" unicode="&#x168;" horiz-adv-x="672" 
d="M403 823c31 0 47 26 47 26c19 -8 33 -26 37 -44c0 0 -30 -46 -90 -46c-57 0 -71 32 -112 32c-31 0 -47 -27 -47 -27c-21 11 -33 25 -37 44c0 0 30 47 90 47c58 0 71 -32 112 -32zM588 713v-469c0 -163 -100 -254 -253 -254c-152 0 -251 93 -251 254v469s17 7 50 7
c34 0 51 -7 51 -7v-485c0 -96 56 -152 152 -152c97 0 151 56 151 152v485s16 7 49 7s51 -7 51 -7z" />
    <glyph glyph-name="V" unicode="V" horiz-adv-x="640" 
d="M124 712l165 -480c22 -66 32 -119 32 -119h3s9 52 32 119l166 480s14 8 47 8c32 0 52 -8 52 -8l-242 -705s-24 -7 -59 -7s-59 7 -59 7l-241 704s19 9 56 9c34 0 48 -8 48 -8z" />
    <glyph glyph-name="W" unicode="W" horiz-adv-x="966" 
d="M626 7l-115 458c-21 93 -23 147 -23 147h-4s-3 -54 -24 -147l-115 -458c-14 -3 -41 -7 -65 -7c-23 0 -45 4 -58 7l-196 706s17 7 51 7c35 0 51 -7 51 -7l131 -470c18 -65 28 -132 28 -132h4s8 66 24 132l120 470s16 7 53 7c38 0 54 -7 54 -7l119 -470
c17 -69 23 -132 23 -132h3s9 60 28 132l131 470s18 7 46 7c30 0 48 -7 48 -7l-195 -706s-23 -7 -58 -7c-34 0 -61 7 -61 7z" />
    <glyph glyph-name="Wacute" unicode="&#x1e82;" horiz-adv-x="966" 
d="M585 888l-123 -132c-24 3 -45 13 -57 31l93 138c32 4 72 -14 87 -37zM626 7l-115 458c-21 93 -23 147 -23 147h-4s-3 -54 -24 -147l-115 -458c-14 -3 -41 -7 -65 -7c-23 0 -45 4 -58 7l-196 706s17 7 51 7c35 0 51 -7 51 -7l131 -470c18 -65 28 -132 28 -132h4
s8 66 24 132l120 470s16 7 53 7c38 0 54 -7 54 -7l119 -470c17 -69 23 -132 23 -132h3s9 60 28 132l131 470s18 7 46 7c30 0 48 -7 48 -7l-195 -706s-23 -7 -58 -7c-34 0 -61 7 -61 7z" />
    <glyph glyph-name="Wcircumflex" unicode="&#x174;" horiz-adv-x="966" 
d="M502 915l138 -114c-10 -20 -25 -38 -46 -44l-105 71l-104 -71c-21 7 -36 24 -46 44l137 114h26zM626 7l-115 458c-21 93 -23 147 -23 147h-4s-3 -54 -24 -147l-115 -458c-14 -3 -41 -7 -65 -7c-23 0 -45 4 -58 7l-196 706s17 7 51 7c35 0 51 -7 51 -7l131 -470
c18 -65 28 -132 28 -132h4s8 66 24 132l120 470s16 7 53 7c38 0 54 -7 54 -7l119 -470c17 -69 23 -132 23 -132h3s9 60 28 132l131 470s18 7 46 7c30 0 48 -7 48 -7l-195 -706s-23 -7 -58 -7c-34 0 -61 7 -61 7z" />
    <glyph glyph-name="Wdieresis" unicode="&#x1e84;" horiz-adv-x="966" 
d="M448 863v-81s-16 -6 -45 -6c-31 0 -46 6 -46 6v81s15 6 46 6c29 0 45 -6 45 -6zM618 863v-81s-16 -6 -46 -6c-31 0 -45 6 -45 6v81s14 6 45 6c30 0 46 -6 46 -6zM626 7l-115 458c-21 93 -23 147 -23 147h-4s-3 -54 -24 -147l-115 -458c-14 -3 -41 -7 -65 -7
c-23 0 -45 4 -58 7l-196 706s17 7 51 7c35 0 51 -7 51 -7l131 -470c18 -65 28 -132 28 -132h4s8 66 24 132l120 470s16 7 53 7c38 0 54 -7 54 -7l119 -470c17 -69 23 -132 23 -132h3s9 60 28 132l131 470s18 7 46 7c30 0 48 -7 48 -7l-195 -706s-23 -7 -58 -7
c-34 0 -61 7 -61 7z" />
    <glyph glyph-name="Wgrave" unicode="&#x1e80;" horiz-adv-x="966" 
d="M483 754l-122 132c14 23 55 41 87 37l92 -138c-12 -17 -32 -27 -57 -31zM626 7l-115 458c-21 93 -23 147 -23 147h-4s-3 -54 -24 -147l-115 -458c-14 -3 -41 -7 -65 -7c-23 0 -45 4 -58 7l-196 706s17 7 51 7c35 0 51 -7 51 -7l131 -470c18 -65 28 -132 28 -132h4
s8 66 24 132l120 470s16 7 53 7c38 0 54 -7 54 -7l119 -470c17 -69 23 -132 23 -132h3s9 60 28 132l131 470s18 7 46 7c30 0 48 -7 48 -7l-195 -706s-23 -7 -58 -7c-34 0 -61 7 -61 7z" />
    <glyph glyph-name="X" unicode="X" horiz-adv-x="626" 
d="M483 713c15 4 32 7 54 7c23 0 41 -3 54 -7l-214 -333l232 -371s-21 -9 -59 -9c-36 0 -57 8 -57 8l-183 292l-185 -293c-13 -4 -31 -7 -51 -7c-23 0 -45 2 -60 7l233 367l-209 339s20 7 59 7c34 0 57 -7 57 -7l163 -261z" />
    <glyph glyph-name="Y" unicode="Y" horiz-adv-x="634" 
d="M510 713c0 0 18 7 53 7c34 0 57 -7 57 -7l-253 -412v-294s-17 -7 -50 -7c-36 0 -52 7 -52 7v292l-246 414s22 7 62 7c37 0 58 -7 58 -7l183 -309z" />
    <glyph glyph-name="Yacute" unicode="&#xdd;" horiz-adv-x="634" 
d="M255 784l95 141c32 4 72 -14 87 -37l-125 -135c-24 4 -45 14 -57 31zM510 713c0 0 18 7 53 7c34 0 57 -7 57 -7l-253 -412v-294s-17 -7 -50 -7c-36 0 -52 7 -52 7v292l-246 414s22 7 62 7c37 0 58 -7 58 -7l183 -309z" />
    <glyph glyph-name="Ycircumflex" unicode="&#x176;" horiz-adv-x="634" 
d="M339 915l138 -114c-10 -20 -25 -38 -46 -44l-105 71l-104 -71c-21 7 -37 24 -46 44l137 114h26zM510 713c0 0 18 7 53 7c34 0 57 -7 57 -7l-253 -412v-294s-17 -7 -50 -7c-36 0 -52 7 -52 7v292l-246 414s22 7 62 7c37 0 58 -7 58 -7l183 -309z" />
    <glyph glyph-name="Ydieresis" unicode="&#x178;" horiz-adv-x="634" 
d="M192 850c0 0 15 6 46 6c29 0 45 -6 45 -6v-82s-16 -6 -45 -6c-31 0 -46 6 -46 6v82zM362 850c0 0 14 6 46 6c29 0 45 -6 45 -6v-82s-16 -6 -45 -6c-32 0 -46 6 -46 6v82zM510 713c0 0 18 7 53 7c34 0 57 -7 57 -7l-253 -412v-294s-17 -7 -50 -7c-36 0 -52 7 -52 7v292
l-246 414s22 7 62 7c37 0 58 -7 58 -7l183 -309z" />
    <glyph glyph-name="Ygrave" unicode="&#x1ef2;" horiz-adv-x="634" 
d="M280 923l95 -141c-12 -17 -33 -27 -57 -31l-125 135c14 23 55 41 87 37zM510 713c0 0 18 7 53 7c34 0 57 -7 57 -7l-253 -412v-294s-17 -7 -50 -7c-36 0 -52 7 -52 7v292l-246 414s22 7 62 7c37 0 58 -7 58 -7l183 -309z" />
    <glyph glyph-name="Z" unicode="Z" horiz-adv-x="594" 
d="M71 720h461c4 -9 7 -25 7 -43c0 -17 -3 -34 -7 -46l-376 -541h389c3 -11 6 -26 6 -43c0 -18 -3 -33 -6 -47h-501c-5 14 -8 29 -8 46s3 32 8 44l371 541h-344c-3 13 -6 30 -6 47s3 31 6 42z" />
    <glyph glyph-name="Zacute" unicode="&#x179;" horiz-adv-x="594" 
d="M235 788l93 137c32 4 72 -14 87 -37l-123 -132c-24 4 -45 14 -57 32zM71 720h461c4 -9 7 -25 7 -43c0 -17 -3 -34 -7 -46l-376 -541h389c3 -11 6 -26 6 -43c0 -18 -3 -33 -6 -47h-501c-5 14 -8 29 -8 46s3 32 8 44l371 541h-344c-3 13 -6 30 -6 47s3 31 6 42z" />
    <glyph glyph-name="Zcaron" unicode="&#x17d;" horiz-adv-x="594" 
d="M301 844l104 70c21 -7 36 -24 46 -44l-137 -113h-26l-138 113c10 20 25 38 46 45zM71 720h461c4 -9 7 -25 7 -43c0 -17 -3 -34 -7 -46l-376 -541h389c3 -11 6 -26 6 -43c0 -18 -3 -33 -6 -47h-501c-5 14 -8 29 -8 46s3 32 8 44l371 541h-344c-3 13 -6 30 -6 47s3 31 6 42
z" />
    <glyph glyph-name="Zdotaccent" unicode="&#x17b;" horiz-adv-x="594" 
d="M250 866c0 0 15 6 48 6c31 0 48 -6 48 -6v-86s-17 -6 -48 -6c-33 0 -48 6 -48 6v86zM71 720h461c4 -9 7 -25 7 -43c0 -17 -3 -34 -7 -46l-376 -541h389c3 -11 6 -26 6 -43c0 -18 -3 -33 -6 -47h-501c-5 14 -8 29 -8 46s3 32 8 44l371 541h-344c-3 13 -6 30 -6 47
s3 31 6 42z" />
    <glyph glyph-name="_0020" horiz-adv-x="0" 
 />
    <glyph glyph-name="a" unicode="a" horiz-adv-x="515" 
d="M80 499c0 0 75 37 175 37c145 0 191 -65 191 -194v-335s-11 -7 -39 -7c-25 0 -40 7 -40 7l-15 64c-26 -53 -81 -81 -157 -81c-94 0 -155 55 -155 167c0 109 67 157 192 157c45 0 88 -3 114 -6v37c0 68 -26 107 -103 107c-70 0 -134 -25 -134 -25c-1 1 -13 9 -23 30
c-9 21 -6 41 -6 42zM346 240c-23 2 -63 6 -101 6c-67 0 -102 -26 -102 -89c0 -65 33 -90 87 -90c79 0 116 67 116 138v35z" />
    <glyph glyph-name="aacute" unicode="&#xe1;" horiz-adv-x="515" 
d="M182 635l94 141c33 4 73 -14 88 -37l-125 -135c-25 4 -45 14 -57 31zM80 499c0 0 75 37 175 37c145 0 191 -65 191 -194v-335s-11 -7 -39 -7c-25 0 -40 7 -40 7l-15 64c-26 -53 -81 -81 -157 -81c-94 0 -155 56 -155 167c0 107 67 157 192 157c45 0 88 -3 114 -6v41
c0 67 -26 103 -103 103c-70 0 -134 -25 -134 -25c-1 1 -13 9 -23 30c-9 21 -6 41 -6 42zM346 240c-23 2 -63 6 -101 6c-67 0 -102 -27 -102 -89c0 -64 33 -90 87 -90c79 0 116 67 116 138v35z" />
    <glyph glyph-name="abreve" unicode="&#x103;" horiz-adv-x="515" 
d="M257 689c67 0 107 32 107 32c21 -6 37 -26 43 -47c0 0 -50 -63 -150 -63s-150 63 -150 63c6 21 23 40 43 47c0 0 40 -32 107 -32zM80 499c0 0 75 37 175 37c145 0 191 -65 191 -194v-335s-11 -7 -39 -7c-25 0 -40 7 -40 7l-15 64c-26 -53 -81 -81 -157 -81
c-94 0 -155 56 -155 167c0 107 67 157 192 157c45 0 88 -3 114 -6v45c0 63 -29 99 -103 99c-70 0 -134 -25 -134 -25c-1 1 -13 9 -23 30c-9 21 -6 41 -6 42zM346 240c-23 2 -63 6 -101 6c-67 0 -102 -27 -102 -89c0 -64 33 -90 87 -90c79 0 116 67 116 138v35z" />
    <glyph glyph-name="acircumflex" unicode="&#xe2;" horiz-adv-x="515" 
d="M273 756l135 -110c-10 -20 -25 -37 -45 -44l-103 69l-102 -68c-20 7 -35 23 -45 43l135 110h25zM80 499c0 0 75 37 175 37c145 0 191 -65 191 -194v-335s-11 -7 -39 -7c-25 0 -40 7 -40 7l-15 64c-26 -53 -81 -81 -157 -81c-94 0 -155 56 -155 167c0 107 67 157 192 157
c45 0 88 -3 114 -6v44c0 66 -28 100 -103 100c-70 0 -134 -25 -134 -25c-1 1 -13 9 -23 30c-9 21 -6 41 -6 42zM346 240c-23 2 -63 6 -101 6c-67 0 -102 -27 -102 -89c0 -64 33 -90 87 -90c79 0 116 67 116 138v35z" />
    <glyph glyph-name="acute" unicode="&#xb4;" horiz-adv-x="224" 
d="M203 772l-125 -135c-24 4 -45 14 -57 31l95 141c32 4 72 -14 87 -37z" />
    <glyph glyph-name="adieresis" unicode="&#xe4;" horiz-adv-x="515" 
d="M130 705c0 0 14 6 45 6c30 0 46 -6 46 -6v-81s-16 -6 -46 -6c-31 0 -45 6 -45 6v81zM299 705c0 0 15 6 46 6c30 0 45 -6 45 -6v-81s-15 -6 -45 -6c-31 0 -46 6 -46 6v81zM80 499c0 0 75 37 175 37c145 0 191 -65 191 -194v-335s-11 -7 -39 -7c-25 0 -40 7 -40 7l-15 64
c-26 -53 -81 -81 -157 -81c-94 0 -155 56 -155 167c0 107 67 157 192 157c45 0 88 -3 114 -6v43c0 64 -27 101 -103 101c-70 0 -134 -25 -134 -25c-1 1 -13 9 -23 30c-9 21 -6 41 -6 42zM346 240c-23 2 -63 6 -101 6c-67 0 -102 -27 -102 -89c0 -64 33 -90 87 -90
c79 0 116 67 116 138v35z" />
    <glyph glyph-name="ae" unicode="&#xe6;" horiz-adv-x="769" 
d="M392 458c34 51 84 78 144 78c119 0 189 -68 189 -201c0 -56 -11 -96 -11 -96h-288c9 -119 53 -168 129 -168c68 0 113 27 113 27c17 -14 27 -40 30 -66c0 0 -50 -42 -157 -42c-101 0 -152 60 -169 105c-15 -43 -65 -105 -173 -105c-104 0 -160 58 -160 167
c0 107 63 152 187 152h105v45c0 68 -26 98 -97 98c-66 0 -126 -25 -126 -25c-18 17 -28 44 -29 72c0 0 71 37 168 37c79 0 121 -29 145 -78zM626 348c0 59 -20 109 -90 109c-57 0 -101 -37 -109 -148h196s3 15 3 39zM331 239h-92c-70 0 -98 -24 -98 -84c0 -59 28 -88 77 -88
c74 0 113 57 113 132v40z" />
    <glyph glyph-name="aeacute" unicode="&#x1fd;" horiz-adv-x="769" 
d="M490 739l-125 -135c-24 4 -45 14 -57 31l95 141c33 4 73 -14 87 -37zM392 458c34 51 84 78 144 78c119 0 189 -68 189 -201c0 -56 -11 -96 -11 -96h-288c9 -119 53 -168 129 -168c68 0 113 27 113 27c17 -14 27 -40 30 -66c0 0 -50 -42 -157 -42c-101 0 -152 60 -169 105
c-15 -43 -65 -105 -173 -105c-104 0 -160 58 -160 167c0 107 63 152 187 152h105v45c0 68 -26 98 -97 98c-66 0 -126 -25 -126 -25c-18 17 -28 44 -29 72c0 0 71 37 168 37c79 0 121 -29 145 -78zM626 348c0 59 -20 109 -90 109c-57 0 -101 -37 -109 -148h196s3 15 3 39z
M331 239h-92c-70 0 -98 -24 -98 -84c0 -59 28 -88 77 -88c74 0 113 57 113 132v40z" />
    <glyph glyph-name="agrave" unicode="&#xe0;" horiz-adv-x="515" 
d="M208 776l95 -141c-12 -17 -33 -27 -57 -31l-125 135c14 23 55 41 87 37zM80 499c0 0 75 37 175 37c145 0 191 -65 191 -194v-335s-11 -7 -39 -7c-25 0 -40 7 -40 7l-15 64c-26 -53 -81 -81 -157 -81c-94 0 -155 56 -155 167c0 107 67 157 192 157c45 0 88 -3 114 -6v42
c0 65 -27 102 -103 102c-70 0 -134 -25 -134 -25c-1 1 -13 9 -23 30c-9 21 -6 41 -6 42zM346 240c-23 2 -63 6 -101 6c-67 0 -102 -27 -102 -89c0 -64 33 -90 87 -90c79 0 116 67 116 138v35z" />
    <glyph glyph-name="amacron" unicode="&#x101;" horiz-adv-x="515" 
d="M119 694h283c7 -17 6 -40 0 -58h-283c-5 20 -5 42 0 58zM80 499c0 0 75 37 175 37c145 0 191 -65 191 -194v-335s-11 -7 -39 -7c-25 0 -40 7 -40 7l-15 64c-26 -53 -81 -81 -157 -81c-94 0 -155 56 -155 167c0 107 67 157 192 157c45 0 88 -3 114 -6v41
c0 69 -27 103 -103 103c-70 0 -134 -25 -134 -25c-1 1 -13 9 -23 30c-9 21 -6 41 -6 42zM346 240c-23 2 -63 6 -101 6c-67 0 -102 -27 -102 -89c0 -64 33 -90 87 -90c79 0 116 67 116 138v35z" />
    <glyph glyph-name="ampersand" unicode="&#x26;" horiz-adv-x="642" 
d="M319 690c94 0 151 -49 151 -124c0 -101 -79 -159 -170 -214c35 -58 85 -116 147 -167c24 33 39 71 51 106c31 4 61 -9 77 -30c-13 -34 -35 -76 -70 -120c36 -23 74 -44 115 -62c2 -31 -18 -65 -44 -80c-48 19 -93 45 -135 73c-27 -27 -96 -82 -204 -82
c-98 0 -194 51 -194 172c0 112 98 179 148 206c-25 55 -37 109 -37 157c0 98 52 165 165 165zM314 623c-44 0 -73 -30 -73 -92c0 -38 10 -78 28 -119c64 38 110 78 110 147c0 39 -22 64 -65 64zM253 71c63 0 109 29 131 45c-68 58 -123 124 -162 192
c-33 -22 -84 -67 -84 -133c0 -62 44 -104 115 -104z" />
    <glyph glyph-name="aogonek" unicode="&#x105;" horiz-adv-x="515" 
d="M80 499c0 0 75 37 175 37c145 0 191 -65 191 -194v-336c-63 -18 -99 -57 -99 -97c0 -25 14 -44 52 -44c19 0 35 7 35 7c11 -9 16 -29 16 -45c0 0 -30 -18 -68 -18c-66 0 -106 34 -106 86c0 42 31 88 91 115l-15 61c-26 -53 -81 -81 -157 -81c-94 0 -155 56 -155 167
c0 107 67 157 192 157c45 0 88 -3 114 -6v39c0 72 -25 105 -103 105c-70 0 -134 -25 -134 -25c-1 1 -13 9 -23 30c-9 21 -6 41 -6 42zM346 240c-23 2 -63 6 -101 6c-67 0 -102 -27 -102 -89c0 -64 33 -90 87 -90c79 0 116 69 116 139v34z" />
    <glyph glyph-name="aring" unicode="&#xe5;" horiz-adv-x="515" 
d="M141 693c0 69 58 105 118 105c59 0 119 -35 119 -105c0 -69 -55 -107 -120 -107c-66 0 -117 39 -117 107zM317 693c0 28 -19 53 -59 53c-38 0 -57 -26 -57 -53s19 -53 57 -53c40 0 59 27 59 53zM80 499c0 0 75 37 175 37c145 0 191 -65 191 -194v-335s-11 -7 -39 -7
c-25 0 -40 7 -40 7l-15 64c-26 -53 -81 -81 -157 -81c-94 0 -155 56 -155 167c0 107 67 157 192 157c45 0 88 -3 114 -6v40c0 68 -26 104 -103 104c-70 0 -134 -25 -134 -25c-1 1 -13 9 -23 30c-9 21 -6 41 -6 42zM346 240c-23 2 -63 6 -101 6c-67 0 -102 -27 -102 -89
c0 -64 33 -90 87 -90c79 0 116 67 116 138v35z" />
    <glyph glyph-name="aringacute" unicode="&#x1fb;" horiz-adv-x="515" 
d="M194 827l88 104c31 3 68 -10 81 -28l-117 -99c-22 3 -41 10 -52 23zM142 676c0 71 58 107 118 107c59 0 119 -35 119 -107c0 -70 -55 -109 -120 -109c-66 0 -117 39 -117 109zM318 676c0 27 -19 54 -59 54c-38 0 -57 -27 -57 -54s19 -54 57 -54c40 0 59 27 59 54zM80 499
c0 0 75 37 175 37c145 0 191 -65 191 -194v-335s-11 -7 -39 -7c-25 0 -40 7 -40 7l-15 64c-26 -53 -81 -81 -157 -81c-94 0 -155 56 -155 167c0 107 67 157 192 157c45 0 88 -3 114 -6v41c0 72 -27 103 -103 103c-70 0 -134 -25 -134 -25c-1 1 -13 9 -23 30
c-9 20 -6 41 -6 42zM346 240c-23 2 -63 6 -101 6c-67 0 -102 -27 -102 -89c0 -64 33 -90 87 -90c79 0 116 67 116 138v35z" />
    <glyph glyph-name="at" unicode="@" horiz-adv-x="913" 
d="M854 303c0 -140 -67 -218 -178 -218c-65 0 -106 21 -124 61c-22 -38 -62 -61 -128 -61c-91 0 -157 49 -157 193c0 146 66 194 157 194c56 0 92 -16 116 -43v39s13 8 42 8c30 0 42 -8 42 -8v-248c0 -46 17 -68 55 -68c55 0 95 48 95 151c0 187 -112 312 -307 312
c-197 0 -324 -127 -324 -336c0 -232 154 -327 321 -327c94 0 187 30 264 76c19 -10 29 -27 30 -50c-94 -65 -201 -94 -307 -94c-204 0 -397 126 -397 395c0 251 177 401 413 401c244 0 387 -151 387 -377zM359 278c0 -104 39 -130 95 -130c52 0 83 37 86 81v98
c-2 45 -34 82 -86 82c-56 0 -95 -22 -95 -131z" />
    <glyph glyph-name="atilde" unicode="&#xe3;" horiz-adv-x="515" 
d="M117 666c1 2 33 49 90 49c58 0 71 -34 112 -34c30 0 45 23 47 26c19 -7 33 -26 37 -45c-1 -2 -33 -48 -90 -48s-71 34 -112 34c-31 0 -48 -27 -48 -27c-21 11 -32 25 -36 45zM80 499c0 0 75 37 175 37c145 0 191 -65 191 -194v-335s-11 -7 -39 -7c-25 0 -40 7 -40 7
l-15 64c-26 -53 -81 -81 -157 -81c-94 0 -155 56 -155 167c0 107 67 157 192 157c45 0 88 -3 114 -6v46c0 69 -29 98 -103 98c-70 0 -134 -25 -134 -25c-1 1 -13 9 -23 30c-9 20 -6 41 -6 42zM346 240c-23 2 -63 6 -101 6c-67 0 -102 -27 -102 -89c0 -64 33 -90 87 -90
c79 0 116 67 116 138v35z" />
    <glyph glyph-name="b" unicode="b" 
d="M173 743v-272c28 41 73 65 144 65c114 0 188 -69 188 -273s-74 -273 -188 -273c-71 0 -116 24 -144 65v-48s-17 -7 -51 -7c-33 0 -49 7 -49 7v736s16 7 49 7c34 0 51 -7 51 -7zM402 263c0 149 -40 191 -120 191c-70 0 -109 -58 -109 -126v-128c0 -69 39 -128 109 -128
c80 0 120 42 120 191z" />
    <glyph glyph-name="breve" unicode="&#x2d8;" horiz-adv-x="324" 
d="M310 668c0 0 -50 -63 -150 -63s-150 63 -150 63c6 21 23 40 43 47c0 0 40 -32 107 -32s107 32 107 32c21 -6 37 -26 43 -47z" />
    <glyph glyph-name="c" unicode="c" horiz-adv-x="447" 
d="M287 454c-96 0 -134 -61 -134 -191c0 -131 42 -188 138 -188c55 0 94 17 94 17c17 -15 28 -44 29 -72c0 0 -44 -30 -144 -30c-146 0 -220 95 -220 273s74 273 220 273c96 0 134 -25 134 -25c0 -27 -11 -55 -29 -72c0 0 -35 15 -88 15z" />
    <glyph glyph-name="cacute" unicode="&#x107;" horiz-adv-x="447" 
d="M361 739l-125 -135c-24 4 -45 14 -57 31l95 141c32 4 72 -14 87 -37zM287 454c-96 0 -134 -61 -134 -191c0 -131 42 -188 138 -188c55 0 94 17 94 17c17 -15 28 -44 29 -72c0 0 -44 -30 -144 -30c-146 0 -220 95 -220 273s74 273 220 273c96 0 134 -25 134 -25
c0 -27 -11 -55 -29 -72c0 0 -35 15 -88 15z" />
    <glyph glyph-name="caron" unicode="&#x2c7;" horiz-adv-x="404" 
d="M185 550l-138 113c10 21 25 38 46 45l105 -71l104 70c21 -6 36 -24 46 -44l-137 -113h-26z" />
    <glyph glyph-name="ccaron" unicode="&#x10d;" horiz-adv-x="447" 
d="M259 602l-127 104c9 19 23 36 42 42l96 -65l96 64c19 -6 33 -22 42 -41l-126 -104h-23zM287 454c-96 0 -134 -61 -134 -191c0 -131 42 -188 138 -188c55 0 94 17 94 17c17 -15 28 -44 29 -72c0 0 -44 -30 -144 -30c-146 0 -220 95 -220 273s74 273 220 273
c96 0 134 -25 134 -25c0 -27 -11 -55 -29 -72c0 0 -35 15 -88 15z" />
    <glyph glyph-name="ccedilla" unicode="&#xe7;" horiz-adv-x="446" 
d="M274 -10l-7 -45c75 0 104 -39 104 -93c0 -66 -46 -98 -121 -98c-59 0 -91 24 -91 24c-1 18 7 34 21 42c10 -5 36 -14 65 -14c36 0 63 12 63 49c0 27 -17 45 -56 45h-36l-13 14l15 81c-112 21 -168 113 -168 268c0 178 74 273 220 273c96 0 134 -25 134 -25
c-1 -26 -11 -51 -29 -68c0 0 -35 15 -88 15c-96 0 -134 -65 -134 -195c0 -131 42 -192 138 -192c55 0 94 17 94 17c17 -15 27 -40 29 -68c0 0 -42 -29 -140 -30z" />
    <glyph glyph-name="ccircumflex" unicode="&#x109;" horiz-adv-x="447" 
d="M271 757l135 -110c-10 -20 -25 -38 -46 -44l-102 69l-102 -68c-20 6 -35 22 -45 43l135 110h25zM287 454c-96 0 -134 -61 -134 -191c0 -131 42 -188 138 -188c55 0 94 17 94 17c17 -15 28 -44 29 -72c0 0 -44 -30 -144 -30c-146 0 -220 95 -220 273s74 273 220 273
c96 0 134 -25 134 -25c0 -27 -11 -55 -29 -72c0 0 -35 15 -88 15z" />
    <glyph glyph-name="cdotaccent" unicode="&#x10b;" horiz-adv-x="447" 
d="M310 710v-85s-16 -6 -47 -6c-34 0 -48 6 -48 6v85s14 6 48 6c31 0 47 -6 47 -6zM287 454c-96 0 -134 -61 -134 -191c0 -131 42 -188 138 -188c55 0 94 17 94 17c17 -15 28 -44 29 -72c0 0 -44 -30 -144 -30c-146 0 -220 95 -220 273s74 273 220 273c96 0 134 -25 134 -25
c0 -27 -11 -55 -29 -72c0 0 -35 15 -88 15z" />
    <glyph glyph-name="cedilla" unicode="&#xb8;" horiz-adv-x="296" 
d="M109 49l55 -13l-11 -62c76 0 104 -40 104 -95c0 -66 -46 -100 -121 -100c-59 0 -91 24 -91 24c-1 18 7 34 21 42c10 -5 36 -14 65 -14c36 0 63 14 63 51c0 27 -17 46 -56 46h-36l-13 14z" />
    <glyph glyph-name="circumflex" unicode="&#x2c6;" horiz-adv-x="396" 
d="M210 719l138 -113c-10 -20 -25 -38 -46 -45l-105 71l-104 -70c-21 7 -36 23 -46 44l137 113h26z" />
    <glyph glyph-name="comma" unicode="," horiz-adv-x="235" 
d="M97 -125l-36 25s32 35 37 100c-23 1 -33 7 -33 7v94s18 7 52 7s52 -7 52 -7v-63c0 -108 -72 -163 -72 -163z" />
    <glyph glyph-name="commaaccentcomb" unicode="&#xf6c3;" horiz-adv-x="0" 
d="M72 -125l-36 25s32 35 37 100c-23 1 -33 7 -33 7v94s15 7 52 7c34 0 52 -7 52 -7v-63c0 -108 -72 -163 -72 -163z" />
    <glyph glyph-name="commaaccentcomb.alt" horiz-adv-x="0" 
d="M101 720l36 -25s-32 -35 -37 -101c23 -1 34 -5 34 -5v-95s-16 -6 -52 -6c-34 0 -52 6 -52 6v63c0 108 71 163 71 163z" />
    <glyph glyph-name="d" unicode="d" 
d="M383 743c0 0 17 7 51 7c33 0 49 -7 49 -7v-736s-17 -7 -42 -7s-45 7 -45 7l-7 54c-29 -44 -75 -71 -150 -71c-114 0 -188 69 -188 273s74 273 188 273c70 0 115 -24 144 -65v272zM383 329c-1 67 -40 125 -109 125c-80 0 -120 -42 -120 -191s40 -191 120 -191
c70 0 109 59 109 128v129z" />
    <glyph glyph-name="dcaron" unicode="&#x10f;" horiz-adv-x="570" 
d="M527 603c39 45 51 82 46 144c34 7 64 4 85 -11c-4 -66 -37 -131 -87 -157c-19 2 -35 10 -44 24zM383 743c0 0 17 7 51 7c33 0 49 -7 49 -7v-736s-17 -7 -42 -7s-45 7 -45 7l-7 54c-29 -44 -75 -71 -150 -71c-114 0 -188 69 -188 273s74 273 188 273c70 0 115 -24 144 -65
v272zM383 329c-1 67 -40 125 -109 125c-80 0 -120 -42 -120 -191s40 -191 120 -191c70 0 109 59 109 128v129z" />
    <glyph glyph-name="dcroat" unicode="&#x111;" 
d="M551 675c0 0 5 -11 5 -31s-5 -31 -5 -31h-68v-606s-17 -7 -42 -7s-45 7 -45 7l-7 54c-29 -44 -75 -71 -150 -71c-114 0 -188 69 -188 273s74 273 188 273c70 0 115 -24 144 -65v142h-120s-5 11 -5 31s5 31 5 31h120v68s17 7 51 7c33 0 49 -7 49 -7v-68h68zM383 200v129
c-1 67 -40 125 -109 125c-80 0 -120 -42 -120 -191s40 -191 120 -191c70 0 109 59 109 128z" />
    <glyph glyph-name="dieresis" unicode="&#xa8;" horiz-adv-x="455" 
d="M184 698v-81s-16 -6 -45 -6c-31 0 -46 6 -46 6v81s15 6 46 6c29 0 45 -6 45 -6zM354 698v-81s-16 -6 -46 -6c-31 0 -45 6 -45 6v81s14 6 45 6c30 0 46 -6 46 -6z" />
    <glyph glyph-name="dotaccent" unicode="&#x2d9;" horiz-adv-x="176" 
d="M135 695v-85s-17 -6 -48 -6c-33 0 -48 6 -48 6v85s15 6 48 6c31 0 48 -6 48 -6z" />
    <glyph glyph-name="dotlessi" unicode="&#x131;" horiz-adv-x="250" 
d="M175 519v-512s-17 -7 -50 -7c-35 0 -50 7 -50 7v512s15 7 50 7c33 0 50 -7 50 -7z" />
    <glyph glyph-name="dotlessj" unicode="&#x237;" horiz-adv-x="250" 
d="M75 -92v611s15 7 50 7c33 0 50 -7 50 -7v-607c0 -106 -51 -162 -145 -162c-42 0 -67 9 -67 9s-3 10 -3 23c0 35 10 51 10 51s16 -4 37 -4c45 0 68 24 68 79z" />
    <glyph glyph-name="e" unicode="e" horiz-adv-x="514" 
d="M459 232h-306c8 -119 56 -157 139 -157c71 0 118 29 118 29c18 -16 31 -43 32 -72c0 0 -57 -42 -166 -42c-154 0 -226 95 -226 276c0 189 89 270 222 270c123 0 198 -68 198 -201c0 -63 -11 -103 -11 -103zM370 348c0 59 -24 109 -98 109c-65 0 -111 -43 -119 -154h214
c1 8 3 24 3 45z" />
    <glyph glyph-name="eacute" unicode="&#xe9;" horiz-adv-x="514" 
d="M367 739l-125 -135c-24 4 -45 14 -57 31l95 141c32 4 72 -14 87 -37zM459 232h-306c8 -119 56 -157 139 -157c71 0 118 29 118 29c18 -16 31 -43 32 -72c0 0 -57 -42 -166 -42c-154 0 -226 95 -226 276c0 189 89 270 222 270c123 0 198 -68 198 -201
c0 -63 -11 -103 -11 -103zM370 348c0 59 -24 109 -98 109c-65 0 -111 -43 -119 -154h214c1 8 3 24 3 45z" />
    <glyph glyph-name="ebreve" unicode="&#x115;" horiz-adv-x="514" 
d="M420 674c0 0 -50 -63 -150 -63s-150 63 -150 63c6 21 23 40 43 47c0 0 40 -32 107 -32s107 32 107 32c21 -6 37 -26 43 -47zM459 232h-306c8 -119 56 -157 139 -157c71 0 118 29 118 29c18 -16 31 -43 32 -72c0 0 -57 -42 -166 -42c-154 0 -226 95 -226 276
c0 189 89 270 222 270c123 0 198 -68 198 -201c0 -63 -11 -103 -11 -103zM370 348c0 59 -24 109 -98 109c-65 0 -111 -43 -119 -154h214c1 8 3 24 3 45z" />
    <glyph glyph-name="ecaron" unicode="&#x11b;" horiz-adv-x="514" 
d="M257 602l-132 107c10 20 25 37 44 43l101 -68l99 67c19 -6 34 -22 44 -42l-131 -107h-25zM459 232h-306c8 -119 56 -157 139 -157c71 0 118 29 118 29c18 -16 31 -43 32 -72c0 0 -57 -42 -166 -42c-154 0 -226 95 -226 276c0 189 89 270 222 270c123 0 198 -68 198 -201
c0 -63 -11 -103 -11 -103zM370 348c0 59 -24 109 -98 109c-65 0 -111 -43 -119 -154h214c1 8 3 24 3 45z" />
    <glyph glyph-name="ecircumflex" unicode="&#xea;" horiz-adv-x="514" 
d="M281 756l135 -110c-9 -20 -24 -37 -45 -44l-102 69l-102 -68c-21 7 -36 23 -46 43l135 110h25zM459 232h-306c8 -119 56 -157 139 -157c71 0 118 29 118 29c18 -16 31 -43 32 -72c0 0 -57 -42 -166 -42c-154 0 -226 95 -226 276c0 189 89 270 222 270
c123 0 198 -68 198 -201c0 -63 -11 -103 -11 -103zM370 348c0 59 -24 109 -98 109c-65 0 -111 -43 -119 -154h214c1 8 3 24 3 45z" />
    <glyph glyph-name="edieresis" unicode="&#xeb;" horiz-adv-x="514" 
d="M230 701v-82s-16 -6 -46 -6c-31 0 -45 6 -45 6v82s14 6 45 6c30 0 46 -6 46 -6zM399 701v-82s-16 -6 -45 -6c-31 0 -46 6 -46 6v82s15 6 46 6c29 0 45 -6 45 -6zM459 232h-306c8 -119 56 -157 139 -157c71 0 118 29 118 29c18 -16 31 -43 32 -72c0 0 -57 -42 -166 -42
c-154 0 -226 95 -226 276c0 189 89 270 222 270c123 0 198 -68 198 -201c0 -63 -11 -103 -11 -103zM370 348c0 59 -24 109 -98 109c-65 0 -111 -43 -119 -154h214c1 8 3 24 3 45z" />
    <glyph glyph-name="edotaccent" unicode="&#x117;" horiz-adv-x="514" 
d="M317 708v-86s-17 -6 -48 -6c-33 0 -47 6 -47 6v86s14 6 47 6c31 0 48 -6 48 -6zM459 232h-306c8 -119 56 -157 139 -157c71 0 118 29 118 29c18 -16 31 -43 32 -72c0 0 -57 -42 -166 -42c-154 0 -226 95 -226 276c0 189 89 270 222 270c123 0 198 -68 198 -201
c0 -63 -11 -103 -11 -103zM370 348c0 59 -24 109 -98 109c-65 0 -111 -43 -119 -154h214c1 8 3 24 3 45z" />
    <glyph glyph-name="egrave" unicode="&#xe8;" horiz-adv-x="514" 
d="M277 604l-125 135c14 23 55 41 87 37l95 -141c-12 -17 -33 -27 -57 -31zM459 232h-306c8 -119 56 -157 139 -157c71 0 118 29 118 29c18 -16 31 -43 32 -72c0 0 -57 -42 -166 -42c-154 0 -226 95 -226 276c0 189 89 270 222 270c123 0 198 -68 198 -201
c0 -63 -11 -103 -11 -103zM370 348c0 59 -24 109 -98 109c-65 0 -111 -43 -119 -154h214c1 8 3 24 3 45z" />
    <glyph glyph-name="eight" unicode="8" horiz-adv-x="581" 
d="M287 -10c-143 0 -230 65 -230 178c0 98 74 156 127 185c-60 34 -107 81 -107 166c0 104 80 171 212 171c129 0 208 -60 208 -163c0 -87 -54 -139 -98 -169c69 -36 127 -86 127 -181c0 -118 -86 -187 -239 -187zM289 615c-72 0 -114 -35 -114 -90c0 -73 78 -102 159 -137
c31 24 73 65 73 130c0 62 -44 97 -118 97zM291 69c83 0 134 40 134 103c0 83 -91 111 -178 149c-30 -19 -94 -68 -94 -148c0 -63 47 -104 138 -104z" />
    <glyph glyph-name="emacron" unicode="&#x113;" horiz-adv-x="514" 
d="M403 630h-259c-5 20 -5 44 0 61h259c6 -17 7 -43 0 -61zM459 232h-306c8 -119 56 -157 139 -157c71 0 118 29 118 29c18 -16 31 -43 32 -72c0 0 -57 -42 -166 -42c-154 0 -226 95 -226 276c0 189 89 270 222 270c123 0 198 -68 198 -201c0 -63 -11 -103 -11 -103z
M370 348c0 59 -24 109 -98 109c-65 0 -111 -43 -119 -154h214c1 8 3 24 3 45z" />
    <glyph glyph-name="eng" unicode="&#x14b;" horiz-adv-x="549" 
d="M173 473c36 41 88 63 151 63c100 0 155 -61 155 -151v-428c0 -101 -37 -156 -126 -185c-22 16 -34 43 -33 72c43 16 59 46 59 112v411c0 56 -29 88 -93 88c-44 0 -87 -24 -113 -64v-384s-18 -7 -50 -7c-35 0 -50 7 -50 7v512s15 7 50 7c32 0 50 -7 50 -7v-46z" />
    <glyph glyph-name="eogonek" unicode="&#x119;" horiz-adv-x="514" 
d="M50 266c0 189 89 270 222 270c123 0 198 -68 198 -201c0 -63 -11 -103 -11 -103h-306c8 -119 56 -157 139 -157c71 0 118 29 118 29c18 -16 31 -43 32 -72c0 0 -25 -19 -73 -31c-56 -17 -93 -54 -93 -100c0 -34 24 -37 53 -37c19 0 32 8 32 8c11 -8 17 -26 16 -42
c0 0 -30 -19 -68 -19c-56 0 -99 21 -99 81c0 37 17 74 51 98c-143 7 -211 101 -211 276zM370 348c0 59 -24 109 -98 109c-65 0 -111 -43 -119 -154h214c1 8 3 24 3 45z" />
    <glyph glyph-name="estimated" unicode="&#x212e;" horiz-adv-x="798" 
d="M594 95h67c-64 -68 -152 -105 -254 -105c-194 0 -352 158 -352 352s158 352 352 352s352 -158 352 -352v-24h-544v-218c55 -41 123 -67 192 -67c68 0 133 24 187 62zM599 583c-54 42 -122 68 -192 68c-69 0 -137 -26 -192 -67v-222h384v221z" />
    <glyph glyph-name="eth" unicode="&#xf0;" horiz-adv-x="555" 
d="M422 693l-59 -37c87 -77 140 -195 140 -349c0 -245 -85 -317 -230 -317c-137 0 -223 71 -223 262s86 262 213 262c57 0 99 -19 127 -49c-16 57 -46 108 -94 147l-115 -73c-18 15 -31 34 -35 54l89 56c-30 16 -64 29 -103 37c-2 25 3 48 21 64c57 -9 109 -28 155 -55
l80 51c16 -12 29 -33 34 -53zM273 67c72 0 121 38 121 185c0 150 -50 185 -123 185s-118 -38 -118 -185s48 -185 120 -185z" />
    <glyph glyph-name="exclam" unicode="!" horiz-adv-x="268" 
d="M97 192l-17 521s16 7 54 7c36 0 54 -7 54 -7l-17 -521s-13 -8 -36 -8c-24 0 -38 8 -38 8zM185 101v-94s-17 -7 -51 -7c-36 0 -51 7 -51 7v94s15 7 51 7c34 0 51 -7 51 -7z" />
    <glyph glyph-name="f" unicode="f" horiz-adv-x="352" 
d="M102 586c0 97 40 164 167 164c67 0 110 -21 110 -21c-1 -28 -9 -50 -26 -70c0 0 -31 11 -77 11c-57 0 -74 -26 -74 -79v-65h125c3 -11 5 -24 5 -39c0 -13 -2 -25 -5 -36h-125v-444s-17 -7 -50 -7c-35 0 -50 7 -50 7v444h-66c-2 11 -5 24 -5 38c0 15 2 27 5 37h66v60z" />
    <glyph glyph-name="fi" unicode="&#xfb01;" horiz-adv-x="578" 
d="M102 586c0 102 57 164 189 164c122 0 205 -32 205 -32c-1 -28 -9 -51 -26 -70c0 0 -71 22 -172 22c-69 0 -97 -24 -97 -79v-65h250c30 0 49 -6 52 -6v-513s-17 -7 -50 -7c-35 0 -50 7 -50 7v444h-202v-444s-17 -7 -49 -7c-35 0 -50 7 -50 7v444h-64s-5 15 -5 38
s5 37 5 37h64v60z" />
    <glyph glyph-name="five" unicode="5" horiz-adv-x="522" 
d="M185 592v-192c8 1 27 3 52 3c153 0 232 -65 232 -207c0 -133 -82 -206 -256 -206c-117 0 -167 33 -167 33c-2 27 8 57 25 74c0 0 55 -21 132 -21c105 0 163 34 163 120c0 90 -45 124 -165 124c-44 0 -87 -4 -114 -6v366h353c11 -29 11 -62 0 -88h-255z" />
    <glyph glyph-name="fl" unicode="&#xfb02;" horiz-adv-x="578" 
d="M101 586c0 101 57 164 186 164c114 0 215 -34 215 -34v-709s-17 -7 -50 -7c-35 0 -50 7 -50 7v653c-27 5 -64 10 -107 10c-67 0 -95 -26 -95 -79v-65h97c3 -11 5 -23 5 -37c0 -15 -2 -27 -5 -38h-97v-444s-17 -7 -49 -7c-35 0 -50 7 -50 7v444h-64c-2 11 -5 24 -5 38
s2 27 5 37h64v60z" />
    <glyph glyph-name="four" unicode="4" horiz-adv-x="579" 
d="M38 251l311 422s17 7 51 7c33 0 48 -7 48 -7v-422h89s7 -14 7 -40s-7 -40 -7 -40h-89v-164s-17 -7 -46 -7c-31 0 -49 7 -49 7v164h-315s-8 14 -8 40s8 40 8 40zM353 542l-215 -291h215v291z" />
    <glyph glyph-name="fraction" unicode="&#x2044;" horiz-adv-x="136" 
d="M-165 -4l386 700s12 6 39 6c26 0 38 -6 38 -6l-387 -700s-15 -6 -39 -6c-22 0 -37 6 -37 6z" />
    <glyph glyph-name="g" unicode="g" horiz-adv-x="531" 
d="M360 513l140 23c9 -21 9 -57 0 -79l-83 4c19 -28 28 -63 28 -105c0 -112 -67 -180 -196 -180c-16 0 -31 1 -44 3c-11 -15 -21 -36 -19 -58c11 -92 313 6 313 -200c0 -98 -95 -171 -257 -171c-150 0 -213 59 -213 139c0 76 62 122 89 138c-14 14 -22 33 -22 58
c0 44 25 84 48 111c-60 28 -91 84 -91 160c0 112 68 180 196 180c45 0 82 -8 111 -23zM349 356c0 75 -40 110 -100 110s-101 -35 -101 -110s41 -109 101 -109s100 34 100 109zM404 -89c0 82 -142 61 -232 89c-25 -20 -46 -54 -46 -91c0 -50 37 -88 119 -88
c103 0 159 37 159 90z" />
    <glyph glyph-name="g.alt" horiz-adv-x="557" 
d="M384 26v29c-28 -40 -72 -65 -144 -65c-114 0 -188 69 -188 273s74 273 188 273c72 0 116 -25 144 -65v48s17 7 51 7c33 0 49 -7 49 -7v-493c0 -191 -66 -276 -232 -276c-103 0 -156 36 -156 36c1 26 11 52 28 67c0 0 51 -22 115 -22c94 0 145 33 145 195zM155 263
c0 -149 40 -191 120 -191c72 0 107 62 109 123v132c0 64 -35 127 -109 127c-80 0 -120 -42 -120 -191z" />
    <glyph glyph-name="gbreve" unicode="&#x11f;" horiz-adv-x="531" 
d="M402 674c0 0 -50 -63 -150 -63s-150 63 -150 63c6 21 23 40 43 47c0 0 40 -32 107 -32s107 32 107 32c21 -6 37 -26 43 -47zM144 196c-60 28 -91 84 -91 160c0 112 68 180 196 180c45 0 82 -8 111 -23l140 23c9 -21 9 -57 0 -79l-83 4c19 -28 28 -63 28 -105
c0 -112 -67 -180 -196 -180c-16 0 -31 1 -44 3c-11 -15 -21 -36 -19 -58c11 -92 313 6 313 -200c0 -98 -95 -171 -257 -171c-150 0 -213 59 -213 139c0 76 62 122 89 138c-14 14 -22 33 -22 58c0 44 25 84 48 111zM249 466c-60 0 -101 -35 -101 -110s41 -109 101 -109
s100 34 100 109s-40 110 -100 110zM245 -179c103 0 159 37 159 90c0 82 -142 61 -232 89c-25 -20 -46 -54 -46 -91c0 -50 37 -88 119 -88z" />
    <glyph glyph-name="gbreve.alt" 
d="M437 674c0 0 -50 -63 -150 -63s-150 63 -150 63c6 21 23 40 43 47c0 0 40 -32 107 -32s107 32 107 32c21 -6 37 -26 43 -47zM383 26v29c-28 -40 -72 -65 -144 -65c-114 0 -188 69 -188 273s74 273 188 273c72 0 116 -25 144 -65v48s17 7 51 7c33 0 49 -7 49 -7v-493
c0 -191 -66 -276 -232 -276c-103 0 -156 36 -156 36c1 26 11 52 28 67c0 0 51 -22 115 -22c94 0 145 33 145 195zM154 263c0 -149 40 -191 120 -191c72 0 107 62 109 123v132c0 64 -35 127 -109 127c-80 0 -120 -42 -120 -191z" />
    <glyph glyph-name="gcircumflex" unicode="&#x11d;" horiz-adv-x="531" 
d="M259 756l136 -110c-10 -20 -25 -37 -46 -44l-102 69l-102 -68c-21 7 -35 23 -45 43l134 110h25zM144 196c-60 28 -91 84 -91 160c0 112 68 180 196 180c45 0 82 -8 111 -23l140 23c9 -21 9 -57 0 -79l-83 4c19 -28 28 -63 28 -105c0 -112 -67 -180 -196 -180
c-16 0 -31 1 -44 3c-11 -15 -21 -36 -19 -58c11 -92 313 6 313 -200c0 -98 -95 -171 -257 -171c-150 0 -213 59 -213 139c0 76 62 122 89 138c-14 14 -22 33 -22 58c0 44 25 84 48 111zM249 466c-60 0 -101 -35 -101 -110s41 -109 101 -109s100 34 100 109s-40 110 -100 110
zM245 -179c103 0 159 37 159 90c0 82 -142 61 -232 89c-25 -20 -46 -54 -46 -91c0 -50 37 -88 119 -88z" />
    <glyph glyph-name="gcircumflex.alt" 
d="M283 759l135 -110c-9 -20 -24 -38 -45 -44l-102 69l-102 -68c-21 6 -36 22 -46 43l135 110h25zM383 26v29c-28 -40 -72 -65 -144 -65c-114 0 -188 69 -188 273s74 273 188 273c72 0 116 -25 144 -65v48s17 7 51 7c33 0 49 -7 49 -7v-493c0 -191 -66 -276 -232 -276
c-103 0 -156 36 -156 36c1 26 11 52 28 67c0 0 51 -22 115 -22c94 0 145 33 145 195zM154 263c0 -149 40 -191 120 -191c72 0 107 62 109 123v132c0 64 -35 127 -109 127c-80 0 -120 -42 -120 -191z" />
    <glyph glyph-name="gcommaaccent" unicode="&#x123;" horiz-adv-x="531" 
d="M270 808l37 -22s-34 -31 -38 -88c24 -2 34 -6 34 -6v-84s-18 -5 -53 -5c-34 0 -53 5 -53 5v56c0 95 73 144 73 144zM144 196c-60 28 -91 84 -91 160c0 112 68 180 196 180c45 0 82 -8 111 -23l140 23c9 -21 9 -57 0 -79l-83 4c19 -28 28 -63 28 -105
c0 -112 -67 -180 -196 -180c-16 0 -31 1 -44 3c-11 -15 -21 -36 -19 -58c11 -92 313 6 313 -200c0 -98 -95 -171 -257 -171c-150 0 -213 59 -213 139c0 76 62 122 89 138c-14 14 -22 33 -22 58c0 44 25 84 48 111zM249 466c-60 0 -101 -35 -101 -110s41 -109 101 -109
s100 34 100 109s-40 110 -100 110zM245 -179c103 0 159 37 159 90c0 82 -142 61 -232 89c-25 -20 -46 -54 -46 -91c0 -50 37 -88 119 -88z" />
    <glyph glyph-name="gcommaaccent.alt" 
d="M299 808l36 -23s-32 -31 -36 -90c22 -1 32 -6 32 -6v-83s-18 -6 -51 -6c-34 0 -52 6 -52 6v55c0 97 71 147 71 147zM383 26v29c-28 -40 -72 -65 -144 -65c-114 0 -188 69 -188 273s74 273 188 273c72 0 116 -25 144 -65v48s17 7 51 7c33 0 49 -7 49 -7v-493
c0 -191 -66 -276 -232 -276c-103 0 -156 36 -156 36c1 26 11 52 28 67c0 0 51 -22 115 -22c94 0 145 33 145 195zM154 263c0 -149 40 -191 120 -191c72 0 107 62 109 123v132c0 64 -35 127 -109 127c-80 0 -120 -42 -120 -191z" />
    <glyph glyph-name="gdotaccent" unicode="&#x121;" horiz-adv-x="531" 
d="M301 707v-85s-17 -6 -48 -6c-33 0 -48 6 -48 6v85s15 6 48 6c31 0 48 -6 48 -6zM144 196c-60 28 -91 84 -91 160c0 112 68 180 196 180c45 0 82 -8 111 -23l140 23c9 -21 9 -57 0 -79l-83 4c19 -28 28 -63 28 -105c0 -112 -67 -180 -196 -180c-16 0 -31 1 -44 3
c-11 -15 -21 -36 -19 -58c11 -92 313 6 313 -200c0 -98 -95 -171 -257 -171c-150 0 -213 59 -213 139c0 76 62 122 89 138c-14 14 -22 33 -22 58c0 44 25 84 48 111zM249 466c-60 0 -101 -35 -101 -110s41 -109 101 -109s100 34 100 109s-40 110 -100 110zM245 -179
c103 0 159 37 159 90c0 82 -142 61 -232 89c-25 -20 -46 -54 -46 -91c0 -50 37 -88 119 -88z" />
    <glyph glyph-name="gdotaccent.alt" 
d="M340 710v-85s-17 -6 -48 -6c-33 0 -47 6 -47 6v85s14 6 47 6c31 0 48 -6 48 -6zM383 26v29c-28 -40 -72 -65 -144 -65c-114 0 -188 69 -188 273s74 273 188 273c72 0 116 -25 144 -65v48s17 7 51 7c33 0 49 -7 49 -7v-493c0 -191 -66 -276 -232 -276
c-103 0 -156 36 -156 36c1 26 11 52 28 67c0 0 51 -22 115 -22c94 0 145 33 145 195zM154 263c0 -149 40 -191 120 -191c72 0 107 62 109 123v132c0 64 -35 127 -109 127c-80 0 -120 -42 -120 -191z" />
    <glyph glyph-name="germandbls" unicode="&#xdf;" horiz-adv-x="572" 
d="M73 7v549c0 133 78 194 213 194c134 0 196 -83 195 -174c0 -39 -11 -72 -21 -94c0 0 -96 -10 -96 -88c0 -101 173 -93 173 -253c0 -101 -68 -151 -170 -151c-69 0 -111 19 -111 19c-3 27 4 50 21 69c18 -6 49 -11 75 -11c54 0 90 24 90 71c0 102 -174 104 -174 246
c0 107 103 134 103 134c4 12 10 33 10 56c-1 52 -30 96 -96 96c-78 0 -112 -38 -112 -114v-549s-17 -7 -50 -7c-35 0 -50 7 -50 7z" />
    <glyph glyph-name="grave" unicode="`" horiz-adv-x="238" 
d="M155 637l-125 135c14 23 55 41 87 37l95 -141c-12 -17 -33 -27 -57 -31z" />
    <glyph glyph-name="greaterequal" unicode="&#x2265;" horiz-adv-x="464" 
d="M389 330l-310 -114s-6 14 -6 38c0 26 6 38 6 38l218 76l-218 79s-6 14 -6 39s6 37 6 37l310 -114s6 -15 6 -38c0 -24 -6 -41 -6 -41zM389 95h-310s-6 14 -6 37s6 37 6 37h310s6 -14 6 -37s-6 -37 -6 -37z" />
    <glyph glyph-name="h" unicode="h" horiz-adv-x="549" 
d="M479 385v-378s-17 -7 -50 -7c-34 0 -50 7 -50 7v360c0 56 -29 88 -93 88c-44 0 -87 -24 -113 -64v-384s-18 -7 -50 -7c-35 0 -50 7 -50 7v736s15 7 50 7c32 0 50 -7 50 -7v-270c36 41 88 63 151 63c100 0 155 -61 155 -151z" />
    <glyph glyph-name="hbar" unicode="&#x127;" horiz-adv-x="549" 
d="M172 473c36 41 88 63 151 63c100 0 155 -61 155 -151v-378s-17 -7 -50 -7c-34 0 -50 7 -50 7v360c0 56 -29 88 -93 88c-44 0 -87 -24 -113 -64v-384s-18 -7 -50 -7c-35 0 -50 7 -50 7v605h-68c-6 20 -7 44 0 63h68v68s15 7 50 7c32 0 50 -7 50 -7v-68h172
c6 -19 6 -41 0 -63h-172v-139z" />
    <glyph glyph-name="hcircumflex" unicode="&#x125;" horiz-adv-x="549" 
d="M138 918l133 -110c-10 -19 -25 -36 -45 -42l-101 68l-99 -68c-20 6 -36 23 -45 42l132 110h25zM479 385v-378s-17 -7 -50 -7c-34 0 -50 7 -50 7v360c0 56 -29 88 -93 88c-44 0 -87 -24 -113 -64v-384s-18 -7 -50 -7c-35 0 -50 7 -50 7v736s15 7 50 7c32 0 50 -7 50 -7
v-270c36 41 88 63 151 63c100 0 155 -61 155 -151z" />
    <glyph glyph-name="hungarumlaut" unicode="&#x2dd;" horiz-adv-x="386" 
d="M195 772l-125 -135c-24 4 -45 14 -57 31l93 141c33 4 73 -14 89 -37zM359 772l-125 -135c-24 4 -45 14 -57 31l93 141c34 4 74 -14 89 -37z" />
    <glyph glyph-name="hyphen" unicode="-" horiz-adv-x="358" 
d="M283 253h-208s-6 14 -6 37s6 37 6 37h208s6 -14 6 -37s-6 -37 -6 -37z" />
    <glyph glyph-name="i" unicode="i" horiz-adv-x="250" 
d="M177 721v-94s-18 -7 -52 -7c-36 0 -52 7 -52 7v94s16 7 52 7c34 0 52 -7 52 -7zM175 519v-512s-17 -7 -50 -7c-35 0 -50 7 -50 7v512s15 7 50 7c33 0 50 -7 50 -7z" />
    <glyph glyph-name="iacute" unicode="&#xed;" horiz-adv-x="250" 
d="M236 739l-125 -135c-24 4 -45 14 -57 31l95 141c32 4 72 -14 87 -37zM175 519v-512s-17 -7 -50 -7c-35 0 -50 7 -50 7v512s15 7 50 7c33 0 50 -7 50 -7z" />
    <glyph glyph-name="ibreve" unicode="&#x12d;" horiz-adv-x="250" 
d="M274 675c0 0 -50 -63 -150 -63s-150 63 -150 63c6 21 23 40 43 47c0 0 40 -32 107 -32s107 32 107 32c21 -6 37 -26 43 -47zM175 519v-512s-17 -7 -50 -7c-35 0 -50 7 -50 7v512s15 7 50 7c33 0 50 -7 50 -7z" />
    <glyph glyph-name="icircumflex" unicode="&#xee;" horiz-adv-x="250" 
d="M138 756l136 -110c-10 -20 -25 -37 -46 -44l-102 69l-102 -68c-21 7 -35 23 -45 43l134 110h25zM175 519v-512s-17 -7 -50 -7c-35 0 -50 7 -50 7v512s15 7 50 7c33 0 50 -7 50 -7z" />
    <glyph glyph-name="idieresis" unicode="&#xef;" horiz-adv-x="250" 
d="M83 703v-82s-16 -5 -45 -5c-31 0 -46 5 -46 5v82s15 6 46 6c29 0 45 -6 45 -6zM253 703v-82s-16 -5 -46 -5c-31 0 -45 5 -45 5v82s14 6 45 6c30 0 46 -6 46 -6zM175 519v-512s-17 -7 -50 -7c-35 0 -50 7 -50 7v512s15 7 50 7c33 0 50 -7 50 -7z" />
    <glyph glyph-name="igrave" unicode="&#xec;" horiz-adv-x="250" 
d="M131 606l-125 135c14 23 55 41 87 37l95 -141c-12 -17 -33 -27 -57 -31zM175 519v-512s-17 -7 -50 -7c-35 0 -50 7 -50 7v512s15 7 50 7c33 0 50 -7 50 -7z" />
    <glyph glyph-name="ij" unicode="&#x133;" horiz-adv-x="486" 
d="M177 721v-94s-18 -7 -52 -7c-36 0 -52 7 -52 7v94s16 7 52 7c34 0 52 -7 52 -7zM175 519v-512s-17 -7 -50 -7c-35 0 -50 7 -50 7v512s15 7 50 7c33 0 50 -7 50 -7zM413 722v-94s-18 -7 -52 -7c-36 0 -52 7 -52 7v94s16 7 52 7c34 0 52 -7 52 -7zM311 -92v611s15 7 50 7
c33 0 50 -7 50 -7v-607c0 -106 -51 -162 -145 -162c-42 0 -67 9 -67 9s-3 10 -3 23c0 35 10 51 10 51s16 -4 37 -4c45 0 68 24 68 79z" />
    <glyph glyph-name="imacron" unicode="&#x12b;" horiz-adv-x="250" 
d="M223 638h-194c-4 20 -4 41 0 58h194c4 -17 4 -39 0 -58zM175 519v-512s-17 -7 -50 -7c-35 0 -50 7 -50 7v512s15 7 50 7c33 0 50 -7 50 -7z" />
    <glyph glyph-name="infinity" unicode="&#x221e;" horiz-adv-x="810" 
d="M578 155c-115 0 -173 110 -173 110s-58 -110 -173 -110c-119 0 -178 85 -178 170s59 170 178 170c115 0 173 -111 173 -111s61 111 173 111c119 0 178 -85 178 -170s-59 -170 -178 -170zM231 231c83 0 124 94 124 94s-41 94 -124 94c-71 0 -99 -50 -99 -94s28 -94 99 -94
zM579 419c-83 0 -124 -94 -124 -94s41 -94 124 -94c71 0 99 50 99 94s-28 94 -99 94z" />
    <glyph glyph-name="integral" unicode="&#x222b;" horiz-adv-x="498" 
d="M204 -15v559c0 109 53 176 159 176c62 0 115 -36 124 -41c-4 -26 -16 -47 -34 -61c-29 20 -65 33 -99 29c-41 -4 -71 -33 -71 -102v-560c0 -115 -51 -177 -154 -177c-59 0 -106 36 -117 42c4 25 14 46 34 60c27 -19 61 -34 93 -30c36 4 65 31 65 105z" />
    <glyph glyph-name="iogonek" unicode="&#x12f;" horiz-adv-x="250" 
d="M73 707c0 0 16 7 52 7c34 0 52 -7 52 -7v-94s-18 -7 -52 -7c-36 0 -52 7 -52 7v94zM75 519c0 0 15 7 50 7c33 0 50 -7 50 -7v-512c-60 -20 -89 -58 -89 -101c0 -33 25 -41 54 -41c19 0 32 7 32 7c11 -9 16 -30 15 -46c0 0 -29 -18 -67 -18c-56 0 -109 29 -109 89
c0 41 24 82 64 106v516z" />
    <glyph glyph-name="itilde" unicode="&#x129;" horiz-adv-x="250" 
d="M173 677c25 0 38 27 38 27c15 -8 28 -26 31 -44c-2 -4 -27 -47 -75 -47c-45 0 -57 31 -90 31c-25 0 -38 -25 -38 -25c-17 10 -28 24 -30 44c1 3 26 46 74 46c46 0 57 -32 90 -32zM175 519v-512s-17 -7 -50 -7c-35 0 -50 7 -50 7v512s15 7 50 7c33 0 50 -7 50 -7z" />
    <glyph glyph-name="j" unicode="j" horiz-adv-x="250" 
d="M177 722v-94s-18 -7 -52 -7c-36 0 -52 7 -52 7v94s16 7 52 7c34 0 52 -7 52 -7zM75 -92v611s15 7 50 7c33 0 50 -7 50 -7v-607c0 -106 -51 -162 -145 -162c-42 0 -67 9 -67 9s-3 10 -3 23c0 35 10 51 10 51s16 -4 37 -4c45 0 68 24 68 79z" />
    <glyph glyph-name="jcircumflex" unicode="&#x135;" horiz-adv-x="250" 
d="M138 737l135 -110c-10 -20 -25 -37 -45 -44l-103 70l-102 -69c-20 7 -36 23 -45 43l134 110h26zM75 -92v611s15 7 50 7c33 0 50 -7 50 -7v-607c0 -106 -51 -162 -145 -162c-42 0 -67 9 -67 9s-3 10 -3 23c0 35 10 51 10 51s16 -4 37 -4c45 0 68 24 68 79z" />
    <glyph glyph-name="k" unicode="k" horiz-adv-x="501" 
d="M230 312l136 207s20 7 51 7c28 0 49 -6 49 -6l-154 -239l177 -274s-22 -8 -56 -8s-54 8 -54 8l-150 230h-56v-230s-20 -7 -49 -7c-32 0 -51 7 -51 7v738s20 5 51 5c27 0 49 -5 49 -5v-433h57z" />
    <glyph glyph-name="kcommaaccent" unicode="&#x137;" horiz-adv-x="501" 
d="M230 312l136 207s20 7 51 7c28 0 49 -6 49 -6l-154 -239l177 -274s-22 -8 -56 -8s-54 8 -54 8l-150 230h-56v-230s-20 -7 -49 -7c-32 0 -51 7 -51 7v738s20 5 51 5c27 0 49 -5 49 -5v-433h57zM256 -273l-36 25s33 35 37 100c-23 2 -33 7 -33 7v94s18 7 52 7s52 -7 52 -7
v-63c0 -108 -72 -163 -72 -163z" />
    <glyph glyph-name="kgreenlandic" unicode="&#x138;" horiz-adv-x="512" 
d="M303 310l199 -299s-21 -11 -59 -11c-37 0 -58 8 -58 8l-149 222l-63 -75v-148c-15 -5 -32 -7 -49 -7c-19 0 -37 2 -51 7v514c15 3 33 5 51 5s36 -2 49 -5v-241l201 241c16 3 32 5 51 5c18 0 36 -2 54 -7z" />
    <glyph glyph-name="l" unicode="l" horiz-adv-x="252" 
d="M176 743v-736s-17 -7 -50 -7c-35 0 -50 7 -50 7v736s15 7 50 7c33 0 50 -7 50 -7z" />
    <glyph glyph-name="lacute" unicode="&#x13a;" horiz-adv-x="252" 
d="M236 909l-125 -135c-24 4 -45 14 -57 31l95 141c32 4 72 -14 87 -37zM176 743v-736s-17 -7 -50 -7c-35 0 -50 7 -50 7v736s15 7 50 7c33 0 50 -7 50 -7z" />
    <glyph glyph-name="lcaron" unicode="&#x13e;" horiz-adv-x="263" 
d="M264 579c-19 2 -35 10 -44 24c39 45 51 82 47 144c33 7 63 4 84 -11c-4 -66 -37 -131 -87 -157zM176 743v-736s-17 -7 -50 -7c-35 0 -50 7 -50 7v736s15 7 50 7c33 0 50 -7 50 -7z" />
    <glyph glyph-name="lcommaaccent" unicode="&#x13c;" horiz-adv-x="252" 
d="M176 743v-736s-17 -7 -50 -7c-35 0 -50 7 -50 7v736s15 7 50 7c33 0 50 -7 50 -7zM107 -272l-36 25s33 35 37 99c-23 2 -33 7 -33 7v94s18 7 52 7s52 -7 52 -7v-62c0 -108 -72 -163 -72 -163z" />
    <glyph glyph-name="ldot" unicode="&#x140;" horiz-adv-x="364" 
d="M176 743v-736s-17 -7 -50 -7c-35 0 -50 7 -50 7v736s15 7 50 7c33 0 50 -7 50 -7zM358 375v-81s-16 -7 -45 -7c-32 0 -46 7 -46 7v81s14 7 46 7c29 0 45 -7 45 -7z" />
    <glyph glyph-name="lessequal" unicode="&#x2264;" horiz-adv-x="464" 
d="M385 216l-310 114s-6 17 -6 41c0 23 6 38 6 38l310 114s6 -12 6 -37s-6 -39 -6 -39l-218 -79l218 -76s6 -12 6 -38c0 -24 -6 -38 -6 -38zM385 95h-310s-6 14 -6 37s6 37 6 37h310s6 -14 6 -37s-6 -37 -6 -37z" />
    <glyph glyph-name="longs" unicode="&#x17f;" horiz-adv-x="295" 
d="M202 591v-584s-17 -7 -50 -7c-35 0 -50 7 -50 7v444h-68c-5 26 -5 52 0 75h68v60c0 97 40 164 167 164c67 0 110 -21 110 -21c-1 -28 -9 -50 -26 -70c0 0 -31 11 -77 11c-57 0 -74 -26 -74 -79z" />
    <glyph glyph-name="lozenge" unicode="&#x25ca;" horiz-adv-x="549" 
d="M252 7l-214 345l214 344h43l217 -344l-217 -345h-43zM419 351l-144 237l-142 -237l142 -237z" />
    <glyph glyph-name="lslash" unicode="&#x142;" horiz-adv-x="343" 
d="M121 743c0 0 15 7 50 7c33 0 50 -7 50 -7v-275l70 40c1 0 9 -7 20 -23c10 -19 11 -30 11 -31l-101 -59v-388s-17 -7 -50 -7c-35 0 -50 7 -50 7v330l-67 -38c-1 0 -9 7 -19 23c-11 19 -12 29 -12 31l98 56v334z" />
    <glyph glyph-name="m" unicode="m" horiz-adv-x="829" 
d="M446 463c41 49 95 73 164 73c95 0 149 -61 149 -151v-378s-17 -7 -50 -7c-35 0 -50 7 -50 7v360c0 56 -26 88 -87 88c-41 0 -81 -22 -107 -64v-384s-17 -7 -49 -7c-35 0 -50 7 -50 7v360c0 56 -26 88 -87 88c-41 0 -81 -24 -107 -63v-385s-17 -7 -49 -7
c-35 0 -50 7 -50 7v512s15 7 50 7c32 0 49 -7 49 -7v-45c35 40 86 62 144 62s103 -21 130 -73z" />
    <glyph glyph-name="minus" unicode="&#x2212;" horiz-adv-x="466" 
d="M387 292h-308s-6 14 -6 38s6 38 6 38h308s6 -14 6 -38s-6 -38 -6 -38z" />
    <glyph glyph-name="n" unicode="n" horiz-adv-x="549" 
d="M479 385v-378s-17 -7 -50 -7c-34 0 -50 7 -50 7v360c0 56 -29 88 -93 88c-44 0 -87 -24 -113 -64v-384s-18 -7 -50 -7c-35 0 -50 7 -50 7v512s15 7 50 7c32 0 50 -7 50 -7v-46c36 41 88 63 151 63c100 0 155 -61 155 -151z" />
    <glyph glyph-name="nacute" unicode="&#x144;" horiz-adv-x="549" 
d="M369 739l-125 -135c-24 4 -45 14 -57 31l95 141c32 4 72 -14 87 -37zM479 385v-378s-17 -7 -50 -7c-34 0 -50 7 -50 7v360c0 56 -29 88 -93 88c-44 0 -87 -24 -113 -64v-384s-18 -7 -50 -7c-35 0 -50 7 -50 7v512s15 7 50 7c32 0 50 -7 50 -7v-46c36 41 88 63 151 63
c100 0 155 -61 155 -151z" />
    <glyph glyph-name="napostrophe" unicode="&#x149;" horiz-adv-x="549" 
d="M114 582c-19 4 -34 14 -41 28c43 41 59 77 61 139c34 3 63 -3 83 -20c-11 -65 -51 -126 -103 -147zM479 385v-378s-17 -7 -50 -7c-34 0 -50 7 -50 7v360c0 56 -29 88 -93 88c-44 0 -87 -24 -113 -64v-384s-18 -7 -50 -7c-35 0 -50 7 -50 7v512s15 7 50 7
c32 0 50 -7 50 -7v-46c36 41 88 63 151 63c100 0 155 -61 155 -151z" />
    <glyph glyph-name="ncaron" unicode="&#x148;" horiz-adv-x="549" 
d="M282 685l95 64c19 -5 33 -22 42 -40l-126 -105h-23l-126 105c8 19 23 35 42 41zM73 519c0 0 15 7 50 7c32 0 50 -7 50 -7v-46c36 41 88 63 151 63c100 0 155 -61 155 -151v-378s-17 -7 -50 -7c-34 0 -50 7 -50 7v360c0 56 -29 88 -93 88c-44 0 -87 -24 -113 -64v-384
s-18 -7 -50 -7c-35 0 -50 7 -50 7v512z" />
    <glyph glyph-name="ncommaaccent" unicode="&#x146;" horiz-adv-x="549" 
d="M479 385v-378s-17 -7 -50 -7c-34 0 -50 7 -50 7v360c0 56 -29 88 -93 88c-44 0 -87 -24 -113 -64v-384s-18 -7 -50 -7c-35 0 -50 7 -50 7v512s15 7 50 7c32 0 50 -7 50 -7v-46c36 41 88 63 151 63c100 0 155 -61 155 -151zM261 -269l-36 24s32 36 36 100
c-22 2 -33 7 -33 7v94s18 7 52 7s52 -7 52 -7v-63c0 -108 -71 -162 -71 -162z" />
    <glyph glyph-name="nine" unicode="9" horiz-adv-x="552" 
d="M117 0c-11 28 -11 55 -1 80c143 15 230 73 261 208c-30 -11 -72 -24 -124 -24c-115 0 -207 60 -207 213c0 145 88 213 224 213c135 0 224 -80 224 -267c0 -280 -141 -408 -377 -423zM149 477c0 -98 50 -134 120 -134c51 0 97 18 121 28c1 18 2 36 2 56
c0 133 -50 186 -122 186s-121 -43 -121 -136z" />
    <glyph glyph-name="notequal" unicode="&#x2260;" horiz-adv-x="492" 
d="M204 162l-49 -88c-9 -4 -22 -6 -36 -6c-12 0 -23 3 -32 6l49 88h-70c-3 11 -6 23 -6 37c0 15 2 28 6 38h111l58 105h-169c-4 12 -6 25 -6 40c0 14 3 26 6 35h211l44 80c10 3 23 6 35 6c13 0 25 -3 34 -6l-45 -80h79c4 -9 6 -22 6 -35c0 -16 -2 -29 -6 -40h-120l-58 -105
h178c4 -10 6 -22 6 -36c0 -15 -2 -28 -6 -39h-220z" />
    <glyph glyph-name="ntilde" unicode="&#xf1;" horiz-adv-x="549" 
d="M127 667c0 0 30 49 91 49c57 0 71 -33 112 -33c31 0 47 28 47 28c19 -8 34 -27 38 -46c0 0 -31 -49 -92 -49c-57 0 -71 33 -112 33c-31 0 -47 -28 -47 -28c-21 11 -34 26 -37 46zM173 473c36 41 88 63 151 63c100 0 155 -61 155 -151v-378s-17 -7 -50 -7
c-34 0 -50 7 -50 7v360c0 56 -29 88 -93 88c-44 0 -87 -24 -113 -64v-384s-18 -7 -50 -7c-35 0 -50 7 -50 7v512s15 7 50 7c32 0 50 -7 50 -7v-46z" />
    <glyph glyph-name="_300" horiz-adv-x="0" 
 />
    <glyph glyph-name="o" unicode="o" horiz-adv-x="544" 
d="M50 263c0 198 85 273 222 273c138 0 222 -75 222 -273s-85 -273 -222 -273s-222 75 -222 273zM391 263c0 154 -46 196 -119 196s-120 -42 -120 -196s47 -196 120 -196s119 42 119 196z" />
    <glyph glyph-name="oacute" unicode="&#xf3;" horiz-adv-x="544" 
d="M183 635l95 141c32 4 72 -14 87 -37l-125 -135c-24 4 -45 14 -57 31zM50 263c0 198 85 273 222 273c138 0 222 -75 222 -273s-85 -273 -222 -273s-222 75 -222 273zM391 263c0 154 -46 196 -119 196s-120 -42 -120 -196s47 -196 120 -196s119 42 119 196z" />
    <glyph glyph-name="obreve" unicode="&#x14f;" horiz-adv-x="544" 
d="M271 692c67 0 107 32 107 32c21 -7 37 -26 43 -47c0 0 -50 -63 -150 -63s-150 63 -150 63c6 21 23 40 43 47c0 0 40 -32 107 -32zM50 263c0 198 85 273 222 273c138 0 222 -75 222 -273s-85 -273 -222 -273s-222 75 -222 273zM391 263c0 154 -46 196 -119 196
s-120 -42 -120 -196s47 -196 120 -196s119 42 119 196z" />
    <glyph glyph-name="ocircumflex" unicode="&#xf4;" horiz-adv-x="544" 
d="M280 756l135 -110c-10 -20 -25 -37 -45 -44l-103 69l-102 -68c-20 7 -35 23 -45 43l135 110h25zM50 263c0 198 85 273 222 273c138 0 222 -75 222 -273s-85 -273 -222 -273s-222 75 -222 273zM391 263c0 154 -46 196 -119 196s-120 -42 -120 -196s47 -196 120 -196
s119 42 119 196z" />
    <glyph glyph-name="odieresis" unicode="&#xf6;" horiz-adv-x="544" 
d="M137 705c0 0 15 6 46 6c29 0 45 -6 45 -6v-82s-16 -5 -45 -5c-31 0 -46 5 -46 5v82zM307 705c0 0 14 6 45 6c30 0 46 -6 46 -6v-82s-16 -5 -46 -5c-31 0 -45 5 -45 5v82zM50 263c0 198 85 273 222 273c138 0 222 -75 222 -273s-85 -273 -222 -273s-222 75 -222 273z
M391 263c0 154 -46 196 -119 196s-120 -42 -120 -196s47 -196 120 -196s119 42 119 196z" />
    <glyph glyph-name="oe" unicode="&#x153;" horiz-adv-x="815" 
d="M760 232h-291c9 -119 47 -161 127 -161c69 0 117 27 117 27c18 -14 28 -40 30 -66c0 0 -53 -42 -163 -42c-71 0 -125 29 -155 85c-33 -56 -84 -85 -154 -85c-136 0 -221 75 -221 273s85 273 221 273c70 0 123 -26 154 -88c33 61 86 88 151 88c121 0 195 -68 195 -201
c0 -63 -11 -103 -11 -103zM271 459c-72 0 -118 -42 -118 -196s46 -196 118 -196s108 42 108 197c0 154 -36 195 -108 195zM671 348c0 59 -22 109 -95 109c-62 0 -98 -43 -106 -154h198c1 8 3 24 3 45z" />
    <glyph glyph-name="ogonek" unicode="&#x2db;" horiz-adv-x="283" 
d="M169 -165c11 -9 16 -23 15 -39c0 0 -29 -18 -67 -18c-56 0 -99 34 -99 93c0 68 58 115 162 119l8 -20c-59 -17 -104 -41 -104 -90c0 -35 24 -51 53 -51c18 0 32 6 32 6z" />
    <glyph glyph-name="ograve" unicode="&#xf2;" horiz-adv-x="544" 
d="M218 776l94 -141c-12 -17 -33 -27 -57 -31l-125 135c15 23 55 41 88 37zM50 263c0 198 85 273 222 273c138 0 222 -75 222 -273s-85 -273 -222 -273s-222 75 -222 273zM391 263c0 154 -46 196 -119 196s-120 -42 -120 -196s47 -196 120 -196s119 42 119 196z" />
    <glyph glyph-name="ohungarumlaut" unicode="&#x151;" horiz-adv-x="544" 
d="M162 629l86 117c30 3 67 -11 81 -30l-115 -112c-22 3 -41 11 -52 25zM313 629l85 117c31 3 68 -11 82 -30l-115 -112c-22 3 -42 11 -52 25zM50 263c0 198 85 273 222 273c138 0 222 -75 222 -273s-85 -273 -222 -273s-222 75 -222 273zM391 263c0 154 -46 196 -119 196
s-120 -42 -120 -196s47 -196 120 -196s119 42 119 196z" />
    <glyph glyph-name="omacron" unicode="&#x14d;" horiz-adv-x="544" 
d="M146 693h250c7 -17 6 -41 0 -60h-250c-5 21 -5 43 0 60zM50 263c0 198 85 273 222 273c138 0 222 -75 222 -273s-85 -273 -222 -273s-222 75 -222 273zM391 263c0 154 -46 196 -119 196s-120 -42 -120 -196s47 -196 120 -196s119 42 119 196z" />
    <glyph glyph-name="one" unicode="1" horiz-adv-x="414" 
d="M30 539c83 22 143 64 191 134c0 0 15 7 49 7c33 0 49 -7 49 -7v-666s-15 -7 -50 -7c-32 0 -51 7 -51 7v410c0 53 2 97 5 130c-47 -47 -109 -76 -169 -91c-20 19 -30 51 -24 83z" />
    <glyph glyph-name="oslash" unicode="&#xf8;" horiz-adv-x="545" 
d="M384 512l37 61c22 -1 45 -15 58 -28l-43 -72c38 -43 59 -111 59 -210c0 -198 -85 -273 -222 -273c-43 0 -80 8 -111 23l-36 -61c-24 1 -45 12 -59 28l43 72c-39 44 -60 111 -60 211c0 198 85 273 223 273c43 0 80 -7 111 -24zM341 439c-19 14 -42 20 -68 20
c-74 0 -121 -42 -121 -196c0 -50 7 -86 19 -112zM376 374l-170 -288c18 -14 41 -19 67 -19c73 0 119 42 119 196c0 49 -6 85 -16 111z" />
    <glyph glyph-name="oslashacute" unicode="&#x1ff;" horiz-adv-x="545" 
d="M367 739l-125 -135c-24 4 -45 14 -57 31l95 141c32 4 72 -14 87 -37zM384 512l37 61c22 -1 45 -15 58 -28l-43 -72c38 -43 59 -111 59 -210c0 -198 -85 -273 -222 -273c-43 0 -80 8 -111 23l-36 -61c-24 1 -45 12 -59 28l43 72c-39 44 -60 111 -60 211
c0 198 85 273 223 273c43 0 80 -7 111 -24zM341 439c-19 14 -42 20 -68 20c-74 0 -121 -42 -121 -196c0 -50 7 -86 19 -112zM376 374l-170 -288c18 -14 41 -19 67 -19c73 0 119 42 119 196c0 49 -6 85 -16 111z" />
    <glyph glyph-name="otilde" unicode="&#xf5;" horiz-adv-x="544" 
d="M123 664c0 0 30 49 91 49c57 0 71 -33 112 -33c31 0 47 28 47 28c19 -8 34 -27 37 -46c0 0 -30 -49 -91 -49c-57 0 -71 33 -112 33c-31 0 -47 -28 -47 -28c-22 11 -34 26 -37 46zM50 263c0 198 85 273 222 273c138 0 222 -75 222 -273s-85 -273 -222 -273
s-222 75 -222 273zM391 263c0 154 -46 196 -119 196s-120 -42 -120 -196s47 -196 120 -196s119 42 119 196z" />
    <glyph glyph-name="p" unicode="p" horiz-adv-x="557" 
d="M173 471c28 41 73 65 144 65c114 0 188 -69 188 -273s-74 -273 -188 -273c-71 0 -116 24 -144 65v-280s-17 -6 -51 -6c-33 0 -49 6 -49 6v744s16 7 49 7c34 0 51 -7 51 -7v-48zM402 263c0 149 -40 191 -120 191c-70 0 -109 -58 -109 -126v-128c0 -69 39 -128 109 -128
c80 0 120 42 120 191z" />
    <glyph glyph-name="parenleft" unicode="(" horiz-adv-x="293" 
d="M230 800c24 -13 32 -29 32 -29s-112 -177 -112 -451s112 -451 112 -451s-8 -17 -31 -29c-23 -11 -43 -11 -43 -11s-136 214 -136 491s136 491 136 491s19 1 42 -11z" />
    <glyph glyph-name="parenright" unicode=")" horiz-adv-x="294" 
d="M144 320c0 274 -113 451 -113 451s9 16 33 29c23 12 42 11 42 11s136 -214 136 -491s-136 -491 -136 -491s-20 0 -43 11c-23 12 -32 29 -32 29s113 177 113 451z" />
    <glyph glyph-name="partialdiff" unicode="&#x2202;" horiz-adv-x="557" 
d="M135 664c-8 32 -5 63 12 86c255 -25 351 -164 351 -433c0 -251 -86 -327 -225 -327c-137 0 -223 71 -223 262s86 262 213 262c49 0 87 -15 115 -36c-29 101 -100 164 -243 186zM391 388c-23 31 -68 49 -120 49c-72 0 -118 -36 -118 -185c0 -147 48 -185 121 -185
c82 0 121 53 121 185c0 52 0 94 -4 136z" />
    <glyph glyph-name="period" unicode="." horiz-adv-x="234" 
d="M169 101v-94s-18 -7 -52 -7c-36 0 -52 7 -52 7v94s16 7 52 7c34 0 52 -7 52 -7z" />
    <glyph glyph-name="pi" unicode="&#x3c0;" horiz-adv-x="616" 
d="M218 526h360c5 -12 8 -27 8 -41s-3 -29 -8 -41h-70v-207c0 -151 29 -215 29 -215c-14 -15 -41 -22 -67 -22c-10 0 -29 1 -37 5c0 0 -25 54 -25 231v208h-204v-437s-17 -7 -51 -7c-33 0 -49 7 -49 7v431c-44 -5 -67 -11 -67 -11c-5 12 -8 26 -8 40c0 15 2 30 8 42
c0 0 57 17 181 17z" />
    <glyph glyph-name="product" unicode="&#x220f;" horiz-adv-x="713" 
d="M618 693v-892s-16 -8 -46 -8c-29 0 -45 8 -45 8v806h-341v-806s-15 -8 -46 -8c-29 0 -45 8 -45 8v892h523z" />
    <glyph glyph-name="q" unicode="q" horiz-adv-x="557" 
d="M384 -225v280c-29 -41 -74 -65 -144 -65c-114 0 -188 69 -188 273s74 273 188 273c70 0 115 -24 144 -65v48s15 7 49 7c33 0 51 -7 51 -7v-744s-16 -6 -49 -6c-34 0 -51 6 -51 6zM155 263c0 -149 40 -191 120 -191c68 0 107 57 109 123v133c0 68 -40 126 -109 126
c-80 0 -120 -42 -120 -191z" />
    <glyph glyph-name="question" unicode="?" horiz-adv-x="436" 
d="M396 516c0 -196 -179 -160 -179 -321c0 0 -11 -10 -38 -10c-24 0 -39 10 -39 10c0 214 153 168 153 316c0 69 -43 96 -114 96c-72 0 -114 -23 -114 -23c-23 16 -34 42 -31 71c0 0 59 35 160 35c117 0 202 -55 202 -174zM231 101v-94s-18 -7 -52 -7c-36 0 -52 7 -52 7v94
s16 7 52 7c34 0 52 -7 52 -7z" />
    <glyph glyph-name="r" unicode="r" horiz-adv-x="394" 
d="M173 450c38 63 82 85 122 85c37 0 65 -11 87 -25c-3 -36 -17 -62 -44 -84c-19 14 -39 21 -62 21c-39 0 -77 -30 -103 -76v-364s-17 -7 -50 -7c-35 0 -50 7 -50 7v512s15 7 50 7c33 0 50 -7 50 -7v-69z" />
    <glyph glyph-name="racute" unicode="&#x155;" horiz-adv-x="394" 
d="M137 635l95 141c32 4 72 -14 87 -37l-125 -135c-24 4 -45 14 -57 31zM173 450c38 63 82 85 122 85c37 0 65 -11 87 -25c-3 -36 -17 -62 -44 -84c-19 14 -39 21 -62 21c-39 0 -77 -29 -103 -76v-364s-17 -7 -50 -7c-35 0 -50 7 -50 7v512s15 7 50 7c33 0 50 -7 50 -7v-69z
" />
    <glyph glyph-name="radical" unicode="&#x221a;" horiz-adv-x="644" 
d="M310 -15l-156 361l-102 -44c-18 12 -31 38 -27 64l175 77l144 -341l213 628c25 4 52 -2 69 -17l-245 -728h-71z" />
    <glyph glyph-name="rcaron" unicode="&#x159;" horiz-adv-x="394" 
d="M202 683l96 64c19 -6 33 -22 42 -41l-126 -104h-23l-127 104c9 19 23 36 42 42zM173 450c40 61 82 85 122 85c37 0 65 -11 87 -25c-3 -36 -17 -62 -44 -84c-19 14 -39 21 -62 21c-39 0 -75 -31 -103 -76v-364s-17 -7 -50 -7c-35 0 -50 7 -50 7v512s15 7 50 7
c33 0 50 -7 50 -7v-69z" />
    <glyph glyph-name="rcommaaccent" unicode="&#x157;" horiz-adv-x="394" 
d="M173 450c40 61 82 85 122 85c37 0 65 -11 87 -25c-3 -36 -17 -62 -44 -84c-19 14 -39 21 -62 21c-39 0 -75 -31 -103 -76v-364s-17 -7 -50 -7c-35 0 -50 7 -50 7v512s15 7 50 7c33 0 50 -7 50 -7v-69zM72 -47c0 0 18 7 52 7c33 0 51 -7 51 -7v-62
c0 -108 -71 -163 -71 -163l-36 25s32 35 37 99c-23 2 -33 7 -33 7v94z" />
    <glyph glyph-name="ring" unicode="&#x2da;" horiz-adv-x="344" 
d="M170 503c-67 0 -119 40 -119 112s59 110 120 110c60 0 121 -37 121 -110c0 -72 -56 -112 -122 -112zM234 615c0 30 -21 59 -64 59c-42 0 -62 -30 -62 -59c0 -30 20 -60 62 -60c43 0 64 31 64 60z" />
    <glyph glyph-name="s" unicode="s" horiz-adv-x="446" 
d="M50 379c0 94 61 157 188 157c98 0 141 -27 141 -27c0 -26 -9 -55 -26 -71c0 0 -48 16 -105 16c-68 0 -102 -25 -102 -72c0 -49 63 -61 126 -82c65 -21 133 -52 133 -150c0 -101 -63 -160 -190 -160c-105 0 -167 36 -167 36c0 29 9 57 27 74c0 0 65 -25 135 -25
c61 0 96 23 96 72c0 55 -55 67 -114 84c-68 20 -142 49 -142 148z" />
    <glyph glyph-name="sacute" unicode="&#x15b;" horiz-adv-x="446" 
d="M329 739l-125 -135c-24 4 -45 14 -57 31l95 141c32 4 72 -14 87 -37zM50 379c0 94 61 157 188 157c98 0 141 -27 141 -27c0 -26 -9 -55 -26 -71c0 0 -48 16 -105 16c-68 0 -102 -25 -102 -72s56 -60 117 -78c68 -21 142 -51 142 -154c0 -101 -63 -160 -190 -160
c-105 0 -167 36 -167 36c0 29 9 57 27 74c0 0 65 -25 135 -25c61 0 96 23 96 72c0 56 -56 68 -116 85c-67 20 -140 48 -140 147z" />
    <glyph glyph-name="scaron" unicode="&#x161;" horiz-adv-x="446" 
d="M218 604l-125 102c9 18 23 34 42 40l95 -64l94 64c19 -6 33 -22 42 -40l-124 -102h-24zM50 379c0 94 61 157 188 157c98 0 141 -27 141 -27c0 -26 -9 -55 -26 -71c0 0 -48 16 -105 16c-68 0 -102 -25 -102 -72c0 -46 54 -60 112 -77c70 -21 147 -50 147 -155
c0 -101 -63 -160 -190 -160c-105 0 -167 36 -167 36c0 29 9 57 27 74c0 0 65 -25 135 -25c61 0 96 23 96 72c0 55 -54 67 -112 84c-68 20 -144 48 -144 148z" />
    <glyph glyph-name="scedilla" unicode="&#x15f;" horiz-adv-x="446" 
d="M50 379c0 94 61 157 188 157c98 0 141 -27 141 -27c0 -26 -9 -55 -26 -71c0 0 -48 16 -105 16c-68 0 -102 -25 -102 -72s58 -60 117 -79c68 -20 142 -50 142 -153c0 -93 -54 -151 -162 -159l-8 -46c74 0 102 -38 102 -91c0 -64 -45 -96 -119 -96c-57 0 -89 22 -89 22
c0 18 8 33 20 42c10 -5 37 -15 65 -15c34 0 61 14 61 50c0 26 -17 44 -54 44h-36l-12 13l14 77c-88 6 -139 35 -139 35c0 29 9 57 27 74c0 0 65 -25 135 -25c61 0 96 23 96 72c0 55 -55 67 -114 84c-68 20 -142 49 -142 148z" />
    <glyph glyph-name="scircumflex" unicode="&#x15d;" horiz-adv-x="446" 
d="M242 745l136 -110c-10 -20 -25 -37 -46 -43l-102 68l-102 -68c-21 7 -35 23 -45 43l134 110h25zM50 379c0 94 61 157 188 157c98 0 141 -27 141 -27c0 -26 -9 -55 -26 -71c0 0 -48 16 -105 16c-68 0 -102 -25 -102 -72c0 -49 64 -61 127 -82c65 -21 132 -52 132 -150
c0 -101 -63 -160 -190 -160c-105 0 -167 36 -167 36c0 29 9 57 27 74c0 0 65 -25 135 -25c61 0 96 23 96 72c0 55 -54 67 -113 84c-68 20 -143 48 -143 148z" />
    <glyph glyph-name="scommaaccent" unicode="&#x219;" horiz-adv-x="446" 
d="M50 379c0 94 61 157 188 157c98 0 141 -27 141 -27c0 -26 -9 -55 -26 -71c0 0 -48 16 -105 16c-68 0 -102 -25 -102 -72c0 -48 58 -60 119 -79c67 -21 140 -50 140 -153c0 -101 -63 -160 -190 -160c-105 0 -167 36 -167 36c0 29 9 57 27 74c0 0 65 -25 135 -25
c61 0 96 23 96 72c0 55 -55 67 -115 85c-67 19 -141 48 -141 147zM203 -285l-36 25s32 35 36 100c-22 1 -33 6 -33 6v95s18 6 52 6s52 -6 52 -6v-63c0 -108 -71 -163 -71 -163z" />
    <glyph glyph-name="seven" unicode="7" horiz-adv-x="496" 
d="M42 680h414c6 -18 7 -37 6 -56c-7 -235 -246 -298 -246 -619c-13 -3 -30 -5 -48 -5s-36 2 -49 5c0 336 210 406 243 586h-320s-8 17 -8 45c0 29 8 44 8 44z" />
    <glyph glyph-name="six" unicode="6" horiz-adv-x="552" 
d="M436 680c10 -23 10 -55 0 -80c-143 -16 -230 -74 -261 -208c30 11 72 24 124 24c115 0 207 -60 207 -213c0 -145 -88 -213 -224 -213c-135 0 -224 80 -224 267c0 280 142 408 378 423zM403 203c0 98 -50 134 -120 134c-52 0 -97 -19 -121 -29c-2 -17 -2 -36 -2 -55
c0 -133 50 -186 122 -186s121 43 121 136z" />
    <glyph glyph-name="slash" unicode="/" horiz-adv-x="475" 
d="M21 -40l334 783s18 7 49 7c33 0 50 -7 50 -7l-334 -783s-18 -7 -50 -7s-49 7 -49 7z" />
    <glyph glyph-name="space" unicode=" " horiz-adv-x="225" 
 />
    <glyph glyph-name="summation" unicode="&#x2211;" horiz-adv-x="595" 
d="M33 -157l227 418l-210 388v45h493s7 -16 7 -42c0 -24 -7 -41 -7 -41h-370l190 -351l-205 -382h391s7 -16 7 -43c0 -25 -7 -42 -7 -42h-516v50z" />
    <glyph glyph-name="t" unicode="t" horiz-adv-x="379" 
d="M207 451v-262c0 -91 29 -118 100 -118c20 0 42 4 42 4s7 -17 7 -40s-5 -36 -5 -36c-18 -5 -45 -9 -72 -9c-123 0 -172 67 -172 194v267h-77s-6 14 -6 37c0 25 6 38 6 38h77v91c26 16 63 23 100 20v-111h130s6 -13 6 -37c0 -23 -6 -38 -6 -38h-130z" />
    <glyph glyph-name="tbar" unicode="&#x167;" horiz-adv-x="380" 
d="M308 71c20 0 42 4 42 4s7 -17 7 -40s-5 -36 -5 -36c-18 -5 -45 -9 -72 -9c-123 0 -172 67 -172 194v69h-67c-5 21 -5 43 0 62h67v136h-77s-6 14 -6 37c0 25 6 38 6 38h77v91c26 16 63 23 100 20v-111h130s6 -13 6 -37c0 -23 -6 -38 -6 -38h-130v-136h121
c6 -20 5 -43 0 -62h-121v-64c0 -91 29 -118 100 -118z" />
    <glyph glyph-name="tcaron" unicode="&#x165;" horiz-adv-x="379" 
d="M310 582c-19 4 -34 14 -41 28c43 41 59 77 61 139c34 3 63 -3 83 -20c-11 -65 -51 -126 -103 -147zM207 451v-262c0 -91 29 -118 100 -118c20 0 42 4 42 4s7 -17 7 -40s-5 -36 -5 -36c-18 -5 -45 -9 -72 -9c-123 0 -172 67 -172 194v267h-77s-6 14 -6 37c0 25 6 38 6 38
h77v91c26 16 63 23 100 20v-111h130s6 -13 6 -37c0 -23 -6 -38 -6 -38h-130z" />
    <glyph glyph-name="thorn" unicode="&#xfe;" horiz-adv-x="557" 
d="M73 743c0 0 16 7 49 7c34 0 51 -7 51 -7v-272c28 41 73 65 144 65c114 0 188 -69 188 -273s-74 -273 -188 -273c-71 0 -116 24 -144 65v-280s-17 -6 -51 -6c-33 0 -49 6 -49 6v968zM402 263c0 149 -40 191 -120 191c-70 0 -109 -58 -109 -126v-128
c0 -69 39 -128 109 -128c80 0 120 42 120 191z" />
    <glyph glyph-name="three" unicode="3" horiz-adv-x="525" 
d="M468 182c0 -115 -67 -192 -247 -192c-110 0 -174 35 -174 35c-1 27 8 57 25 74c8 -3 68 -23 142 -23c103 0 152 36 152 119c0 90 -57 120 -141 120h-74c-10 26 -10 56 0 80h74c74 0 120 32 120 105s-44 106 -129 106c-76 0 -129 -22 -129 -22c-23 16 -34 42 -31 71
c0 0 65 35 169 35c139 0 221 -63 221 -177c0 -71 -23 -127 -89 -155c78 -28 111 -89 111 -176z" />
    <glyph glyph-name="tilde" unicode="&#x2dc;" horiz-adv-x="327" 
d="M226 685c31 0 48 27 48 27c19 -8 33 -26 37 -46c0 0 -31 -48 -91 -48c-58 0 -71 33 -112 33c-31 0 -48 -28 -48 -28c-21 11 -33 26 -37 46c0 0 31 49 91 49c58 0 71 -33 112 -33z" />
    <glyph glyph-name="two" unicode="2" horiz-adv-x="532" 
d="M102 582c-21 17 -32 42 -28 72c0 0 78 36 185 36c121 0 218 -51 218 -183c0 -125 -72 -169 -191 -241c-59 -37 -141 -72 -141 -154c0 -10 1 -18 2 -22h312c7 -11 10 -27 10 -45c0 -17 -4 -33 -10 -45h-405s-6 32 -6 67c0 156 101 212 193 272c90 60 133 90 133 165
c0 61 -40 103 -131 103c-73 0 -141 -25 -141 -25z" />
    <glyph glyph-name="u" unicode="u" horiz-adv-x="548" 
d="M69 141v378s17 7 50 7c34 0 50 -7 50 -7v-360c0 -56 29 -88 93 -88c44 0 86 23 113 64v384s18 7 50 7c35 0 50 -7 50 -7v-512s-15 -7 -50 -7c-32 0 -50 7 -50 7v46c-36 -41 -89 -63 -151 -63c-100 0 -155 61 -155 151z" />
    <glyph glyph-name="uacute" unicode="&#xfa;" horiz-adv-x="548" 
d="M375 739l-125 -135c-24 4 -45 14 -57 31l95 141c32 4 72 -14 87 -37zM69 141v378s17 7 50 7c34 0 50 -7 50 -7v-360c0 -56 29 -88 93 -88c44 0 86 23 113 64v384s18 7 50 7c35 0 50 -7 50 -7v-512s-15 -7 -50 -7c-32 0 -50 7 -50 7v46c-36 -41 -89 -63 -151 -63
c-100 0 -155 61 -155 151z" />
    <glyph glyph-name="ubreve" unicode="&#x16d;" horiz-adv-x="548" 
d="M272 691c67 0 107 32 107 32c20 -7 36 -26 43 -47c0 0 -50 -64 -150 -64c-101 0 -151 64 -151 64c7 21 23 40 44 47c0 0 40 -32 107 -32zM375 519c0 0 18 7 50 7c35 0 50 -7 50 -7v-512s-15 -7 -50 -7c-32 0 -50 7 -50 7v46c-36 -41 -89 -63 -151 -63
c-100 0 -155 61 -155 151v378s17 7 50 7c34 0 50 -7 50 -7v-360c0 -56 29 -88 93 -88c44 0 86 23 113 64v384z" />
    <glyph glyph-name="ucircumflex" unicode="&#xfb;" horiz-adv-x="548" 
d="M287 756l135 -110c-10 -20 -25 -37 -45 -44l-102 69l-102 -68c-21 7 -36 23 -46 43l135 110h25zM69 141v378s17 7 50 7c34 0 50 -7 50 -7v-360c0 -56 29 -88 93 -88c44 0 86 23 113 64v384s18 7 50 7c35 0 50 -7 50 -7v-512s-15 -7 -50 -7c-32 0 -50 7 -50 7v46
c-36 -41 -89 -63 -151 -63c-100 0 -155 61 -155 151z" />
    <glyph glyph-name="udieresis" unicode="&#xfc;" horiz-adv-x="548" 
d="M143 706c0 0 14 6 45 6c30 0 46 -6 46 -6v-82s-16 -6 -46 -6c-31 0 -45 6 -45 6v82zM313 706c0 0 14 6 45 6c30 0 46 -6 46 -6v-82s-16 -6 -46 -6c-31 0 -45 6 -45 6v82zM375 519c0 0 18 7 50 7c35 0 50 -7 50 -7v-512s-15 -7 -50 -7c-32 0 -50 7 -50 7v46
c-36 -41 -89 -63 -151 -63c-100 0 -155 61 -155 151v378s17 7 50 7c34 0 50 -7 50 -7v-360c0 -56 29 -88 93 -88c44 0 86 23 113 64v384z" />
    <glyph glyph-name="ugrave" unicode="&#xf9;" horiz-adv-x="548" 
d="M239 776l95 -141c-12 -17 -33 -27 -57 -31l-125 135c14 23 55 41 87 37zM375 519c0 0 18 7 50 7c35 0 50 -7 50 -7v-512s-15 -7 -50 -7c-32 0 -50 7 -50 7v46c-36 -41 -89 -63 -151 -63c-100 0 -155 61 -155 151v378s17 7 50 7c34 0 50 -7 50 -7v-360
c0 -56 29 -88 93 -88c44 0 86 23 113 64v384z" />
    <glyph glyph-name="uhungarumlaut" unicode="&#x171;" horiz-adv-x="548" 
d="M317 727l-115 -123c-22 3 -41 12 -52 29l86 128c31 4 67 -12 81 -34zM469 727l-115 -123c-22 3 -42 12 -53 29l86 128c31 4 67 -12 82 -34zM69 141v378s17 7 50 7c34 0 50 -7 50 -7v-360c0 -56 29 -88 93 -88c44 0 86 23 113 64v384s18 7 50 7c35 0 50 -7 50 -7v-512
s-15 -7 -50 -7c-32 0 -50 7 -50 7v46c-36 -41 -89 -63 -151 -63c-100 0 -155 61 -155 151z" />
    <glyph glyph-name="umacron" unicode="&#x16b;" horiz-adv-x="548" 
d="M154 699h241c6 -17 5 -38 0 -57h-241c-4 20 -4 41 0 57zM375 519c0 0 18 7 50 7c35 0 50 -7 50 -7v-512s-15 -7 -50 -7c-32 0 -50 7 -50 7v46c-36 -41 -89 -63 -151 -63c-100 0 -155 61 -155 151v378s17 7 50 7c34 0 50 -7 50 -7v-360c0 -56 29 -88 93 -88
c44 0 86 23 113 64v384z" />
    <glyph glyph-name="uni00AD" unicode="&#xad;" horiz-adv-x="250" 
 />
    <glyph glyph-name="Tcommaaccent" unicode="&#x162;" horiz-adv-x="547" 
d="M34 720h479s8 -18 8 -43c0 -26 -8 -45 -8 -45h-186v-625s-18 -7 -51 -7c-36 0 -51 7 -51 7v625h-191s-8 17 -8 44c0 25 8 44 8 44zM259 -278l-36 25s32 35 36 100c-22 1 -33 6 -33 6v95s18 6 52 6s52 -6 52 -6v-63c0 -108 -71 -163 -71 -163z" />
    <glyph glyph-name="Tcommaaccent" unicode="&#x21a;" horiz-adv-x="547" 
d="M34 720h479s8 -18 8 -43c0 -26 -8 -45 -8 -45h-186v-625s-18 -7 -51 -7c-36 0 -51 7 -51 7v625h-191s-8 17 -8 44c0 25 8 44 8 44zM259 -278l-36 25s32 35 36 100c-22 1 -33 6 -33 6v95s18 6 52 6s52 -6 52 -6v-63c0 -108 -71 -163 -71 -163z" />
    <glyph glyph-name="tcommaaccent" unicode="&#x163;" horiz-adv-x="378" 
d="M207 451v-262c0 -91 29 -118 100 -118c20 0 42 4 42 4s7 -17 7 -40s-5 -36 -5 -36c-18 -5 -45 -9 -72 -9c-123 0 -172 67 -172 194v267h-77s-6 14 -6 37c0 25 6 38 6 38h77v91c26 16 63 23 100 20v-111h130s6 -13 6 -37c0 -23 -6 -38 -6 -38h-130zM231 -285l-36 25
s32 35 36 100c-22 1 -33 6 -33 6v95s18 6 52 6s52 -6 52 -6v-63c0 -108 -71 -163 -71 -163z" />
    <glyph glyph-name="tcommaaccent" unicode="&#x21b;" horiz-adv-x="378" 
d="M207 451v-262c0 -91 29 -118 100 -118c20 0 42 4 42 4s7 -17 7 -40s-5 -36 -5 -36c-18 -5 -45 -9 -72 -9c-123 0 -172 67 -172 194v267h-77s-6 14 -6 37c0 25 6 38 6 38h77v91c26 16 63 23 100 20v-111h130s6 -13 6 -37c0 -23 -6 -38 -6 -38h-130zM231 -285l-36 25
s32 35 36 100c-22 1 -33 6 -33 6v95s18 6 52 6s52 -6 52 -6v-63c0 -108 -71 -163 -71 -163z" />
    <glyph glyph-name="uni0401" unicode="&#x401;" horiz-adv-x="555" 
d="M170 875c0 0 15 6 46 6c30 0 45 -6 45 -6v-81s-15 -6 -45 -6c-31 0 -46 6 -46 6v81zM340 875c0 0 15 6 46 6c29 0 45 -6 45 -6v-81s-16 -6 -45 -6c-31 0 -46 6 -46 6v81zM89 720h405c5 -12 8 -25 8 -39c0 -16 -2 -31 -8 -44h-304v-232h254c5 -12 8 -26 8 -40
s-2 -29 -8 -42h-254v-240h314c5 -13 8 -26 8 -40c0 -15 -2 -29 -8 -43h-415v720z" />
    <glyph glyph-name="uni0410" unicode="&#x410;" horiz-adv-x="654" 
d="M267 713c0 0 25 7 60 7c38 0 60 -7 60 -7l251 -706s-18 -7 -55 -7c-34 0 -50 7 -50 7l-62 176h-296l-63 -176s-17 -7 -49 -7c-31 0 -47 7 -47 7zM325 609h-3s-9 -40 -26 -90l-92 -253h238l-91 253c-18 52 -26 90 -26 90z" />
    <glyph glyph-name="uni0411" unicode="&#x411;" horiz-adv-x="619" 
d="M89 720h414s8 -16 8 -44c0 -26 -8 -44 -8 -44h-312v-208h173c130 0 213 -84 213 -212c0 -127 -83 -212 -213 -212h-275v720zM191 345v-266h154c85 0 127 52 127 133c0 82 -42 133 -127 133h-154z" />
    <glyph glyph-name="uni0412" unicode="&#x412;" horiz-adv-x="628" 
d="M89 720h268c129 0 196 -84 196 -198c0 -83 -44 -129 -80 -152c43 -22 101 -68 101 -167c0 -121 -77 -203 -213 -203h-272v720zM191 403h144c81 0 114 50 114 119c0 71 -32 119 -115 119h-143v-238zM191 79h151c90 0 127 46 127 124c0 84 -40 124 -128 124h-150v-248z" />
    <glyph glyph-name="uni0413" unicode="&#x413;" horiz-adv-x="507" 
d="M89 720h388s8 -15 8 -43c0 -25 -8 -45 -8 -45h-286v-625s-18 -7 -52 -7c-33 0 -50 7 -50 7v713z" />
    <glyph glyph-name="uni0414" unicode="&#x414;" horiz-adv-x="698" 
d="M578 83h78v-221c-13 -4 -28 -8 -45 -8c-18 0 -34 3 -47 8v138h-452v-138c-13 -4 -28 -7 -46 -7c-17 0 -33 3 -45 7v221h55c43 38 69 126 81 284l27 353h394v-637zM274 643l-20 -282c-9 -125 -30 -219 -62 -278h285v560h-203z" />
    <glyph glyph-name="uni0415" unicode="&#x415;" 
d="M89 720h406c4 -12 8 -25 8 -39c0 -16 -3 -31 -8 -44h-304v-230h254c4 -13 8 -26 8 -40c0 -15 -3 -29 -8 -43h-254v-241h314c4 -13 8 -26 8 -40c0 -15 -3 -29 -8 -43h-416v720z" />
    <glyph glyph-name="uni0416" unicode="&#x416;" horiz-adv-x="924" 
d="M777 713c13 3 31 7 52 7c20 0 39 -4 53 -7l-214 -327l245 -379s-20 -7 -60 -7c-37 0 -59 7 -59 7l-211 326h-70v-326s-15 -7 -51 -7c-32 0 -50 7 -50 7v326h-72l-211 -326s-21 -7 -58 -7c-40 0 -60 7 -60 7l245 378l-214 328c14 3 33 7 54 7c20 0 38 -4 51 -7l195 -298
h70v298s17 7 51 7c33 0 50 -7 50 -7v-298h69z" />
    <glyph glyph-name="uni0417" unicode="&#x417;" horiz-adv-x="553" 
d="M46 695c0 0 74 35 189 35c158 0 241 -70 241 -192c0 -92 -43 -144 -90 -166v-3c55 -22 111 -75 111 -179c0 -118 -78 -200 -272 -200c-126 0 -189 33 -189 33c-1 30 10 60 29 78c32 -10 86 -22 146 -22c118 0 181 41 181 122c0 99 -69 124 -165 124h-68
c-10 26 -10 60 0 84h68c85 0 146 26 146 118c0 82 -61 117 -147 117c-85 0 -148 -23 -148 -23c-23 17 -33 44 -32 74z" />
    <glyph glyph-name="uni0418" unicode="&#x418;" horiz-adv-x="691" 
d="M485 713c0 0 18 7 59 7s58 -7 58 -7v-706s-16 -7 -50 -7c-37 0 -51 7 -51 7v328c0 169 8 243 8 243h-3s-18 -52 -93 -199l-202 -372c-1 0 -22 -7 -62 -7c-44 0 -60 7 -60 7v706s17 7 50 7c35 0 52 -7 52 -7v-330c0 -150 -7 -253 -7 -253h3c13 45 54 130 97 214z" />
    <glyph glyph-name="uni0419" unicode="&#x419;" horiz-adv-x="691" 
d="M350 886c72 0 118 36 118 36c22 -7 39 -29 46 -52c0 0 -56 -67 -164 -67c-107 0 -164 67 -164 67c8 23 26 45 47 52c0 0 46 -36 117 -36zM485 713c0 0 18 7 59 7s58 -7 58 -7v-706s-16 -7 -50 -7c-37 0 -51 7 -51 7v328c0 169 8 243 8 243h-3s-18 -52 -93 -199l-202 -372
c-1 0 -22 -7 -62 -7c-44 0 -60 7 -60 7v706s17 7 50 7c35 0 52 -7 52 -7v-330c0 -150 -7 -253 -7 -253h3c13 45 54 130 97 214z" />
    <glyph glyph-name="uni041A" unicode="&#x41a;" horiz-adv-x="617" 
d="M264 415l206 298c13 3 31 7 51 7c21 0 40 -4 55 -7l-227 -328l257 -378s-21 -7 -60 -7c-37 0 -59 7 -59 7l-223 326h-73v-326s-15 -7 -51 -7c-32 0 -51 7 -51 7v706s18 7 52 7c33 0 50 -7 50 -7v-298h73z" />
    <glyph glyph-name="uni041B" unicode="&#x41b;" horiz-adv-x="673" 
d="M75 -5c-21 0 -37 3 -49 7c-4 11 -7 24 -7 37c0 14 2 26 7 39c8 -1 19 -2 33 0c35 4 94 40 115 320l25 322h385v-713s-17 -7 -50 -7c-37 0 -52 7 -51 7v634h-194l-19 -245c-27 -362 -129 -401 -195 -401z" />
    <glyph glyph-name="uni041C" unicode="&#x41c;" horiz-adv-x="835" 
d="M616 713c19 4 44 7 65 7c40 0 66 -7 66 -7v-706s-17 -7 -50 -7c-32 0 -51 7 -51 7v320c0 98 -2 207 6 267h-5c-12 -45 -53 -127 -89 -201l-117 -220s-13 -5 -31 -5c-19 0 -28 5 -28 5l-115 216c-37 74 -79 160 -91 205h-4c10 -50 10 -154 10 -252v-335s-16 -7 -48 -7
c-28 0 -45 7 -45 7v706s24 7 61 7c31 0 61 -7 61 -7l132 -250c29 -58 58 -118 69 -155h4c7 21 18 51 37 89c56 105 110 210 163 316z" />
    <glyph glyph-name="uni041D" unicode="&#x41d;" horiz-adv-x="682" 
d="M491 413v300s18 7 51 7s51 -7 51 -7v-706s-17 -7 -50 -7c-38 0 -52 7 -52 7v318h-300v-318s-18 -7 -51 -7c-36 0 -51 7 -51 7v706s17 7 50 7c34 0 52 -7 52 -7v-300h300z" />
    <glyph glyph-name="uni041E" unicode="&#x41e;" horiz-adv-x="680" 
d="M58 360c0 257 109 370 282 370s282 -111 282 -370s-107 -370 -282 -370s-282 111 -282 370zM515 360c0 221 -68 285 -175 285c-106 0 -175 -64 -175 -285s69 -285 175 -285c107 0 175 64 175 285z" />
    <glyph glyph-name="uni041F" unicode="&#x41f;" horiz-adv-x="669" 
d="M580 720v-713s-17 -7 -50 -7c-37 0 -52 7 -52 7v625h-288v-625s-18 -7 -50 -7c-37 0 -51 7 -51 7v713h491z" />
    <glyph glyph-name="uni0420" unicode="&#x420;" horiz-adv-x="606" 
d="M191 281v-274s-17 -7 -50 -7c-37 0 -52 7 -52 7v713h261c132 0 215 -89 215 -220c0 -130 -83 -219 -215 -219h-159zM191 366h146c79 0 122 50 122 134c0 85 -43 135 -122 135h-146v-269z" />
    <glyph glyph-name="uni0421" unicode="&#x421;" horiz-adv-x="562" 
d="M58 360c0 242 99 370 291 370c111 0 171 -34 171 -34c2 -33 -12 -56 -30 -76c0 0 -58 23 -129 23c-116 0 -197 -61 -197 -284s81 -280 197 -280c79 0 139 23 139 23c20 -19 30 -48 31 -78c0 0 -65 -34 -182 -34c-191 0 -291 126 -291 370z" />
    <glyph glyph-name="uni0422" unicode="&#x422;" horiz-adv-x="547" 
d="M34 720h479s8 -18 8 -43c0 -26 -8 -45 -8 -45h-186v-625s-18 -7 -51 -7c-36 0 -51 7 -51 7v625h-191s-8 17 -8 44c0 25 8 44 8 44z" />
    <glyph glyph-name="uni0423" unicode="&#x423;" horiz-adv-x="609" 
d="M490 713c0 0 17 7 50 7c30 0 50 -7 50 -7l-198 -520c-65 -170 -147 -193 -216 -193c-37 0 -61 9 -61 9c0 1 -7 17 -7 41c0 21 4 39 5 41c0 0 25 -3 46 -3c45 0 86 13 127 105h-23l-245 520s18 7 55 7c41 0 57 -7 57 -7l161 -341c22 -48 32 -84 34 -88h3c1 4 12 43 30 91z
" />
    <glyph glyph-name="uni0424" unicode="&#x424;" horiz-adv-x="805" 
d="M351 656v70s17 7 50 7c34 0 52 -7 52 -7v-70c177 0 308 -66 308 -280s-131 -280 -308 -280v-89s-19 -7 -51 -7c-37 0 -51 7 -51 7v89c-177 0 -307 66 -307 280s130 280 307 280zM351 174v404c-116 0 -204 -40 -204 -202c0 -163 88 -202 204 -202zM453 578v-404
c115 0 204 40 204 202c0 163 -89 202 -204 202z" />
    <glyph glyph-name="uni0425" unicode="&#x425;" horiz-adv-x="626" 
d="M483 713c15 4 32 7 54 7c23 0 41 -3 54 -7l-214 -333l232 -371s-21 -9 -59 -9c-36 0 -57 8 -57 8l-183 292l-185 -293c-13 -4 -31 -7 -51 -7c-23 0 -45 2 -60 7l233 367l-209 339s20 7 59 7c34 0 57 -7 57 -7l163 -261z" />
    <glyph glyph-name="uni0426" unicode="&#x426;" horiz-adv-x="703" 
d="M89 0v713s15 7 51 7c32 0 51 -7 51 -7v-625h290v625s15 7 52 7c33 0 50 -7 50 -7v-625h77v-226c-13 -5 -29 -8 -44 -8c-17 0 -32 2 -47 8v138h-480z" />
    <glyph glyph-name="uni0427" unicode="&#x427;" horiz-adv-x="640" 
d="M449 396v317s18 7 51 7s51 -7 51 -7v-706s-17 -7 -50 -7c-37 0 -52 7 -52 7v301c-21 -10 -81 -31 -165 -31c-139 0 -229 55 -229 232v204s17 7 51 7c33 0 51 -7 51 -7v-204c0 -111 48 -144 142 -144c75 0 131 22 150 31z" />
    <glyph glyph-name="uni0428" unicode="&#x428;" horiz-adv-x="953" 
d="M89 0v713s15 7 51 7c33 0 51 -7 51 -7v-625h235v625s14 7 52 7c34 0 50 -7 50 -7v-625h235v625s14 7 51 7c34 0 50 -7 50 -7v-713h-775z" />
    <glyph glyph-name="uni0429" unicode="&#x429;" horiz-adv-x="984" 
d="M89 0v713s15 7 51 7c33 0 51 -7 51 -7v-625h235v625s15 7 52 7c33 0 50 -7 50 -7v-625h235v625s15 7 51 7c34 0 50 -7 50 -7v-625h77v-226c-13 -6 -29 -8 -45 -8s-31 2 -46 8v138h-761z" />
    <glyph glyph-name="uni042A" unicode="&#x42a;" horiz-adv-x="716" 
d="M287 427h171c132 0 217 -85 217 -213s-85 -214 -217 -214h-273v632h-154s-8 17 -8 43s8 45 8 45h256v-293zM287 342v-257h158c80 0 123 48 123 129c0 80 -43 128 -123 128h-158z" />
    <glyph glyph-name="uni042B" unicode="&#x42b;" horiz-adv-x="874" 
d="M89 713c0 0 15 7 52 7c33 0 50 -7 50 -7v-286h171c132 0 217 -85 217 -213s-85 -214 -217 -214h-273v713zM684 713c0 0 16 7 50 7s51 -7 51 -7v-706s-17 -7 -50 -7c-37 0 -51 7 -51 7v706zM191 342v-257h158c80 0 123 48 123 129c0 80 -43 128 -123 128h-158z" />
    <glyph glyph-name="uni042C" unicode="&#x42c;" horiz-adv-x="620" 
d="M191 427h171c132 0 217 -85 217 -213s-85 -214 -217 -214h-273v713s15 7 52 7c33 0 50 -7 50 -7v-286zM191 85h158c80 0 123 48 123 129c0 80 -43 128 -123 128h-158v-257z" />
    <glyph glyph-name="uni042D" unicode="&#x42d;" horiz-adv-x="586" 
d="M46 696c0 0 66 34 181 34c197 0 301 -128 301 -370c0 -244 -104 -370 -301 -370c-122 0 -191 34 -191 34c0 30 11 60 30 77c0 0 65 -23 149 -23c114 0 197 52 205 246h-258s-8 17 -8 43s8 40 8 40h258c-12 183 -94 237 -205 237c-76 0 -139 -23 -139 -23
c-21 19 -30 49 -30 75z" />
    <glyph glyph-name="uni042E" unicode="&#x42e;" horiz-adv-x="953" 
d="M89 7v706s17 7 50 7c34 0 52 -7 52 -7v-311h141c11 227 115 328 281 328c175 0 282 -111 282 -370s-107 -370 -282 -370c-167 0 -270 99 -281 328h-141v-311s-19 -7 -51 -7c-36 0 -51 7 -51 7zM613 645c-107 0 -176 -64 -176 -285s69 -285 176 -285s175 64 175 285
s-68 285 -175 285z" />
    <glyph glyph-name="uni042F" unicode="&#x42f;" horiz-adv-x="628" 
d="M539 720v-713s-15 -7 -52 -7c-33 0 -50 7 -50 7v281h-125l-157 -281s-21 -7 -58 -7s-57 7 -57 7l164 292c-89 27 -141 102 -141 205c0 130 84 216 215 216h261zM437 635h-146c-78 0 -122 -48 -122 -131s44 -130 122 -130h146v261z" />
    <glyph glyph-name="uni0430" unicode="&#x430;" horiz-adv-x="515" 
d="M80 499c0 0 75 37 175 37c145 0 191 -65 191 -194v-335s-11 -7 -39 -7c-25 0 -40 7 -40 7l-15 64c-26 -53 -81 -81 -157 -81c-94 0 -155 56 -155 167c0 107 67 157 192 157c45 0 88 -3 114 -6v40c0 68 -25 104 -103 104c-70 0 -134 -25 -134 -25c-1 1 -13 9 -23 30
c-9 21 -6 41 -6 42zM346 240c-23 2 -63 6 -101 6c-67 0 -102 -27 -102 -89c0 -64 33 -90 87 -90c79 0 116 67 116 138v35z" />
    <glyph glyph-name="uni0431" unicode="&#x431;" horiz-adv-x="569" 
d="M62 351c0 298 95 331 314 372c37 7 45 10 60 34c29 -3 53 -15 66 -37c-14 -54 -44 -75 -102 -85c-187 -34 -253 -51 -267 -216h4c26 57 80 95 167 95c129 0 215 -73 215 -262s-86 -262 -224 -262c-136 0 -233 67 -233 361zM295 437c-71 0 -121 -33 -121 -185
c0 -149 50 -185 121 -185s121 36 121 185s-50 185 -121 185z" />
    <glyph glyph-name="uni0432" unicode="&#x432;" horiz-adv-x="516" 
d="M303 526c89 0 145 -54 145 -140c0 -53 -21 -93 -59 -115c51 -22 79 -64 79 -124c0 -91 -59 -147 -161 -147h-234v526h230zM172 301h105c49 0 74 31 74 77s-25 76 -74 76h-105v-153zM172 72h111c55 0 83 28 83 78c0 49 -24 80 -83 80h-111v-158z" />
    <glyph glyph-name="uni0433" unicode="&#x433;" horiz-adv-x="406" 
d="M73 526h306s8 -17 8 -42c0 -24 -8 -40 -8 -40h-206v-437s-17 -7 -50 -7c-35 0 -50 7 -50 7v519z" />
    <glyph glyph-name="uni0434" unicode="&#x434;" horiz-adv-x="583" 
d="M25 74h38c30 23 51 79 62 214l19 238h338v-452h63v-195c-9 -4 -24 -7 -42 -7c-19 0 -37 3 -50 7v121h-337v-121c-10 -4 -27 -7 -45 -7c-19 0 -36 2 -46 7v195zM227 449l-12 -165c-8 -101 -23 -164 -45 -210h213v375h-156z" />
    <glyph glyph-name="uni0435" unicode="&#x435;" horiz-adv-x="514" 
d="M459 232h-306c8 -119 56 -157 139 -157c71 0 120 29 120 29c18 -16 29 -44 30 -72c0 0 -57 -42 -166 -42c-154 0 -226 95 -226 276c0 189 89 270 222 270c123 0 198 -68 198 -201c0 -63 -11 -103 -11 -103zM370 348c0 59 -24 109 -98 109c-65 0 -111 -43 -119 -154h214
c1 8 3 24 3 45z" />
    <glyph glyph-name="uni0436" unicode="&#x436;" horiz-adv-x="760" 
d="M622 519c0 0 19 7 51 7c29 0 49 -7 49 -7l-139 -237l162 -275s-17 -7 -55 -7c-34 0 -55 7 -55 7l-136 230h-69v-230s-18 -7 -49 -7c-32 0 -50 7 -50 7v230h-70l-136 -230s-20 -7 -54 -7c-39 0 -55 8 -55 8l162 274l-139 237s20 7 51 7c32 0 50 -7 50 -7l121 -207h70v207
s18 7 50 7c29 0 49 -7 49 -7v-207h70z" />
    <glyph glyph-name="uni0437" unicode="&#x437;" horiz-adv-x="459" 
d="M44 511c0 0 47 25 160 25c135 0 192 -55 192 -148c0 -57 -20 -98 -67 -118v-3c54 -20 81 -61 81 -121c0 -90 -55 -156 -219 -156c-100 0 -159 30 -159 30c0 25 9 51 28 69c0 0 48 -19 128 -19s120 24 120 81c0 55 -37 78 -109 78h-70s-7 16 -7 39c0 21 7 36 7 36h70
c61 0 96 21 96 77c0 58 -42 78 -108 78c-68 0 -116 -16 -116 -16c-18 16 -26 40 -27 68z" />
    <glyph glyph-name="uni0438" unicode="&#x438;" horiz-adv-x="575" 
d="M402 519c0 0 18 7 50 7c31 0 51 -7 51 -7v-512s-19 -7 -48 -7c-31 0 -52 7 -52 7v204c0 108 3 178 5 180h-3c5 -2 -42 -84 -82 -151l-150 -233s-19 -7 -51 -7c-31 0 -50 7 -50 7v512s18 7 48 7c33 0 52 -7 52 -7v-206c0 -84 -3 -177 -6 -178h3s19 45 46 90z" />
    <glyph glyph-name="uni0439" unicode="&#x439;" horiz-adv-x="575" 
d="M288 689c67 0 107 32 107 32c21 -6 37 -26 43 -47c0 0 -50 -63 -150 -63s-150 63 -150 63c6 21 23 40 43 47c0 0 40 -32 107 -32zM402 519c0 0 18 7 50 7c31 0 51 -7 51 -7v-512s-19 -7 -48 -7c-31 0 -52 7 -52 7v204c0 108 3 178 5 180h-3s-17 -43 -47 -92l-185 -292
s-19 -7 -51 -7c-31 0 -50 7 -50 7v512s18 7 48 7c33 0 52 -7 52 -7v-206c0 -85 -3 -178 -6 -178h3s19 45 46 90z" />
    <glyph glyph-name="uni043A" unicode="&#x43a;" horiz-adv-x="501" 
d="M229 312l135 207s21 7 51 7c29 0 50 -6 50 -6l-154 -239l176 -274s-19 -7 -58 -7c-34 0 -52 7 -52 7l-150 230h-55v-230s-20 -7 -49 -7c-32 0 -51 7 -51 7v512s18 7 51 7c28 0 49 -7 49 -7v-207h57z" />
    <glyph glyph-name="uni043B" unicode="&#x43b;" horiz-adv-x="555" 
d="M226 290c-21 -255 -81 -296 -157 -296c-24 0 -44 7 -44 7s-7 13 -7 34c0 19 7 35 7 35s16 -3 34 0c33 5 63 57 76 224l18 232h329v-519s-21 -7 -48 -7c-32 0 -51 7 -51 7v442h-144z" />
    <glyph glyph-name="uni043C" unicode="&#x43c;" horiz-adv-x="666" 
d="M484 519c0 0 23 7 56 7c30 0 54 -7 54 -7v-512s-15 -7 -47 -7c-31 0 -49 7 -49 7v238c0 93 7 146 8 150h-4c-2 -4 -11 -32 -38 -83l-110 -199s-9 -5 -24 -5s-24 5 -24 5l-106 193c-29 55 -39 84 -41 89h-3c1 -5 7 -58 7 -151v-237s-19 -7 -46 -7c-26 0 -45 7 -45 7v512
s25 7 56 7c34 0 53 -7 53 -7l119 -219c16 -31 25 -55 31 -69h3c5 13 13 37 30 69z" />
    <glyph glyph-name="uni043D" unicode="&#x43d;" horiz-adv-x="558" 
d="M172 230v-223s-18 -7 -51 -7c-32 0 -49 7 -49 7v512s16 7 50 7c31 0 50 -7 50 -7v-208h214v208s20 7 50 7c32 0 50 -7 50 -7v-512s-17 -7 -51 -7c-30 0 -49 7 -49 7v223h-214z" />
    <glyph glyph-name="uni043E" unicode="&#x43e;" horiz-adv-x="544" 
d="M50 263c0 198 85 273 222 273c138 0 222 -75 222 -273s-85 -273 -222 -273s-222 75 -222 273zM391 263c0 154 -46 196 -119 196s-120 -42 -120 -196s47 -196 120 -196s119 42 119 196z" />
    <glyph glyph-name="uni043F" unicode="&#x43f;" horiz-adv-x="550" 
d="M173 443v-436s-20 -7 -51 -7s-49 7 -49 7v519h404v-519s-19 -7 -51 -7c-28 0 -49 7 -49 7v436h-204z" />
    <glyph glyph-name="uni0440" unicode="&#x440;" 
d="M173 471c28 41 73 65 144 65c114 0 188 -69 188 -273s-74 -273 -188 -273c-71 0 -116 24 -144 65v-280s-17 -6 -51 -6c-33 0 -49 6 -49 6v744s16 7 49 7c34 0 51 -7 51 -7v-48zM402 263c0 149 -40 191 -120 191c-70 0 -109 -58 -109 -126v-128c0 -69 39 -128 109 -128
c80 0 120 42 120 191z" />
    <glyph glyph-name="uni0441" unicode="&#x441;" horiz-adv-x="447" 
d="M287 454c-96 0 -134 -61 -134 -191c0 -131 42 -188 138 -188c55 0 94 17 94 17c17 -15 28 -44 29 -72c0 0 -44 -30 -144 -30c-146 0 -220 95 -220 273s74 273 220 273c96 0 134 -25 134 -25c0 -27 -11 -55 -29 -72c0 0 -35 15 -88 15z" />
    <glyph glyph-name="uni0442" unicode="&#x442;" horiz-adv-x="455" 
d="M29 526h398s8 -16 8 -42s-8 -42 -8 -42h-149v-435s-17 -7 -50 -7c-35 0 -50 7 -50 7v435h-149s-9 16 -9 42s9 42 9 42z" />
    <glyph glyph-name="uni0443" unicode="&#x443;" horiz-adv-x="526" 
d="M504 519l-193 -596c-36 -110 -71 -173 -179 -173c-33 0 -55 10 -55 10c0 1 -7 17 -7 37c0 22 7 39 8 40c0 0 22 -4 45 -4c45 0 68 12 98 106l21 61c-10 1 -21 2 -32 7l-190 512s19 7 52 7c34 0 52 -7 52 -7l114 -304c25 -69 35 -117 35 -117h4s10 47 32 116l99 305
s16 7 49 7c29 0 47 -7 47 -7z" />
    <glyph glyph-name="uni0444" unicode="&#x444;" horiz-adv-x="778" 
d="M339 743c0 0 15 7 50 7c33 0 50 -7 50 -7v-226s39 19 99 19c134 -1 189 -95 189 -273s-55 -273 -189 -273c-60 0 -99 22 -99 22v-255s-17 -7 -50 -7c-35 0 -50 7 -50 7v255s-39 -22 -99 -22c-134 0 -189 95 -189 273s55 273 189 273c59 0 99 -19 99 -19v226zM343 439
c-1 -1 -30 20 -87 20c-74 0 -106 -56 -106 -196s32 -195 106 -195c52 0 87 24 87 24v347zM627 263c0 140 -31 196 -106 196c-57 0 -86 -21 -87 -20v-347s35 -24 87 -24c75 0 106 55 106 195z" />
    <glyph glyph-name="uni0445" unicode="&#x445;" horiz-adv-x="503" 
d="M194 269l-166 250s20 7 55 7c36 0 55 -7 55 -7l118 -177l119 177s17 7 48 7c34 0 52 -7 52 -7l-166 -246l178 -266s-20 -7 -55 -7c-36 0 -55 7 -55 7l-129 193l-130 -193s-18 -7 -49 -7c-33 0 -52 7 -52 7z" />
    <glyph glyph-name="uni0446" unicode="&#x446;" horiz-adv-x="579" 
d="M378 519c0 0 18 7 49 7s50 -7 50 -7v-436h63v-204c-10 -4 -25 -7 -43 -7c-20 0 -38 2 -48 7v121h-376v519s17 7 49 7c35 0 50 -7 50 -7v-436h206v436z" />
    <glyph glyph-name="uni0447" unicode="&#x447;" horiz-adv-x="523" 
d="M451 519v-512s-16 -7 -51 -7c-32 0 -49 7 -49 7v203c-7 -4 -43 -20 -114 -20c-123 0 -191 51 -191 168v161s19 7 50 7s50 -7 50 -7v-162c0 -61 31 -88 101 -88c61 0 97 17 104 22v228s17 7 49 7c35 0 51 -7 51 -7z" />
    <glyph glyph-name="uni0448" unicode="&#x448;" horiz-adv-x="759" 
d="M73 0v519s14 7 49 7c34 0 51 -7 51 -7v-436h156v436s15 7 49 7s51 -7 51 -7v-436h157v436s14 7 49 7c34 0 51 -7 51 -7v-519h-613z" />
    <glyph glyph-name="uni0449" unicode="&#x449;" horiz-adv-x="787" 
d="M749 83v-204c-10 -4 -27 -7 -46 -7s-35 2 -46 7v121h-584v519s14 7 49 7c34 0 51 -7 51 -7v-436h156v436s15 7 49 7s51 -7 51 -7v-436h157v436s14 7 49 7c34 0 51 -7 51 -7v-436h63z" />
    <glyph glyph-name="uni044A" unicode="&#x44a;" horiz-adv-x="578" 
d="M247 316h131c101 0 164 -64 164 -158c0 -95 -63 -158 -164 -158h-231v442h-116c-6 12 -10 26 -10 43c0 16 4 31 10 41h216v-210zM247 72h113c52 0 80 32 80 85s-28 86 -80 86h-113v-171z" />
    <glyph glyph-name="uni044B" unicode="&#x44b;" horiz-adv-x="724" 
d="M73 519c13 5 30 7 49 7c20 0 38 -2 51 -7v-203h131c101 0 164 -64 164 -158c0 -95 -63 -158 -164 -158h-231v519zM552 519c13 5 30 7 50 7c19 0 37 -2 50 -7v-512c-13 -5 -31 -7 -51 -7c-19 0 -36 2 -49 7v512zM173 243v-171h113c52 0 80 32 80 85s-28 86 -80 86h-113z
" />
    <glyph glyph-name="uni044C" unicode="&#x44c;" horiz-adv-x="504" 
d="M173 316h131c101 0 164 -64 164 -158c0 -95 -63 -158 -164 -158h-231v519c13 5 30 7 49 7c20 0 38 -2 51 -7v-203zM173 72h113c52 0 80 32 80 85s-28 86 -80 86h-113v-171z" />
    <glyph glyph-name="uni044D" unicode="&#x44d;" horiz-adv-x="458" 
d="M306 228h-190c-1 1 -7 14 -7 37s6 36 7 38h189c-8 103 -52 156 -137 156c-57 0 -98 -15 -98 -15c-17 16 -26 41 -27 67c0 0 47 25 143 25c147 0 222 -95 222 -273s-77 -273 -223 -273c-99 0 -152 30 -152 30c1 30 11 54 28 68c0 0 45 -17 103 -17c87 0 134 51 142 157z
" />
    <glyph glyph-name="uni044E" unicode="&#x44e;" horiz-adv-x="778" 
d="M283 301c11 169 93 235 222 235c138 0 223 -75 223 -273s-85 -273 -223 -273c-127 0 -209 63 -222 227h-111v-210c-13 -5 -31 -7 -51 -7c-19 0 -36 2 -49 7v512c13 5 30 7 50 7c19 0 37 -2 50 -7v-218h111zM625 263c0 154 -47 196 -120 196c-74 0 -122 -42 -122 -196
s48 -196 122 -196c73 0 120 42 120 196z" />
    <glyph glyph-name="uni044F" unicode="&#x44f;" horiz-adv-x="524" 
d="M254 202l-108 -195c-13 -4 -31 -7 -58 -7c-22 0 -40 3 -53 7l120 209c-61 23 -95 77 -95 148c0 96 64 162 170 162h221v-519c-13 -5 -30 -7 -49 -7c-20 0 -38 2 -51 7v195h-97zM248 454c-57 0 -86 -35 -86 -90c0 -53 29 -89 86 -89h103v179h-103z" />
    <glyph glyph-name="uni0451" unicode="&#x451;" horiz-adv-x="514" 
d="M138 703c0 0 15 6 46 6c29 0 45 -6 45 -6v-81s-16 -6 -45 -6c-31 0 -46 6 -46 6v81zM308 703c0 0 14 6 45 6c30 0 46 -6 46 -6v-81s-16 -6 -46 -6c-31 0 -45 6 -45 6v81zM50 266c0 189 89 270 222 270c123 0 198 -68 198 -201c0 -63 -11 -103 -11 -103h-306
c8 -119 56 -161 139 -161c71 0 120 28 120 28c17 -14 28 -41 30 -67c0 0 -54 -42 -166 -42c-154 0 -226 95 -226 276zM370 348c0 59 -24 109 -98 109c-65 0 -111 -43 -119 -154h214c1 8 3 24 3 45z" />
    <glyph glyph-name="uni2113" unicode="&#x2113;" horiz-adv-x="467" 
d="M114 536c0 118 31 214 168 214c105 0 154 -61 154 -149c0 -121 -86 -243 -223 -342v-109c0 -58 25 -75 63 -75c60 0 107 53 107 53c26 -7 43 -25 48 -49c0 0 -64 -89 -183 -89c-85 0 -134 42 -134 174v33c-17 -10 -42 -23 -60 -32c-19 14 -30 35 -29 66
c32 15 62 33 89 51v254zM343 601c0 50 -16 79 -59 79c-45 0 -71 -26 -71 -131v-186c82 80 130 166 130 238z" />
    <glyph glyph-name="uni2117" unicode="&#x2117;" horiz-adv-x="801" 
d="M55 340c0 191 155 345 346 345s345 -154 345 -345s-154 -346 -345 -346s-346 155 -346 346zM680 340c0 155 -124 279 -279 279s-280 -124 -280 -279s125 -280 280 -280s279 125 279 280zM292 523h149c79 0 130 -52 130 -128c0 -78 -51 -129 -130 -129h-80v-121
c-20 -9 -48 -9 -69 0v378zM361 464v-137h73c41 0 65 23 65 68c0 44 -24 69 -65 69h-73z" />
    <glyph glyph-name="uni2219" unicode="&#x2219;" horiz-adv-x="246" 
d="M123 279c-29 0 -58 19 -58 57s29 57 58 57s58 -19 58 -57s-29 -57 -58 -57z" />
    <glyph glyph-name="uogonek" unicode="&#x173;" horiz-adv-x="548" 
d="M375 519c0 0 18 7 50 7c35 0 50 -7 50 -7v-513c-57 -18 -92 -55 -92 -102c0 -33 29 -39 58 -39c19 0 32 7 32 7c11 -9 16 -28 16 -45c0 0 -30 -18 -68 -18c-56 0 -104 29 -104 86c0 43 22 83 61 107l-3 51c-36 -41 -89 -63 -151 -63c-100 0 -155 61 -155 151v378
s17 7 50 7c34 0 50 -7 50 -7v-360c0 -56 29 -88 93 -88c44 0 86 23 113 64v384z" />
    <glyph glyph-name="uring" unicode="&#x16f;" horiz-adv-x="548" 
d="M153 701c0 72 59 110 120 110c60 0 121 -37 121 -110c0 -72 -56 -112 -122 -112c-67 0 -119 40 -119 112zM336 701c0 30 -21 59 -64 59c-42 0 -62 -30 -62 -59c0 -30 20 -60 62 -60c43 0 64 31 64 60zM375 519c0 0 18 7 50 7c35 0 50 -7 50 -7v-512s-15 -7 -50 -7
c-32 0 -50 7 -50 7v46c-36 -41 -89 -63 -151 -63c-100 0 -155 61 -155 151v378s17 7 50 7c34 0 50 -7 50 -7v-360c0 -56 29 -88 93 -88c44 0 86 23 113 64v384z" />
    <glyph glyph-name="utilde" unicode="&#x169;" horiz-adv-x="548" 
d="M130 667c0 0 31 49 91 49c58 0 72 -33 112 -33c31 0 48 27 48 27c19 -8 33 -26 37 -46c0 0 -31 -48 -91 -48c-57 0 -71 33 -112 33c-31 0 -48 -28 -48 -28c-21 11 -33 25 -37 46zM375 519c0 0 18 7 50 7c35 0 50 -7 50 -7v-512s-15 -7 -50 -7c-32 0 -50 7 -50 7v46
c-36 -41 -89 -63 -151 -63c-100 0 -155 61 -155 151v378s17 7 50 7c34 0 50 -7 50 -7v-360c0 -56 29 -88 93 -88c44 0 86 23 113 64v384z" />
    <glyph glyph-name="v" unicode="v" horiz-adv-x="516" 
d="M123 519l108 -315c19 -56 28 -107 28 -107h4s12 49 31 107l109 315s16 7 45 7c31 0 47 -7 47 -7l-176 -512s-25 -7 -60 -7c-37 0 -60 7 -60 7l-180 512s19 7 52 7c35 0 52 -7 52 -7z" />
    <glyph glyph-name="w" unicode="w" horiz-adv-x="797" 
d="M506 7l-77 271c-19 68 -25 113 -27 144h-4c-2 -31 -8 -77 -28 -144l-79 -271c-16 -5 -35 -7 -57 -7c-21 0 -41 2 -58 7l-151 512s18 7 50 7c34 0 43 -7 43 -7l95 -319c13 -43 18 -77 21 -98h3c4 22 9 54 22 98l92 319s24 7 54 7c33 0 49 -7 49 -7l89 -317
c13 -45 18 -79 20 -100h3c4 21 11 53 25 99l94 318s16 7 44 7c31 0 43 -7 43 -7l-151 -512c-18 -5 -36 -7 -57 -7s-39 2 -58 7z" />
    <glyph glyph-name="wacute" unicode="&#x1e83;" horiz-adv-x="797" 
d="M493 739l-125 -135c-24 4 -45 14 -57 31l95 141c32 4 72 -14 87 -37zM506 7l-77 271c-19 68 -25 113 -27 144h-4c-2 -31 -8 -77 -28 -144l-79 -271c-16 -5 -35 -7 -57 -7c-21 0 -41 2 -58 7l-151 512s18 7 50 7c34 0 43 -7 43 -7l95 -319c13 -43 18 -77 21 -98h3
c4 22 9 54 22 98l92 319s24 7 54 7c33 0 49 -7 49 -7l89 -317c13 -45 18 -79 20 -100h3c4 21 11 53 25 99l94 318s16 7 44 7c31 0 43 -7 43 -7l-151 -512c-18 -5 -36 -7 -57 -7s-39 2 -58 7z" />
    <glyph glyph-name="wcircumflex" unicode="&#x175;" horiz-adv-x="797" 
d="M418 756l135 -110c-10 -20 -25 -37 -45 -44l-102 69l-102 -68c-21 7 -36 23 -46 43l135 110h25zM506 7l-77 271c-19 68 -25 113 -27 144h-4c-2 -31 -8 -77 -28 -144l-79 -271c-16 -5 -35 -7 -57 -7c-21 0 -41 2 -58 7l-151 512s18 7 50 7c34 0 43 -7 43 -7l95 -319
c13 -43 18 -77 21 -98h3c4 22 9 54 22 98l92 319s24 7 54 7c33 0 49 -7 49 -7l89 -317c13 -45 18 -79 20 -100h3c4 21 11 53 25 99l94 318s16 7 44 7c31 0 43 -7 43 -7l-151 -512c-18 -5 -36 -7 -57 -7s-39 2 -58 7z" />
    <glyph glyph-name="wdieresis" unicode="&#x1e85;" horiz-adv-x="797" 
d="M365 703v-81s-15 -6 -45 -6c-31 0 -46 6 -46 6v81s15 6 46 6c30 0 45 -6 45 -6zM535 703v-81s-16 -6 -45 -6c-31 0 -46 6 -46 6v81s15 6 46 6c29 0 45 -6 45 -6zM506 7l-77 271c-19 68 -25 113 -27 144h-4c-2 -31 -8 -77 -28 -144l-79 -271c-16 -5 -35 -7 -57 -7
c-21 0 -41 2 -58 7l-151 512s18 7 50 7c34 0 43 -7 43 -7l95 -319c13 -43 18 -77 21 -98h3c4 22 9 54 22 98l92 319s24 7 54 7c33 0 49 -7 49 -7l89 -317c13 -45 18 -79 20 -100h3c4 21 11 53 25 99l94 318s16 7 44 7c31 0 43 -7 43 -7l-151 -512c-18 -5 -36 -7 -57 -7
s-39 2 -58 7z" />
    <glyph glyph-name="wgrave" unicode="&#x1e81;" horiz-adv-x="797" 
d="M388 604l-125 135c14 23 55 41 87 37l95 -141c-12 -17 -33 -27 -57 -31zM506 7l-77 271c-19 68 -25 113 -27 144h-4c-2 -31 -8 -77 -28 -144l-79 -271c-16 -5 -35 -7 -57 -7c-21 0 -41 2 -58 7l-151 512s18 7 50 7c34 0 43 -7 43 -7l95 -319c13 -43 18 -77 21 -98h3
c4 22 9 54 22 98l92 319s24 7 54 7c33 0 49 -7 49 -7l89 -317c13 -45 18 -79 20 -100h3c4 21 11 53 25 99l94 318s16 7 44 7c31 0 43 -7 43 -7l-151 -512c-18 -5 -36 -7 -57 -7s-39 2 -58 7z" />
    <glyph glyph-name="x" unicode="x" horiz-adv-x="503" 
d="M194 269l-166 250s20 7 55 7c36 0 55 -7 55 -7l118 -177l119 177s17 7 48 7c34 0 52 -7 52 -7l-166 -246l178 -266s-20 -7 -55 -7c-36 0 -55 7 -55 7l-129 193l-130 -193s-18 -7 -49 -7c-33 0 -52 7 -52 7z" />
    <glyph glyph-name="y" unicode="y" horiz-adv-x="526" 
d="M504 519l-193 -596c-36 -110 -71 -173 -179 -173c-33 0 -55 10 -55 10c0 1 -7 17 -7 37c0 22 7 39 8 40c0 0 22 -4 45 -4c45 0 68 12 98 106l21 61c-10 1 -21 2 -32 7l-190 512s19 7 52 7c34 0 52 -7 52 -7l114 -304c25 -69 35 -117 35 -117h4s10 47 32 116l99 305
s16 7 49 7c29 0 47 -7 47 -7z" />
    <glyph glyph-name="yacute" unicode="&#xfd;" horiz-adv-x="526" 
d="M373 739l-125 -135c-24 4 -45 14 -57 31l95 141c32 4 72 -14 87 -37zM504 519l-193 -596c-36 -110 -71 -173 -179 -173c-33 0 -55 10 -55 10c0 1 -7 17 -7 37c0 22 7 39 8 40c0 0 22 -4 45 -4c45 0 68 12 98 106l21 61c-10 1 -21 2 -32 7l-190 512s19 7 52 7
c34 0 52 -7 52 -7l114 -304c25 -69 35 -117 35 -117h4s10 47 32 116l99 305s16 7 49 7c29 0 47 -7 47 -7z" />
    <glyph glyph-name="ycircumflex" unicode="&#x177;" horiz-adv-x="526" 
d="M277 756l135 -110c-10 -20 -25 -37 -45 -44l-102 69l-102 -68c-21 7 -36 23 -46 43l135 110h25zM504 519l-193 -596c-36 -110 -71 -173 -179 -173c-33 0 -55 10 -55 10c0 1 -7 17 -7 37c0 22 7 39 8 40c0 0 22 -4 45 -4c45 0 68 12 98 106l21 61c-10 1 -21 2 -32 7
l-190 512s19 7 52 7c34 0 52 -7 52 -7l114 -304c25 -69 35 -117 35 -117h4s10 47 32 116l99 305s16 7 49 7c29 0 47 -7 47 -7z" />
    <glyph glyph-name="ydieresis" unicode="&#xff;" horiz-adv-x="526" 
d="M231 706v-81s-16 -6 -45 -6c-32 0 -46 6 -46 6v81s14 6 46 6c29 0 45 -6 45 -6zM401 706v-81s-16 -6 -46 -6c-31 0 -45 6 -45 6v81s14 6 45 6c30 0 46 -6 46 -6zM504 519l-193 -596c-36 -110 -71 -173 -179 -173c-33 0 -55 10 -55 10c0 1 -7 17 -7 37c0 22 7 39 8 40
c0 0 22 -4 45 -4c45 0 68 12 98 106l21 61c-10 1 -21 2 -32 7l-190 512s19 7 52 7c34 0 52 -7 52 -7l114 -304c25 -69 35 -117 35 -117h4s10 47 32 116l99 305s16 7 49 7c29 0 47 -7 47 -7z" />
    <glyph glyph-name="ygrave" unicode="&#x1ef3;" horiz-adv-x="526" 
d="M248 604l-125 135c14 23 55 41 87 37l95 -141c-12 -17 -33 -27 -57 -31zM504 519l-193 -596c-36 -110 -71 -173 -179 -173c-33 0 -55 10 -55 10c0 1 -7 17 -7 37c0 22 7 39 8 40c0 0 22 -4 45 -4c45 0 68 12 98 106l21 61c-10 1 -21 2 -32 7l-190 512s19 7 52 7
c34 0 52 -7 52 -7l114 -304c25 -69 35 -117 35 -117h4s10 47 32 116l99 305s16 7 49 7c29 0 47 -7 47 -7z" />
    <glyph glyph-name="z" unicode="z" horiz-adv-x="467" 
d="M150 82h265s6 -14 6 -41c0 -25 -6 -41 -6 -41h-371c-3 12 -6 27 -6 43s3 29 6 39l266 362h-249s-6 17 -6 42c0 26 6 40 6 40h354c4 -9 6 -23 6 -39s-2 -32 -6 -43z" />
    <glyph glyph-name="zacute" unicode="&#x17a;" horiz-adv-x="467" 
d="M358 739l-125 -135c-25 4 -45 14 -57 31l94 141c33 4 73 -14 88 -37zM150 82h265s6 -14 6 -41c0 -25 -6 -41 -6 -41h-371c-3 12 -6 27 -6 43s3 29 6 39l266 362h-249s-6 17 -6 42c0 26 6 40 6 40h354c4 -9 6 -23 6 -39s-2 -32 -6 -43z" />
    <glyph glyph-name="zcaron" unicode="&#x17e;" horiz-adv-x="467" 
d="M231 602l-125 102c9 19 23 34 42 41l94 -64l95 63c18 -5 32 -21 41 -40l-124 -102h-23zM150 82h265s6 -14 6 -41c0 -25 -6 -41 -6 -41h-371c-3 12 -6 27 -6 43s3 29 6 39l266 362h-249s-6 17 -6 42c0 26 6 40 6 40h354c4 -9 6 -23 6 -39s-2 -32 -6 -43z" />
    <glyph glyph-name="zdotaccent" unicode="&#x17c;" horiz-adv-x="467" 
d="M292 711v-86s-17 -6 -48 -6c-33 0 -48 6 -48 6v86s15 6 48 6c31 0 48 -6 48 -6zM150 82h265s6 -14 6 -41c0 -25 -6 -41 -6 -41h-371c-3 12 -6 27 -6 43s3 29 6 39l266 362h-249s-6 17 -6 42c0 26 6 40 6 40h354c4 -9 6 -23 6 -39s-2 -32 -6 -43z" />
    <glyph glyph-name="zero" unicode="0" horiz-adv-x="618" 
d="M308 -10c-159 0 -248 101 -248 350c0 246 89 350 248 350s250 -101 250 -350s-91 -350 -250 -350zM308 605c-92 0 -142 -57 -142 -265c0 -207 50 -265 142 -265c94 0 142 58 142 265c0 208 -48 265 -142 265z" />
    </font>
</defs>
</svg>
